<svg width="56" height="60" viewBox="0 0 56 60" fill="none" xmlns="http://www.w3.org/2000/svg">
<g clip-path="url(#clip0_13_35)">
<path d="M54.9419 26.7968L50.8251 25.8484L50.8155 25.7806C50.6328 23.9323 50.2192 22.1032 49.594 20.3516L49.5747 20.2839L52.8739 17.6419C53.3645 17.2452 53.5184 16.5677 53.2491 15.9871C52.316 14.0419 51.181 12.2323 49.8921 10.6065C48.6032 8.97097 47.1027 7.46129 45.4291 6.11613C44.9289 5.71936 44.2363 5.71936 43.7362 6.11613L40.4273 8.75807L40.3696 8.71935C38.7826 7.70323 37.0993 6.88065 35.3871 6.3L35.3198 6.28065V2.04194C35.3198 1.40323 34.887 0.86129 34.2714 0.716129C32.1937 0.241935 30.0873 0 28 0C25.9127 0 23.8063 0.241935 21.7286 0.716129C21.113 0.86129 20.6802 1.40323 20.6802 2.04194V6.29032L20.6128 6.30968C18.8622 6.90968 17.1886 7.72258 15.6304 8.72903L15.5727 8.76774L12.2638 6.12581C11.7637 5.72903 11.0711 5.72903 10.5709 6.12581C8.89729 7.46129 7.39677 8.97097 6.10787 10.6065C4.79011 12.271 3.6551 14.0806 2.75094 15.9871C2.472 16.5581 2.6259 17.2452 3.12607 17.6419L6.42528 20.2839L6.40605 20.3516C5.78083 22.1032 5.36723 23.9323 5.17485 25.7806L5.16524 25.8484L1.04844 26.7968C0.432841 26.9419 0 27.4839 0 28.1226C0 30.2806 0.240467 32.4 0.702164 34.4323C1.17348 36.5032 1.87564 38.5161 2.78942 40.4226C3.06836 41.0032 3.69358 41.3032 4.30917 41.1581L8.42597 40.2097L8.46445 40.2677C9.43593 41.8548 10.5902 43.3161 11.9079 44.6129L11.956 44.6613L10.1285 48.4936C9.84954 49.0645 10.0034 49.7516 10.5036 50.1484C11.6482 51.0677 12.8987 51.9194 14.2164 52.6742C14.8609 53.0419 15.6881 52.8194 16.0536 52.1613C16.2363 51.8419 16.2748 51.4742 16.1786 51.1258C16.0824 50.7774 15.8612 50.4871 15.5438 50.3032C14.7262 49.829 13.9086 49.2968 13.1007 48.7161L13.0333 48.6677L14.8224 44.9323C15.0821 44.3903 14.9474 43.7419 14.505 43.3355C12.7832 41.7774 11.3597 39.9871 10.2728 37.9935C9.9842 37.4613 9.3686 37.1903 8.79148 37.3258L4.78049 38.2452L4.75163 38.1677C4.12642 36.6968 3.6551 35.2258 3.33768 33.8032C3.00103 32.3323 2.79904 30.8032 2.73171 29.2548V29.1774L6.7427 28.2581C7.31982 28.1226 7.75266 27.6097 7.79114 27.0097C7.91618 24.6968 8.42597 22.4613 9.30127 20.3613C9.53212 19.8097 9.3686 19.1613 8.89729 18.7839L5.68464 16.2097L5.72312 16.1419C6.44452 14.7871 7.29097 13.5 8.2336 12.3194C9.17623 11.129 10.2343 10.0161 11.3885 9.00968L11.4462 8.96129L14.6685 11.5452C15.1398 11.9323 15.8035 11.9516 16.2941 11.5935C18.1697 10.2581 20.2281 9.26129 22.4019 8.63226C22.979 8.47742 23.383 7.93548 23.383 7.32581V3.19355L23.46 3.17419C24.999 2.90323 26.5283 2.75806 28 2.75806C29.4717 2.75806 31.0587 2.89355 32.54 3.17419L32.617 3.19355V7.32581C32.617 7.92581 33.021 8.45807 33.5981 8.63226C35.7719 9.25161 37.8303 10.2484 39.7059 11.5935C40.1965 11.9419 40.8602 11.9226 41.3315 11.5452L44.5538 8.96129L44.6115 9.00968C45.7561 10.0065 46.8142 11.1194 47.7664 12.3194C48.709 13.5097 49.5555 14.7968 50.2769 16.1419L50.3154 16.2097L47.1027 18.7839C46.6314 19.1613 46.4679 19.8097 46.6987 20.3613C47.574 22.4903 48.0838 24.7258 48.2089 27.0097C48.2473 27.6194 48.6706 28.1323 49.2573 28.2581L53.2683 29.1774V29.2548C53.201 30.7935 52.999 32.3226 52.6623 33.8032C52.316 35.2839 51.8447 36.7548 51.2484 38.1677L51.2195 38.2452L47.2085 37.3258C46.6218 37.1903 46.0158 37.4613 45.7272 37.9935C44.6307 39.9968 43.2071 41.7871 41.495 43.3355C41.0429 43.7323 40.9179 44.3903 41.1776 44.9323L42.9667 48.6581L42.8993 48.7065C42.101 49.2968 41.2834 49.829 40.4562 50.2936C40.1484 50.4774 39.9176 50.7677 39.8214 51.1161C39.7252 51.4645 39.7637 51.8226 39.9464 52.1419C40.1869 52.5677 40.639 52.829 41.1199 52.829C41.3507 52.829 41.572 52.7613 41.7836 52.6452C43.0821 51.9097 44.3229 51.0677 45.4964 50.1194C45.9869 49.7226 46.1408 49.0452 45.8715 48.4645L44.044 44.6419L44.0921 44.5935C45.4002 43.2968 46.5641 41.8355 47.5356 40.2484L47.574 40.1903L51.6908 41.1387C52.3064 41.2742 52.9316 40.9742 53.2106 40.4032C54.1436 38.4581 54.8458 36.4452 55.2978 34.4129C55.7692 32.3806 56 30.2613 56 28.1032C56 27.4645 55.5672 26.9226 54.9419 26.7968Z" fill="black"/>
<path d="M36.3296 44.5931L36.2623 44.5737V43.064L36.3104 43.035C41.87 39.8995 45.1884 33.9673 44.9768 27.5511C44.8229 23.1479 42.9761 19.006 39.7827 15.8995C36.5893 12.7931 32.4148 11.0898 28.0287 11.0898H27.8459C23.354 11.1382 19.1506 12.9382 15.9861 16.1511C12.8215 19.364 11.0806 23.6221 11.0806 28.1511C11.0806 34.3156 14.4086 40.0156 19.7566 43.035L19.8047 43.064V44.5737L19.7374 44.5931C18.1311 45.1834 17.0538 46.7415 17.0538 48.4737V52.1705C17.0538 54.4544 18.9006 56.3027 21.161 56.3027H21.8343L21.8535 56.3705C22.4787 58.5092 24.4602 59.9995 26.6725 59.9995H29.4234C31.6357 59.9995 33.6172 58.5092 34.2424 56.3705L34.2616 56.3027H34.9349C37.1953 56.3027 39.0421 54.4544 39.0421 52.1705V48.4737C39.0229 46.7511 37.9359 45.1931 36.3296 44.5931ZM13.7738 28.1608C13.7738 20.3415 20.1029 13.906 27.8748 13.8189H28.0287C35.6275 13.8189 42.0239 20.0221 42.2836 27.6576C42.4567 33.0576 39.6481 38.0511 34.9541 40.6931C34.5309 40.935 34.1847 41.2834 33.9442 41.6898C33.7037 42.106 33.5691 42.5802 33.5691 43.0737V44.3415H22.4979V43.0834C22.4979 42.0866 21.9689 41.1769 21.1129 40.7027C16.5825 38.1673 13.7738 33.3673 13.7738 28.1608ZM36.32 52.1705C36.32 52.9447 35.6948 53.5834 34.9157 53.5834H33.0785C32.3379 53.5834 31.7319 54.1931 31.7319 54.9382C31.7319 56.2253 30.6931 57.2705 29.4138 57.2705H26.6628C25.9992 57.2705 25.3547 56.9705 24.9026 56.4576L24.7583 56.2931H27.567C28.3076 56.2931 28.9136 55.6834 28.9136 54.9382C28.9136 54.1931 28.3076 53.5834 27.567 53.5834H21.1417C20.3626 53.5834 19.7374 52.9544 19.7374 52.1705V48.4737C19.7374 47.6995 20.3626 47.0608 21.1417 47.0608H34.9157C35.6948 47.0608 36.32 47.6995 36.32 48.4737V52.1705Z" fill="black"/>
</g>
<defs>
<clipPath id="clip0_13_35">
<rect width="56" height="60" fill="white"/>
</clipPath>
</defs>
</svg>
