<svg width="61" height="58" viewBox="0 0 61 58" fill="none" xmlns="http://www.w3.org/2000/svg">
<g clip-path="url(#clip0_14_94)">
<path d="M60.8809 31.8384C60.3378 26.3873 57.8675 21.2487 53.9606 17.3601C50.5793 14.0096 46.4447 11.8743 42.0998 10.9368V7.69051C43.8693 7.30859 45.1832 5.74618 45.1832 3.88866C45.1832 1.73601 43.4313 0 41.2588 0H32.6392C30.4667 0 28.7147 1.73601 28.7147 3.88866C28.7147 5.74618 30.0462 7.30859 31.7982 7.69051V10.9368C27.4533 11.8743 23.3362 14.0096 19.9724 17.3427C19.2191 18.0892 18.5358 18.8704 17.9051 19.6863C17.8525 19.6863 17.8 19.669 17.7474 19.669H9.21535C8.6372 19.669 8.16417 20.1377 8.16417 20.7106C8.16417 21.2834 8.6372 21.7522 9.21535 21.7522H16.4685C15.5224 23.2799 14.7516 24.9117 14.1734 26.5956H1.05118C0.473031 26.5956 0 27.0644 0 27.6372C0 28.2101 0.473031 28.6788 1.05118 28.6788H13.5777C13.2098 30.2586 12.9821 31.8731 12.947 33.5223H7.51594C6.93779 33.5223 6.46476 33.991 6.46476 34.5639C6.46476 35.1368 6.93779 35.6055 7.51594 35.6055H12.9821C13.0872 37.2547 13.35 38.8866 13.7705 40.449H5.83405C5.2559 40.449 4.78287 40.9177 4.78287 41.4906C4.78287 42.0635 5.2559 42.5322 5.83405 42.5322H14.4362C15.6275 45.6744 17.4846 48.5735 19.9549 51.0213C23.8793 54.9099 29.0651 57.3403 34.5838 57.8785C35.3722 57.9479 36.1606 58 36.949 58C41.5917 58 46.1819 56.6633 50.0712 54.1634L50.0887 54.1461C52.8218 52.2712 54.5738 50.7609 57.1141 47.1673C57.1141 47.15 57.1317 47.15 57.1317 47.1326C60.0925 42.6711 61.424 37.22 60.8809 31.8384ZM30.8171 3.90602C30.8171 2.91649 31.6405 2.10057 32.6392 2.10057H41.2588C42.2575 2.10057 43.0809 2.91649 43.0809 3.90602C43.0809 4.89554 42.2575 5.71146 41.2588 5.71146H32.6392C31.6405 5.71146 30.8171 4.89554 30.8171 3.90602ZM33.9006 7.79467H39.9974V10.5896C37.9827 10.3292 35.9328 10.3466 33.9006 10.5896V7.79467ZM55.3972 46.0216C53.0496 49.3373 51.4378 50.7435 48.9149 52.4621C40.2952 58.0174 28.7498 56.8195 21.4616 49.5977C17.327 45.5008 15.0319 40.0323 15.0319 34.2341C15.0319 28.4358 17.3094 22.9674 21.4616 18.8704C25.7364 14.6345 31.3602 12.5166 36.9665 12.5166C42.5728 12.5166 48.1966 14.6345 52.4714 18.8704C59.7421 26.0575 60.9685 37.4804 55.3972 46.0216Z" fill="black"/>
<path d="M36.9663 15.9541C26.8049 15.9541 18.5356 24.1481 18.5356 34.2169C18.5356 44.2857 26.8049 52.4797 36.9663 52.4797C47.1277 52.4797 55.397 44.2857 55.397 34.2169C55.397 24.1481 47.1277 15.9541 36.9663 15.9541ZM36.9663 50.3965C27.9612 50.3965 20.638 43.14 20.638 34.2169C20.638 25.2938 27.9612 18.0373 36.9663 18.0373C45.9715 18.0373 53.2947 25.2938 53.2947 34.2169C53.2947 43.14 45.9715 50.3965 36.9663 50.3965Z" fill="black"/>
<path d="M44.6403 25.1377L44.4651 25.3113L38.631 31.0922C38.1405 30.8318 37.5623 30.6755 36.9667 30.6755C36.371 30.6755 35.7928 30.8318 35.3023 31.0922L32.5692 28.384C32.1663 27.9847 31.5005 27.9847 31.08 28.384C30.6771 28.7833 30.6771 29.443 31.08 29.8596L33.8131 32.5678C33.5503 33.0539 33.3926 33.6268 33.3926 34.217C33.3926 36.1613 35.0045 37.7584 36.9667 37.7584C38.9289 37.7584 40.5407 36.1613 40.5407 34.217C40.5407 33.6268 40.383 33.0539 40.1202 32.5678L45.9542 26.7869L46.1294 26.6133C46.5324 26.214 46.5324 25.5543 46.1294 25.1377C45.7265 24.721 45.0607 24.721 44.6403 25.1377ZM36.9667 35.6752C36.1608 35.6752 35.495 35.0156 35.495 34.217C35.495 33.4184 36.1608 32.7587 36.9667 32.7587C37.7726 32.7587 38.4383 33.4184 38.4383 34.217C38.4383 35.0156 37.7726 35.6752 36.9667 35.6752Z" fill="black"/>
<path d="M47.6011 34.234C47.6011 34.8069 48.0741 35.2756 48.6523 35.2756H49.756C50.3341 35.2756 50.8072 34.8069 50.8072 34.234C50.8072 33.6611 50.3341 33.1924 49.756 33.1924H48.6523C48.0741 33.1924 47.6011 33.6611 47.6011 34.234Z" fill="black"/>
<path d="M25.2809 33.1582H24.1772C23.599 33.1582 23.126 33.6269 23.126 34.1998C23.126 34.7727 23.599 35.2414 24.1772 35.2414H25.2809C25.859 35.2414 26.3321 34.7727 26.3321 34.1998C26.3321 33.6269 25.859 33.1582 25.2809 33.1582Z" fill="black"/>
<path d="M36.9838 23.6788C37.5619 23.6788 38.035 23.2101 38.035 22.6372V21.5436C38.035 20.9707 37.5619 20.502 36.9838 20.502C36.4056 20.502 35.9326 20.9707 35.9326 21.5436V22.6372C35.9326 23.2101 36.4056 23.6788 36.9838 23.6788Z" fill="black"/>
<path d="M36.9491 44.7539C36.371 44.7539 35.8979 45.2226 35.8979 45.7955V46.8892C35.8979 47.4621 36.371 47.9308 36.9491 47.9308C37.5273 47.9308 38.0003 47.4621 38.0003 46.8892V45.7955C38.0003 45.2226 37.5273 44.7539 36.9491 44.7539Z" fill="black"/>
</g>
<defs>
<clipPath id="clip0_14_94">
<rect width="61" height="58" fill="white"/>
</clipPath>
</defs>
</svg>
