<svg width="55" height="62" viewBox="0 0 55 62" fill="none" xmlns="http://www.w3.org/2000/svg">
<g clip-path="url(#clip0_13_39)">
<path d="M30.9417 35.4297H9.25908C8.59702 35.4297 8.06152 35.9687 8.06152 36.6352C8.06152 37.3016 8.59702 37.8407 9.25908 37.8407H30.9417C31.6037 37.8407 32.1392 37.3016 32.1392 36.6352C32.1392 35.9687 31.594 35.4297 30.9417 35.4297Z" fill="black"/>
<path d="M30.9417 41.1729H9.25908C8.59702 41.1729 8.06152 41.7119 8.06152 42.3784C8.06152 43.0448 8.59702 43.5839 9.25908 43.5839H30.9417C31.6037 43.5839 32.1392 43.0448 32.1392 42.3784C32.1392 41.7119 31.594 41.1729 30.9417 41.1729Z" fill="black"/>
<path d="M42.3721 0C39.5875 0 36.9393 0.901676 34.7292 2.60702L34.6999 2.62662H4.37157C1.95698 2.62662 0 4.60639 0 7.03699V51.1015C0 53.5321 1.96672 55.5021 4.37157 55.5021H8.18817V57.5994C8.18817 60.03 10.1549 62 12.5597 62H44.0175C46.4321 62 48.3891 60.0202 48.3891 57.5994V23.9042L48.4378 23.8748C52.4783 21.6304 55 17.3573 55 12.7215C55.0097 5.70408 49.3432 0 42.3721 0ZM4.36183 53.0812V53.0715C3.27138 53.0715 2.38538 52.1796 2.38538 51.0819V7.02719C2.38538 5.9295 3.27138 5.03762 4.36183 5.03762H32.3048L32.188 5.19444C31.4773 6.17452 30.9028 7.23301 30.4939 8.3699L30.4549 8.46791L30.3576 8.42871C30.0363 8.28169 29.6955 8.21309 29.3353 8.21309H10.8462C9.43441 8.21309 8.29527 9.36959 8.29527 10.7809V29.3927C8.29527 30.8138 9.44415 31.9605 10.8462 31.9605H29.3353C30.747 31.9605 31.8862 30.804 31.8862 29.3927V19.8565L32.0614 20.1015C33.4927 22.1205 35.4496 23.6592 37.7182 24.5707L37.7766 24.5903V51.0917C37.7766 52.1894 36.8906 53.0812 35.8001 53.0812H4.36183ZM29.8708 14.6032V29.3731C29.8708 29.6671 29.6371 29.9023 29.345 29.9023H10.8559C10.5638 29.9023 10.3301 29.6671 10.3301 29.3731V10.7711C10.3301 10.4771 10.5638 10.2419 10.8559 10.2419H16.0064V17.7493C16.0064 18.7392 16.8047 19.5428 17.7881 19.5428H22.4128C23.3962 19.5428 24.1945 18.7392 24.1945 17.7493V10.2419H29.345C29.6371 10.2419 29.8708 10.4771 29.8708 10.7711V10.8299C29.7831 11.4474 29.7345 12.0844 29.7345 12.7117C29.7345 13.3389 29.7831 13.9858 29.8708 14.6032ZM18.0412 17.5141V10.2517H22.1791V17.5141H18.0412ZM45.994 57.5994C45.994 58.6971 45.108 59.589 44.0175 59.589H12.5597C11.4693 59.589 10.5833 58.6971 10.5833 57.5994V55.4923H35.8196C38.2342 55.4923 40.1912 53.5125 40.1912 51.0917V25.2567L40.308 25.2763C40.9896 25.3939 41.6808 25.4429 42.3624 25.4429C43.5502 25.4429 44.7283 25.2763 45.8674 24.9431L45.994 24.9039V57.5994ZM42.3721 23.0221C36.7251 23.0221 32.1393 18.3961 32.1393 12.7215C32.1393 7.04679 36.7251 2.4208 42.3721 2.4208C48.0191 2.4208 52.6049 7.04679 52.6049 12.7215C52.6049 18.4059 48.0191 23.0221 42.3721 23.0221Z" fill="black"/>
<path d="M42.3816 9.92871C41.7196 9.92871 41.1841 10.4678 41.1841 11.1342V19.4159C41.1841 20.0824 41.7196 20.6214 42.3816 20.6214C43.0437 20.6214 43.5792 20.0824 43.5792 19.4159V11.1342C43.5792 10.4678 43.0437 9.92871 42.3816 9.92871Z" fill="black"/>
<path d="M42.3721 8.34982C42.9851 8.34982 43.4821 7.84959 43.4821 7.23253C43.4821 6.61546 42.9851 6.11523 42.3721 6.11523C41.7591 6.11523 41.2622 6.61546 41.2622 7.23253C41.2622 7.84959 41.7591 8.34982 42.3721 8.34982Z" fill="black"/>
<path d="M27.8067 25.2666H23.182C22.627 25.2666 22.1694 25.7272 22.1694 26.2859C22.1694 26.8445 22.6173 27.3052 23.182 27.3052H27.8067C28.3617 27.3052 28.8193 26.8543 28.8193 26.2859C28.8193 25.7174 28.3714 25.2666 27.8067 25.2666Z" fill="black"/>
</g>
<defs>
<clipPath id="clip0_13_39">
<rect width="55" height="62" fill="white"/>
</clipPath>
</defs>
</svg>
