<svg width="62" height="55" viewBox="0 0 62 55" fill="none" xmlns="http://www.w3.org/2000/svg">
<path d="M61.6337 28.5761L59.5104 24.8426C59.475 24.7895 59.4396 24.7364 59.4042 24.6833L52.2203 11.9612C51.4418 10.5987 49.69 10.1033 48.3099 10.8641L45.0541 12.6689C44.3817 13.0405 43.904 13.6421 43.6917 14.3853C43.4793 15.1284 43.5678 15.907 43.9571 16.5794L43.9748 16.6147L41.993 17.181C40.9785 17.4759 40.141 17.4936 39.4804 17.234C39.2327 17.1456 38.9142 17.0217 38.5426 16.8802L35.3577 15.7654C33.6236 15.1638 32.8451 15.1992 31.7126 15.2877L26.2805 15.7654C23.7856 15.9778 22.2285 16.544 21.3969 17.5349L18.0173 16.5617L18.035 16.544C18.4242 15.8716 18.5127 15.093 18.3004 14.3499C18.088 13.6067 17.6103 13.0051 16.9379 12.6335L13.6822 10.8287C12.302 10.0679 10.5503 10.5456 9.77172 11.9258L0.377825 28.5407C-0.0114492 29.2131 -0.0999207 29.9916 0.112411 30.7348C0.324742 31.4779 0.802488 32.0972 1.47487 32.4511L4.73062 34.256C5.17298 34.5037 5.65072 34.6098 6.12847 34.6098C7.13704 34.6098 8.11023 34.079 8.64106 33.1589L9.04803 32.4334C10.1097 32.8758 11.0121 33.5659 11.5783 34.3621C11.0298 34.9637 10.6759 35.7246 10.5874 36.5562C10.4636 37.6002 10.7644 38.6264 11.4191 39.4581C12.0737 40.272 13.0115 40.7851 14.0555 40.909C14.1086 40.909 14.144 40.909 14.1971 40.9267C14.1971 40.9798 14.1794 41.0152 14.1794 41.0683C14.0555 42.1122 14.3563 43.1385 15.011 43.9524C15.7188 44.8371 16.745 45.3326 17.789 45.421C17.789 45.4741 17.7713 45.5095 17.7713 45.5626C17.6474 46.6066 17.9483 47.6328 18.6029 48.4468C19.2576 49.2607 20.1954 49.7738 21.2394 49.8977C21.2925 49.8977 21.3279 49.8977 21.3809 49.9154C21.3809 49.9685 21.3632 50.0039 21.3632 50.0569C21.2394 51.1009 21.5402 52.1272 22.1949 52.9411C22.9734 53.9143 24.1236 54.4097 25.2737 54.4097C26.1407 54.4097 27.0077 54.1266 27.7332 53.5427L30.2812 51.5079C30.5112 51.3132 30.7235 51.1009 30.9005 50.8709L32.4753 52.1272C33.2007 52.7111 34.0677 52.9942 34.9348 52.9942C36.0849 52.9942 37.235 52.4811 38.0136 51.5256C38.4736 50.9594 38.739 50.3047 38.8275 49.6323C39.2876 49.8092 39.783 49.9154 40.2784 49.9154C40.42 49.9154 40.5792 49.9154 40.7208 49.8977C41.7648 49.7738 42.7026 49.2607 43.3572 48.4468C44.0119 47.6328 44.3127 46.6066 44.1889 45.5626C44.1889 45.5095 44.1712 45.4741 44.1712 45.421C45.2151 45.3326 46.2414 44.8371 46.9492 43.9524C47.657 43.0677 47.9224 41.9707 47.7631 40.9267C47.8162 40.9267 47.8516 40.9267 47.9047 40.909C48.9486 40.7851 49.8864 40.272 50.5411 39.4581C51.1958 38.6441 51.4966 37.6179 51.3728 36.5562C51.2843 35.7246 50.9304 34.9637 50.3819 34.3444C50.9658 33.5305 51.8505 32.8581 52.9122 32.4157L53.3191 33.1412C53.85 34.079 54.8232 34.5921 55.8317 34.5921C56.3095 34.5921 56.7872 34.4683 57.2296 34.2383L60.4853 32.4334C61.1577 32.0619 61.6354 31.4603 61.8478 30.7171C62.1132 30.027 62.0247 29.2485 61.6354 28.5761H61.6337ZM5.77281 32.4511L2.51706 30.6463C2.34012 30.5578 2.23396 30.3986 2.18087 30.204C2.12779 30.0093 2.14548 29.797 2.25165 29.62L11.6473 13.0051C11.7889 12.7574 12.0366 12.6335 12.302 12.6335C12.4259 12.6335 12.5674 12.6689 12.6736 12.7397L15.9293 14.5445C16.1063 14.633 16.2124 14.7922 16.2832 14.9869C16.3363 15.1815 16.3186 15.3938 16.2124 15.5708L15.5401 16.774C15.5401 16.774 15.5401 16.7917 15.5224 16.7917L7.6661 30.6994L7.64841 30.7171L6.81678 32.1857C6.60444 32.5219 6.1267 32.6458 5.77281 32.4511ZM13.0982 38.1841C12.7974 37.8125 12.6559 37.3348 12.709 36.857C12.7621 36.3793 12.9921 35.9369 13.3814 35.6361L17.9465 31.9911C18.725 31.3718 19.8752 31.4956 20.4945 32.2742C20.7953 32.6458 20.9368 33.1235 20.8837 33.6013C20.8307 34.079 20.6006 34.5037 20.2114 34.8045L20.1937 34.8222L15.6462 38.4495C15.2746 38.7503 14.7969 38.8919 14.3192 38.8388C13.8237 38.8034 13.3991 38.5734 13.0982 38.1841ZM16.6902 42.6784C16.3894 42.3069 16.2478 41.8291 16.3009 41.3514C16.354 40.8736 16.584 40.4313 16.9733 40.1305L23.5379 34.8929C24.3164 34.2736 25.4666 34.3975 26.0859 35.1761C26.3867 35.5476 26.5282 36.0254 26.4751 36.5031C26.422 36.9809 26.192 37.4232 25.8027 37.724L19.2382 42.9615C18.4596 43.5808 17.3095 43.457 16.6902 42.6784ZM20.2821 47.1728C19.9813 46.8012 19.8398 46.3235 19.8929 45.8457C19.9459 45.368 20.176 44.9256 20.5652 44.6248L25.1127 40.9975C25.1127 40.9975 25.1304 40.9975 25.1304 40.9798C25.9089 40.3605 27.059 40.4843 27.6783 41.2629C27.9791 41.6345 28.1207 42.1122 28.0676 42.59C28.0145 43.0677 27.7845 43.5101 27.3952 43.8109L22.8301 47.4559C22.4585 47.7567 21.9808 47.8982 21.503 47.8452C21.0076 47.7744 20.5829 47.5444 20.2821 47.1728ZM28.97 49.8977L26.422 51.9325C25.6435 52.5518 24.4934 52.428 23.8741 51.6494C23.5733 51.2779 23.4317 50.8001 23.4848 50.3224C23.5379 49.8446 23.7679 49.4023 24.1572 49.1015L26.7052 47.0666C27.4837 46.4473 28.6338 46.5712 29.2531 47.3497C29.5539 47.7213 29.6955 48.1991 29.6424 48.6768C29.5893 49.1722 29.3593 49.5969 28.97 49.8977ZM48.9292 38.1841C48.6284 38.5557 48.2037 38.8034 47.7083 38.8565C47.2305 38.9095 46.7528 38.768 46.3812 38.4672L43.1255 35.8661C42.6654 35.4946 41.993 35.583 41.6391 36.0254C41.2676 36.4854 41.356 37.1578 41.7984 37.5117L45.0541 40.1128C45.8327 40.7321 45.9565 41.8822 45.3372 42.6607C44.7179 43.4393 43.5678 43.5631 42.7893 42.9438L39.2504 40.1305C39.1973 40.0774 39.1265 40.042 39.0735 40.0066C38.6311 39.7766 38.0826 39.8827 37.7641 40.2897C37.3925 40.7498 37.481 41.4221 37.9233 41.776L39.6928 43.1916L41.4622 44.6071C41.8338 44.9079 42.0815 45.3503 42.1346 45.828C42.1877 46.3058 42.0461 46.7835 41.7453 47.1551C41.4445 47.5267 41.0198 47.7744 40.5244 47.8275C40.0466 47.8806 39.5689 47.739 39.1973 47.4382L37.4279 46.0227L35.6585 44.6071C35.6231 44.5894 35.6054 44.5717 35.57 44.554C35.5523 44.5363 35.5346 44.5363 35.5169 44.5186C35.4992 44.5186 35.4992 44.5009 35.4815 44.5009H35.4638C35.0922 44.324 34.6322 44.3771 34.3137 44.6425C34.2606 44.6956 34.2075 44.731 34.1544 44.8017C33.9244 45.0849 33.8713 45.4564 33.9775 45.7749C33.9775 45.7926 33.9952 45.8103 33.9952 45.828C33.9952 45.8457 34.0129 45.8634 34.0129 45.8811V45.8988C34.0306 45.9342 34.0306 45.9519 34.0483 45.9873C34.066 46.0227 34.0837 46.0403 34.1014 46.0757C34.1191 46.0934 34.1191 46.1111 34.1368 46.1111C34.1544 46.1288 34.1545 46.1465 34.1721 46.1465C34.2252 46.1996 34.2606 46.2527 34.3314 46.3058L34.4553 46.4119L36.1008 47.7213C36.8794 48.3406 37.0032 49.4907 36.3839 50.2693C35.7646 51.0478 34.6145 51.1717 33.836 50.5524L31.7657 48.8891C31.8719 47.8629 31.5711 46.8543 30.9341 46.0403C30.4917 45.4918 29.9432 45.1025 29.3416 44.8548C29.8017 44.2886 30.0848 43.5985 30.1732 42.8377C30.2971 41.7937 29.9963 40.7674 29.3416 39.9358C28.8992 39.3873 28.3507 38.998 27.7491 38.7503C28.2092 38.1841 28.4923 37.4763 28.5807 36.7332C28.7046 35.6892 28.4038 34.6629 27.7491 33.849C26.5813 32.3804 24.5641 31.9911 22.954 32.7696C22.8478 32.1149 22.5824 31.4956 22.1577 30.9648C20.7953 29.2662 18.3181 29.0007 16.6194 30.3455L13.2398 33.0527C12.4789 32.0265 11.4173 31.1948 10.1256 30.6286L16.9733 18.5257L20.7599 19.6228C20.7776 19.8351 20.7953 20.0651 20.866 20.3129C21.7154 23.7809 24.9003 25.3911 29.2177 24.5241C32.9866 23.7632 34.5437 24.8957 37.6225 27.1252C37.941 27.3552 38.2595 27.5852 38.6134 27.8329C40.7721 29.39 43.0016 31.1418 44.7179 32.5042L48.6638 35.6538C49.0353 35.9546 49.2831 36.3793 49.3361 36.8747C49.3538 37.3348 49.23 37.8125 48.9292 38.1841ZM48.7876 33.0527L46.0096 30.841C44.2933 29.4608 42.0284 27.6914 39.8166 26.0989C39.4804 25.8512 39.1619 25.6211 38.8434 25.3911C35.7292 23.1262 33.4644 21.4807 28.7754 22.4185C27.2714 22.7193 23.6971 23.0732 22.9009 19.7997C22.777 19.2866 22.9186 19.0919 22.9717 19.0035C23.184 18.7027 23.9272 18.1542 26.4574 17.9418L31.8896 17.4464C32.7743 17.3579 33.252 17.3225 34.6322 17.8003L37.8172 18.915C38.1711 19.0389 38.4542 19.145 38.7019 19.2335C40.2059 19.7997 40.5598 19.7997 42.5592 19.2335L45.0187 18.5257L51.8487 30.6109C50.6101 31.1948 49.5485 32.0265 48.7876 33.0527ZM59.8642 30.204C59.8112 30.3986 59.6873 30.5578 59.5104 30.6463L56.2546 32.4511C55.883 32.6635 55.423 32.5219 55.2107 32.168L54.379 30.6994C54.379 30.6994 54.379 30.6817 54.3613 30.6817L45.7973 15.5531C45.6911 15.3761 45.6734 15.1815 45.7265 14.9869C45.7796 14.7922 45.9035 14.633 46.0804 14.5445L49.3361 12.7397C49.7077 12.5451 50.1678 12.6689 50.3624 13.0228L58.201 26.9305C58.2364 26.9836 58.2718 27.0544 58.3248 27.0898L59.7758 29.6377C59.8819 29.797 59.9173 29.9916 59.8642 30.204Z" fill="black"/>
<path d="M31.005 8.31631C31.5889 8.31631 32.0667 7.83857 32.0667 7.25466V1.06166C32.0667 0.477746 31.5889 0 31.005 0C30.4211 0 29.9434 0.477746 29.9434 1.06166V7.25466C29.9434 7.83857 30.4211 8.31631 31.005 8.31631Z" fill="black"/>
<path d="M21.9811 10.3861C22.1757 10.7046 22.5296 10.8815 22.8835 10.8815C23.0781 10.8815 23.2728 10.8284 23.4497 10.7223C23.9451 10.4038 24.0867 9.74907 23.7859 9.25363L20.5478 4.1046C20.2293 3.60916 19.5746 3.4676 19.0792 3.76841C18.5838 4.0869 18.4422 4.74159 18.743 5.23703L21.9811 10.3861Z" fill="black"/>
<path d="M38.5602 10.7223C38.7371 10.8285 38.9317 10.8815 39.1264 10.8815C39.4803 10.8815 39.8165 10.7046 40.0288 10.3861L43.2668 5.23706C43.5853 4.74162 43.4261 4.08694 42.9307 3.76844C42.4352 3.44994 41.7805 3.60919 41.462 4.10463L38.224 9.25367C37.9232 9.74911 38.0647 10.4215 38.5602 10.7223Z" fill="black"/>
</svg>
