<svg width="73" height="72" viewBox="0 0 73 72" fill="none" xmlns="http://www.w3.org/2000/svg">
<path d="M4.93212 31.5423C5.19186 31.9806 5.74381 32.1105 6.18213 31.8508L11.0685 28.9125C11.6042 28.5878 11.7828 27.8897 11.4581 27.354C11.1334 26.8183 10.4354 26.6397 9.89966 26.9644L7.8055 28.2306C11.0198 15.1624 22.7731 5.81179 36.4094 5.81179C39.0231 5.81179 41.588 6.1527 44.088 6.81829C44.6724 6.98062 45.2893 6.65595 45.4679 6.0553C45.6627 5.43841 45.3055 4.78906 44.6887 4.62673C41.9938 3.89621 39.2179 3.53906 36.4094 3.53906C21.588 3.53906 8.82823 13.7826 5.51654 28.0845L3.9581 25.4709C3.63342 24.9352 2.93537 24.7566 2.39965 25.0813C1.86394 25.406 1.68537 26.104 2.01004 26.6397L4.93212 31.5423Z" fill="black"/>
<path d="M70.0139 24.675L65.1275 21.7367C64.6892 21.477 64.1373 21.6231 63.8775 22.0452L60.9392 26.9315C60.6146 27.4672 60.7931 28.1653 61.3288 28.49C61.8646 28.8146 62.5626 28.6361 62.8873 28.1004L64.2834 25.7627C65.3224 28.8146 65.8581 32.0127 65.8581 35.2919C65.8581 41.6718 63.7639 47.9056 59.9652 52.9867C59.5918 53.4738 59.673 54.1718 60.1438 54.5614C60.647 54.9673 61.3775 54.8861 61.7509 54.3666C65.8581 48.8958 68.1146 42.175 68.1146 35.2919C68.1146 31.8179 67.5626 28.4413 66.4587 25.1945L68.8126 26.6069C69.3483 26.9315 70.0464 26.753 70.3711 26.2172C70.7282 25.6978 70.5496 24.9997 70.0139 24.675Z" fill="black"/>
<path d="M69.9483 0H53.2762C51.6528 0 50.3379 1.31494 50.3379 2.93831V13.6364C50.3379 15.2598 51.6528 16.5747 53.2762 16.5747H54.9321C55.3541 16.5747 55.7437 16.7857 55.9872 17.1266L58.3736 20.5682C58.5522 20.8279 58.8606 20.9903 59.1691 20.9903C59.4775 20.9903 59.786 20.8279 59.9645 20.5682L62.3509 17.1266C62.5944 16.7857 62.984 16.5747 63.4061 16.5747H69.9321C71.5554 16.5747 72.8704 15.2598 72.8704 13.6364V2.93831C72.8866 1.31494 71.5717 0 69.9483 0ZM70.9386 13.6364C70.9386 14.1883 70.484 14.6266 69.9483 14.6266H63.4223C62.3671 14.6266 61.3769 15.1461 60.76 16.0065L59.1691 18.2955L57.5782 16.0065C56.9775 15.1299 55.9872 14.6266 54.9158 14.6266H53.26C52.708 14.6266 52.2697 14.1721 52.2697 13.6364V2.93831C52.2697 2.38637 52.7243 1.94805 53.26 1.94805H69.9321C70.484 1.94805 70.9223 2.4026 70.9223 2.93831L70.9386 13.6364Z" fill="black"/>
<path d="M64.1039 9.64355H55.4838C54.9481 9.64355 54.5098 10.0819 54.5098 10.6176C54.5098 11.1533 54.9481 11.5916 55.4838 11.5916H64.1039C64.6396 11.5916 65.078 11.1533 65.078 10.6176C65.078 10.0819 64.6396 9.64355 64.1039 9.64355Z" fill="black"/>
<path d="M67.3507 4.64355H55.4838C54.9481 4.64355 54.5098 5.08187 54.5098 5.61758C54.5098 6.1533 54.9481 6.59161 55.4838 6.59161H67.3507C67.8864 6.59161 68.3247 6.1533 68.3247 5.61758C68.3247 5.08187 67.8864 4.64355 67.3507 4.64355Z" fill="black"/>
<path d="M55.7437 53.5079C54.8346 50.7644 52.4807 48.7352 49.6398 48.2157L45.0132 47.3715L42.0586 46.8358V46.2514C43.3736 45.4884 44.5262 44.4657 45.4352 43.2481H47.7242C49.6073 43.2481 51.1333 41.7222 51.1333 39.8391V26.4137C51.1333 18.2968 44.656 11.5598 36.5391 11.4949C28.3411 11.4137 21.6528 18.0533 21.6528 26.2351V34.1735C21.6528 36.365 23.2112 38.1832 25.2729 38.6215C25.906 41.8845 27.9515 44.6443 30.7274 46.2514V46.8358L25.0294 47.8748L23.1463 48.2157C20.2891 48.7352 17.9515 50.7644 17.0424 53.5079L15.7599 57.3553C14.5424 56.1702 13.3735 54.9202 12.2534 53.6378C11.6852 52.9884 11.7502 51.9819 12.4157 51.4137L13.1787 50.7806C14.7209 49.4819 14.9482 47.193 13.6982 45.6183L9.86703 40.8456C8.53586 39.2384 6.16573 39.0274 4.57482 40.3423C4.42872 40.4722 4.28261 40.6183 4.15274 40.7644L2.10729 43.1832C-1.72388 47.8261 0.159234 53.0533 3.8443 57.1118C7.85405 62.1767 12.5618 66.6573 17.8541 70.3748C21.2144 72.6962 25.695 72.5177 28.8606 69.9365L31.2632 67.891C32.8216 66.4949 32.9677 64.1086 31.5716 62.5339C31.458 62.404 31.3281 62.2741 31.182 62.1605L30.208 61.3813H56.5067C57.432 61.3813 58.0814 60.4722 57.7892 59.5956L55.7437 53.5079ZM48.8606 39.8391C48.8606 40.4559 48.3573 40.9754 47.7242 40.9754H46.7664C47.0911 40.2287 47.3508 39.4332 47.4969 38.6215C47.984 38.5241 48.4223 38.3293 48.8443 38.0858L48.8606 39.8391ZM47.7242 36.1215V32.2092C48.406 32.5988 48.8606 33.3293 48.8606 34.1572C48.8606 34.9852 48.406 35.7319 47.7242 36.1215ZM25.0619 36.1215C24.3963 35.7319 23.9255 35.0014 23.9255 34.1735C23.9255 33.3455 24.38 32.615 25.0619 32.2254V36.1215ZM25.8248 28.5079C25.4028 28.5079 25.0619 28.8488 25.0619 29.2709V29.7903C24.656 29.904 24.2826 30.0501 23.9255 30.2611V26.3813C23.9255 19.5144 29.4125 13.8163 36.2794 13.7514C43.2112 13.6864 48.8768 19.3033 48.8768 26.2189V30.2449C48.5197 30.0339 48.1463 29.8877 47.7404 29.7741V29.2546C47.7404 28.8326 47.3995 28.4916 46.9775 28.4916H46.6203C43.2762 28.4916 40.1106 27.1767 37.7404 24.8066L36.9125 23.9787C36.6365 23.7027 36.1982 23.7027 35.9223 23.9787L35.0943 24.8066C32.7242 27.1767 29.5748 28.4916 26.2145 28.4916L25.8248 28.5079ZM27.3183 36.2839V30.7157C30.7274 30.4559 33.893 29.0598 36.393 26.6897C38.8768 29.0598 42.0586 30.4559 45.4677 30.7157V36.43C45.4677 38.0858 45.0132 39.628 44.2502 40.9592H37.5456C36.9125 40.9592 36.4093 41.4624 36.4093 42.0955C36.4093 42.7287 36.9125 43.2319 37.5456 43.2319H42.3995C40.7437 44.693 38.5521 45.5696 36.1658 45.4884C31.1982 45.3585 27.3183 41.2189 27.3183 36.2839ZM39.8021 47.2579V47.3066L36.4093 50.6995L33.0002 47.3066V47.2579C34.0716 47.5988 35.208 47.7774 36.4093 47.7774C37.6106 47.7774 38.7145 47.5988 39.8021 47.2579ZM29.8184 63.865C30.4839 64.417 30.5813 65.391 30.0294 66.0566C29.9807 66.1215 29.9158 66.1865 29.8508 66.2352L27.432 68.2806C25.0456 70.2774 21.6041 70.4073 19.0716 68.6053C13.0002 64.3196 7.70794 59.0274 3.40599 52.9397C1.60404 50.4072 1.73391 46.9657 3.73067 44.5793L5.77612 42.1605C6.34431 41.5111 7.33457 41.4462 7.98392 42.0144C8.04885 42.0631 8.09755 42.128 8.16249 42.193L11.9774 46.9657C12.4969 47.615 12.3995 48.5728 11.7664 49.1085L11.0034 49.7417C9.44496 51.1053 9.26638 53.4754 10.5976 55.0663C11.9937 56.6573 13.4547 58.1832 14.9969 59.628C15.63 60.2287 16.2631 60.7969 16.9125 61.3813C16.9233 61.3921 16.9341 61.4029 16.945 61.4137C18.3898 62.6637 20.5002 62.615 21.8963 61.3813C22.0261 61.2676 22.1398 61.154 22.2534 61.0241C22.2534 61.0241 22.2534 61.0079 22.2696 61.0079L22.9028 60.2449C23.4385 59.6118 24.3963 59.5144 25.0456 60.0339L26.7339 61.3813L29.8184 63.865ZM27.3671 59.1086L26.393 58.3293C24.5424 56.9008 22.3508 57.4689 20.9709 59.1086C20.8411 59.2709 20.7112 59.4332 20.5976 59.6118C20.0294 60.2612 19.0391 60.3423 18.3898 59.7741H18.3735C18.13 59.5631 17.8703 59.3358 17.6268 59.1086C17.6105 59.0923 17.5943 59.0761 17.5618 59.0598L19.169 54.2222C19.8183 52.2579 21.4904 50.8131 23.5359 50.4397L27.7567 49.6767L31.458 49.0111L35.8249 53.378C36.1333 53.6865 36.6203 53.6865 36.9125 53.378L41.2794 49.0111L44.9807 49.6767L49.2015 50.4397C51.2469 50.8131 52.919 52.2579 53.5684 54.2222L55.1918 59.1086H27.3671Z" fill="black"/>
</svg>
