<svg width="68" height="72" viewBox="0 0 68 72" fill="none" xmlns="http://www.w3.org/2000/svg">
<g clip-path="url(#clip0_27_1422)">
<path d="M55.2706 26.1805C55.4526 26.2635 55.6513 26.3134 55.8499 26.3134C56.0651 26.3134 56.2637 26.2635 56.4624 26.1639C57.5714 25.5829 61.2131 23.4579 61.2462 20.5527C61.2628 19.6396 60.9152 18.7763 60.2696 18.1123C59.6075 17.4482 58.7467 17.0664 57.8032 17.0664H57.7866C57.0914 17.0664 56.4127 17.2656 55.8499 17.6475C55.2871 17.2656 54.625 17.0664 53.9298 17.0664H53.9132C52.0427 17.083 50.5033 18.6269 50.4536 20.5195C50.404 23.5409 54.1284 25.6161 55.2706 26.1805ZM53.9298 19.0752C54.3105 19.0752 54.6747 19.2246 54.9561 19.4736C55.4526 19.955 56.2472 19.955 56.7603 19.4736C57.0417 19.208 57.4059 19.0752 57.7866 19.0752C58.1839 19.0752 58.5481 19.2412 58.8295 19.5234C59.0943 19.8056 59.2433 20.1543 59.2433 20.5361C59.2267 21.9638 57.2073 23.4745 55.8334 24.2548C54.4264 23.5077 52.4069 22.0302 52.44 20.5693C52.4731 19.7724 53.1683 19.0752 53.9298 19.0752Z" fill="black"/>
<path d="M11.4219 26.1805C11.604 26.2635 11.8026 26.3134 12.0013 26.3134C12.2165 26.3134 12.4151 26.2635 12.6137 26.1639C13.7228 25.5829 17.3645 23.4579 17.3976 20.5527C17.4141 19.6396 17.0665 18.7763 16.421 18.1123C15.7588 17.4482 14.8981 17.0664 13.9545 17.0664H13.938C13.2428 17.0664 12.5641 17.2656 12.0013 17.6475C11.4385 17.2656 10.7764 17.0664 10.0811 17.0664H10.0646C8.19408 17.083 6.65464 18.6269 6.60498 20.5195C6.55532 23.5409 10.2798 25.6161 11.4219 26.1805ZM10.0811 19.0752C10.0922 19.0752 10.0922 19.0752 10.0811 19.0752C10.4618 19.0752 10.826 19.2246 11.1074 19.4736C11.604 19.955 12.3986 19.955 12.9117 19.4736C13.1931 19.208 13.5573 19.0752 13.938 19.0752C14.3353 19.0752 14.6994 19.2412 14.9808 19.5234C15.2457 19.8056 15.3947 20.1543 15.3947 20.5361C15.3781 21.9638 13.3586 23.4745 11.9847 24.2548C10.5777 23.5077 8.55825 22.0302 8.59135 20.5693C8.62446 19.7724 9.31969 19.0752 10.0811 19.0752Z" fill="black"/>
<path d="M4.73416 29.4342H8.12754C8.25996 29.4342 8.39238 29.484 8.4917 29.5836L10.7926 31.8746C11.1402 32.2066 11.5871 32.3892 12.0341 32.3892C12.481 32.3892 12.9279 32.2232 13.259 31.8912L15.593 29.5836C15.6923 29.484 15.8247 29.4342 15.9571 29.4342H19.3009C21.3369 29.4342 23.0087 27.774 23.0087 25.7155V21.6647C23.5384 21.864 24.1012 21.9802 24.6972 21.9802H29.2327C29.5969 21.9802 29.9445 22.1296 30.1762 22.4118L32.4771 25.0348C32.8578 25.4831 33.4206 25.7321 34 25.7321C34.5793 25.7321 35.1421 25.4831 35.5229 25.0514L37.8734 22.4118C38.1217 22.1462 38.4528 21.9802 38.8169 21.9802H43.3028C43.8491 21.9802 44.3622 21.8806 44.8422 21.7146V25.7155C44.8422 27.7574 46.4975 29.4342 48.5501 29.4342H51.9435C52.0759 29.4342 52.2084 29.484 52.3077 29.5836L54.6085 31.8746C54.9396 32.2066 55.4031 32.3892 55.85 32.3892C56.297 32.3892 56.7439 32.2232 57.075 31.8912L59.4089 29.5836C59.5083 29.484 59.6407 29.4342 59.7731 29.4342H63.1168C65.1528 29.4342 66.8247 27.774 66.8247 25.7155V15.9041C66.8247 13.8621 65.1694 12.1854 63.1168 12.1854H48.0701V4.78119C48.0701 2.14157 45.9347 0 43.3028 0H24.664C22.0321 0 19.8968 2.14157 19.8968 4.78119V12.1854H4.70105C2.66502 12.1854 0.993164 13.8455 0.993164 15.9041V25.7155C1.02627 27.774 2.68158 29.4342 4.73416 29.4342ZM63.1334 14.1941C64.0769 14.1941 64.8549 14.9744 64.8549 15.9207V25.7321C64.8549 26.6783 64.0769 27.4586 63.1334 27.4586H59.7897C59.1275 27.4586 58.5151 27.7076 58.035 28.1725L55.8666 30.314L53.7478 28.1891C53.2677 27.7242 52.6553 27.4586 51.9766 27.4586H48.5832C47.6397 27.4586 46.8617 26.6783 46.8617 25.7321V20.4196C47.6232 19.573 48.0866 18.4441 48.0866 17.2156V14.1941H63.1334ZM21.9162 4.79779C21.9162 3.27046 23.1577 2.00876 24.6972 2.00876H43.3359C44.8588 2.00876 46.1168 3.25386 46.1168 4.79779V17.2156C46.1168 18.7429 44.8753 20.0046 43.3359 20.0046H38.85C37.9231 20.0046 37.0457 20.403 36.4333 21.0837L34.0827 23.7233C34.0827 23.7233 34.0662 23.7399 34.0331 23.7399C34 23.7399 34 23.7233 33.9834 23.7233L31.6825 21.1003C31.0701 20.403 30.1762 19.988 29.2327 19.988H24.6972C23.1743 19.988 21.9162 18.7429 21.9162 17.199V4.79779ZM3.01264 15.9207C3.01264 14.9744 3.79063 14.1941 4.73416 14.1941H19.9299V17.2156C19.9299 18.3611 20.3271 19.407 21.0058 20.237V25.7321C21.0058 26.6783 20.2278 27.4586 19.2843 27.4586H15.9406C15.2785 27.4586 14.6494 27.7076 14.186 28.1725L12.0175 30.314L9.89871 28.1891C9.41867 27.7242 8.80621 27.4586 8.12754 27.4586H4.73416C3.79063 27.4586 3.01264 26.6783 3.01264 25.7321V15.9207Z" fill="black"/>
<path d="M33.3381 18.1287C33.5533 18.2283 33.7685 18.2781 34.0002 18.2781C34.232 18.2781 34.4803 18.2283 34.6954 18.1121C36.3342 17.2489 41.6974 14.1278 41.7471 9.96087C41.7636 8.69917 41.2836 7.50387 40.3897 6.5908C39.4793 5.66113 38.2709 5.16309 36.9963 5.14648H36.9798C35.8873 5.14648 34.861 5.51171 34.0168 6.15917C33.1726 5.49511 32.1463 5.14648 31.0869 5.14648H31.0538C28.4715 5.16309 26.3361 7.30466 26.2865 9.91107C26.1872 14.244 31.6662 17.2987 33.3381 18.1287ZM31.0538 7.15525C31.7821 7.15525 32.4608 7.42087 32.9739 7.91891C33.5367 8.45015 34.4472 8.45015 35.0265 7.91891C35.5562 7.42087 36.2514 7.15525 36.9798 7.15525H36.9963C37.7412 7.15525 38.453 7.45407 38.9827 8.00191C39.4958 8.53316 39.7772 9.21381 39.7772 9.94427C39.7441 12.3183 36.6984 14.7919 34.0168 16.2362C31.2855 14.8417 28.2232 12.4179 28.2729 9.97747C28.2894 8.45015 29.564 7.15525 31.0538 7.15525Z" fill="black"/>
<path d="M67.3048 63.9819V48.5759C67.3048 42.2674 62.1899 37.1542 55.9163 37.1542C54.1285 37.1542 52.3408 37.5858 50.7683 38.3827C50.3544 38.5487 48.3184 39.4617 46.5803 42.0184V42.035C45.2395 43.9607 44.5278 46.2185 44.5278 48.5759V59.6324L38.6349 57.192V53.108C41.2834 50.9665 42.8393 47.0984 43.1373 43.3133C44.5112 42.3338 45.3223 40.325 45.7692 38.7147C46.0672 37.6356 45.8851 36.4735 45.2726 35.5438C44.8754 34.9462 44.3126 34.4647 43.667 34.1825C43.7332 33.8173 43.7498 33.4521 43.7167 33.0702C43.5511 31.1943 42.0117 29.6504 40.1412 29.4843C39.4129 29.4179 38.6845 29.5673 38.0555 29.8828C37.2941 28.3721 35.7381 27.3594 33.9669 27.3594C33.1723 27.3594 32.4109 27.5586 31.7322 27.9404C31.037 27.376 30.1762 27.0771 29.2658 27.0771C27.5112 27.0771 26.0049 28.2226 25.5083 29.8496C23.075 30.2978 21.2541 32.4228 21.2541 34.9794C21.2541 36.1581 21.6514 37.2704 22.3632 38.2C22.3466 38.7811 22.3466 39.8934 22.5453 40.9393C22.9094 42.9148 24.2337 43.9275 24.9951 44.3757C25.0945 45.073 25.2269 45.7703 25.3924 46.4509V46.4675C25.4917 46.8161 26.3856 49.8542 27.594 51.2653C28.1237 51.9958 28.7196 52.61 29.3486 53.1246V57.192L26.1373 58.5201H26.1207L22.3301 60.0806C21.4859 60.4292 20.7575 60.9937 20.2113 61.6743L15.8909 59.898V56.5777C17.3807 55.2496 18.6553 53.3073 19.334 51.1657C19.6319 51.1325 19.8968 50.9665 20.0623 50.7174C21.1548 49.0075 23.2405 43.8445 19.8968 40.4412C18.5725 39.0965 16.702 38.8309 15.1792 39.1297C15.113 38.9803 15.0302 38.8309 14.9474 38.6815C13.5404 36.4735 9.89874 36.1747 6.65433 37.9842C6.52191 38.0506 3.54236 39.7606 3.01266 42.45C2.06913 45.654 3.01266 49.3063 3.95618 50.7839C4.12171 51.0495 4.40312 51.2155 4.71762 51.2321C5.3963 53.3239 6.65433 55.233 8.12756 56.5445V59.8648L2.78092 62.0728C2.76988 62.0728 2.76436 62.0783 2.76436 62.0894C2.74781 62.0894 2.74781 62.106 2.73126 62.106C1.0594 62.8198 0 64.4468 0 66.2563V69.5932C0 70.9213 1.07595 72.0004 2.40019 72.0004H65.5998C66.924 72.0004 68 70.9213 68 69.5932V66.2563C67.9338 65.4594 67.7186 64.6626 67.3048 63.9819ZM51.4966 40.2254C51.5463 40.2088 51.5794 40.1922 51.6125 40.1756C52.9533 39.4949 54.3934 39.1463 55.8997 39.1463C61.0808 39.1463 65.3019 43.3797 65.3019 48.5759V62.189C65.2522 62.1558 65.186 62.1392 65.1363 62.106L59.7897 59.898V57.773C61.8092 55.7643 63.3817 52.5104 63.3817 49.5056C63.3817 45.6706 61.6767 42.6658 58.8296 41.4539C58.3496 41.2547 57.7868 41.4539 57.555 41.9187C57.5219 41.9851 57.4888 42.0682 57.4723 42.1512C56.8267 45.073 54.5258 47.3806 51.5959 48.0114L49.1792 48.5261C48.7157 48.6257 48.3846 49.0407 48.4012 49.5056V49.7048C48.4674 52.6764 50.0068 55.8141 51.9932 57.773V59.8814L47.7225 61.6411C47.3749 61.2095 46.9611 60.8277 46.481 60.5122V48.5427C46.481 46.6003 47.0604 44.7244 48.186 43.1306C49.7254 40.9061 51.48 40.2254 51.4966 40.2254ZM50.4538 50.319L52.0263 49.987C55.2707 49.2897 57.9192 46.9489 59.0448 43.8777C60.5346 45.0066 61.3953 47.032 61.3953 49.5222C61.3953 53.3405 58.0682 57.7564 55.8997 57.7564C53.8802 57.7564 50.8676 53.9547 50.4538 50.319ZM32.0467 70.0414C31.666 66.3725 30.2756 62.8198 28.074 59.8648L30.0769 59.0347C31.1363 59.9976 32.5268 60.5288 33.9669 60.5288C35.407 60.5288 36.7975 59.9976 37.8569 59.0347L39.8267 59.8482C37.6086 62.8032 36.2181 66.3559 35.8208 70.0414H32.0467ZM41.7468 60.6284L44.8919 61.9234C46.1003 62.4214 46.8948 63.6001 46.8948 64.9116V70.0248H37.8569C38.2376 66.6215 39.6115 63.3345 41.7468 60.6284ZM24.333 37.9178C24.3496 37.6356 24.2668 37.37 24.0682 37.1708C23.5219 36.5731 23.2074 35.7928 23.2074 34.9794C23.2074 33.2196 24.5813 31.8085 26.3359 31.7587C26.8325 31.7421 27.2463 31.3603 27.296 30.8623C27.3953 29.8496 28.223 29.0859 29.2493 29.0859C29.8617 29.0859 30.4245 29.3681 30.8053 29.8662C30.9708 30.082 31.2191 30.2314 31.5005 30.248C31.7819 30.2812 32.0467 30.1816 32.2619 29.999C32.742 29.5839 33.3379 29.3515 33.9669 29.3515C35.2911 29.3515 36.3836 30.3476 36.5326 31.6591C36.5823 32.0575 36.8471 32.3896 37.2278 32.5058C37.6086 32.622 38.0224 32.4892 38.2707 32.1904C38.6845 31.6923 39.297 31.4267 39.9591 31.4931C40.8861 31.5761 41.6475 32.3398 41.7303 33.2694C41.7634 33.6679 41.6806 34.0497 41.4985 34.3983C41.333 34.6972 41.333 35.0458 41.482 35.3446C41.631 35.6434 41.9289 35.8427 42.26 35.8759H42.3262C42.8559 35.9423 43.3194 36.2245 43.6173 36.6727C43.9153 37.121 44.0146 37.6854 43.8656 38.2166C43.5511 39.3289 43.1704 40.2586 42.74 40.9061C42.3924 40.325 41.8958 39.9764 41.4654 39.6776C40.8695 39.2625 40.3729 38.9139 40.0584 37.8182C39.9922 37.5526 39.8101 37.3368 39.5784 37.204C39.3466 37.0712 39.0652 37.0546 38.8004 37.1376C38.5521 37.2206 38.3038 37.2538 38.039 37.2538C37.2279 37.2538 36.4664 36.8553 36.0029 36.1747C35.7877 35.8593 35.4236 35.6932 35.0428 35.743C34.6621 35.7928 34.3476 36.0585 34.2317 36.4237C33.6855 38.1004 32.1295 39.2293 30.3749 39.2293C30.1762 39.2293 29.7128 39.1629 29.4314 39.1131C28.9017 39.0135 28.3885 39.3455 28.2726 39.8768C28.1733 40.3084 27.8588 40.5076 27.0974 40.8729C26.5346 41.1385 25.7897 41.5037 25.3096 42.201C24.9455 41.8523 24.5979 41.3377 24.4654 40.6072C24.2337 39.3289 24.333 37.9344 24.333 37.9178ZM26.8822 43.7283C26.8822 43.6951 26.8656 43.6619 26.8656 43.6287C26.8822 43.1804 27.1139 43.031 27.9416 42.6326C28.5706 42.3338 29.3651 41.9519 29.8617 41.1551C30.0438 41.1717 30.2093 41.1883 30.3749 41.1883C32.4771 41.1883 34.3807 40.1092 35.4732 38.3993C36.2181 38.9305 37.112 39.2127 38.039 39.2127C38.1879 39.2127 38.3204 39.2127 38.4693 39.1961C38.999 40.3582 39.7605 40.8895 40.3398 41.2879C40.9688 41.7195 41.184 41.8689 41.184 42.699C40.9688 47.6628 38.221 52.7926 33.9834 52.7926C31.6495 52.7926 30.0769 51.2985 29.1665 50.0534L29.1334 50.0202L29.1003 49.987C28.3057 49.0739 27.5278 46.7497 27.2795 45.9197C27.0974 45.2058 26.9649 44.4587 26.8822 43.7283ZM33.9834 54.7848C34.9435 54.7848 35.8208 54.6022 36.6485 54.2701V57.4576C35.9367 58.1382 34.9766 58.5367 33.9834 58.5367C32.9903 58.5367 32.0302 58.1549 31.3184 57.4576V54.2867C32.1626 54.6188 33.0399 54.7848 33.9834 54.7848ZM19.0857 70.0414H17.0497L19.0857 67.684V70.0414ZM19.1022 64.6128L14.4343 70.0414H9.58423L4.68452 63.4673L8.85589 61.7407C9.71665 62.4878 10.8257 62.9028 11.9844 62.9028C13.1431 62.9028 14.2356 62.4878 15.113 61.7407L19.2843 63.4673C19.185 63.8325 19.1188 64.2143 19.1022 64.6128ZM18.4732 41.8689C20.3603 43.7781 19.7313 46.6999 18.9864 48.4763C18.2911 47.779 17.2814 46.8659 16.0399 46.0857C15.2619 45.5876 14.6329 44.9236 14.2687 44.2097C14.666 43.6619 14.9805 43.0642 15.1957 42.4168C15.3447 41.9851 15.4275 41.5535 15.4606 41.1385C16.3544 40.9393 17.629 41.0057 18.4732 41.8689ZM4.89971 43.0144C4.91626 42.9812 4.91626 42.948 4.93281 42.8982C5.21422 41.4041 6.95229 40.1258 7.59786 39.7606C8.77313 39.1131 9.91529 38.8309 10.8919 38.8309C11.9844 38.8309 12.8617 39.1961 13.2425 39.7938C13.5404 40.2752 13.5735 40.9891 13.3087 41.7859C12.9114 42.948 11.8023 44.4421 9.81597 45.1726C7.51509 46.0193 5.94255 47.3474 4.99903 48.3601C4.56865 46.8825 4.37001 44.7908 4.89971 43.0144ZM6.33983 49.8376C7.10127 48.9909 8.45862 47.779 10.4946 47.032C11.3554 46.7165 12.15 46.2683 12.8452 45.7038C13.3749 46.4841 14.0867 47.198 14.964 47.7458C16.073 48.4597 16.9834 49.2897 17.5959 49.904C16.7848 53.4069 13.9046 56.3453 11.9679 56.3453C10.0477 56.3453 7.13437 53.3737 6.33983 49.8376ZM11.9844 58.3375C12.6134 58.3375 13.259 58.188 13.888 57.9058V60.1802C13.3749 60.6451 12.6962 60.9107 11.9844 60.9107C11.2726 60.9107 10.594 60.6451 10.0808 60.1802V57.9058C10.7098 58.188 11.3554 58.3375 11.9844 58.3375ZM1.93671 69.6264V66.2895C1.93671 65.5258 2.28432 64.812 2.84713 64.3305L7.08471 70.0248H2.33398C2.11879 70.0414 1.93671 69.8588 1.93671 69.6264ZM21.0721 64.9282C21.0721 63.6167 21.85 62.438 23.075 61.94L26.2035 60.645C28.3223 63.3511 29.6797 66.6215 30.0604 70.0414H21.0721V64.9282ZM48.8812 70.0414V64.9282C48.8812 64.4136 48.7984 63.9155 48.666 63.4507L52.0263 62.0562C52.0594 64.7788 52.3077 67.6342 53.8471 70.0414H48.8812ZM53.9961 60.5786V59.2671C54.6251 59.5826 55.2707 59.7652 55.8997 59.7652C56.5287 59.7652 57.1743 59.5826 57.8033 59.2671V60.5952C57.8033 63.7993 57.8033 67.1196 55.8997 69.5434C53.9961 67.103 53.9961 63.7827 53.9961 60.5786ZM65.9474 69.6264C65.9474 69.8588 65.7653 70.0414 65.5336 70.0414H57.9688C59.5083 67.6342 59.74 64.7788 59.7897 62.0562L64.3914 63.9487C65.335 64.3471 65.9474 65.2602 65.9474 66.2895V69.6264Z" fill="black"/>
</g>
<defs>
<clipPath id="clip0_27_1422">
<rect width="68" height="72" fill="white"/>
</clipPath>
</defs>
</svg>
