<svg width="68" height="70" viewBox="0 0 68 70" fill="none" xmlns="http://www.w3.org/2000/svg">
<g clip-path="url(#clip0_27_1411)">
<path d="M24.1743 29.349H29.6775C30.3425 29.349 30.9743 29.678 31.34 30.2209L33.651 33.4947C34.0501 34.0541 34.6819 34.3831 35.3635 34.3831C36.0452 34.3831 36.6936 34.0541 37.076 33.4947L39.387 30.2209C39.7694 29.678 40.3845 29.349 41.0496 29.349H46.5528C48.5645 29.349 50.1938 27.7368 50.1938 25.7462V3.60282C50.1938 2.6322 49.8114 1.72738 49.1298 1.05288C48.4481 0.378378 47.5337 0 46.5528 0H24.1743C22.1625 0 20.5332 1.61222 20.5332 3.60282V25.7462C20.5332 27.7203 22.1625 29.349 24.1743 29.349ZM22.5283 3.58637C22.5283 2.68155 23.2599 1.9577 24.1743 1.9577H46.5528C46.985 1.9577 47.4007 2.12221 47.7166 2.43478C48.0325 2.74736 48.1987 3.15864 48.1987 3.58637V25.7297C48.1987 26.6345 47.4672 27.3584 46.5528 27.3584H41.0496C39.7361 27.3584 38.4892 28 37.741 29.0693L35.43 32.3431C35.43 32.3596 35.3968 32.3925 35.3469 32.3925C35.297 32.3925 35.2804 32.3596 35.2638 32.3431L32.9528 29.0693C32.2046 28 30.9577 27.3584 29.6442 27.3584H24.141C23.2266 27.3584 22.4951 26.6345 22.4951 25.7297V3.58637H22.5283Z" fill="black"/>
<path d="M26.0196 48.5809H20.5164C19.8513 48.5809 19.2196 48.2519 18.8538 47.709L16.5428 44.4352C16.1438 43.8759 15.512 43.5469 14.8303 43.5469C14.1487 43.5469 13.5002 43.8759 13.1178 44.4352L10.8068 47.709C10.4244 48.2519 9.80929 48.5809 9.14425 48.5809H3.64108C1.62934 48.5809 0 50.1932 0 52.1838V66.3976C0 67.3683 0.382396 68.2731 1.06406 68.9476C1.74572 69.6221 2.66015 70.0005 3.64108 70.0005H26.0196C28.0313 70.0005 29.6606 68.3882 29.6606 66.3976V52.1838C29.6606 50.2096 28.0313 48.5809 26.0196 48.5809ZM27.6655 66.3976C27.6655 67.3025 26.934 68.0263 26.0196 68.0263H3.64108C3.2088 68.0263 2.79315 67.8618 2.47726 67.5492C2.16137 67.2367 1.99511 66.8254 1.99511 66.3976V61.7748V52.1838C1.99511 51.279 2.72665 50.5551 3.64108 50.5551H9.14425C10.4577 50.5551 11.7046 49.9135 12.4528 48.8442L14.7638 45.5704C14.7638 45.5539 14.7971 45.521 14.8469 45.521C14.8968 45.521 14.9134 45.5539 14.9301 45.5704L17.2411 48.8442C17.9892 49.9135 19.2362 50.5551 20.5496 50.5551H26.0528C26.9672 50.5551 27.6988 51.279 27.6988 52.1838V66.3976H27.6655Z" fill="black"/>
<path d="M67.9836 52.1838C67.9836 50.1932 66.3542 48.5809 64.3425 48.5809H61.6158C60.9508 48.5809 60.319 48.2519 59.9532 47.709L57.6422 44.4352C57.2432 43.8759 56.6114 43.5469 55.9298 43.5469C55.2481 43.5469 54.5997 43.8759 54.2173 44.4352L51.9063 47.709C51.5239 48.2519 50.9087 48.5809 50.2437 48.5809H47.5171C45.5053 48.5809 43.876 50.1932 43.876 52.1838V66.3976C43.876 68.3882 45.5053 70.0005 47.5171 70.0005H64.3591C65.34 70.0005 66.2545 69.6221 66.9361 68.9476C67.6178 68.2731 68.0002 67.3683 68.0002 66.3976L67.9836 52.1838ZM65.5063 67.5492C65.1904 67.8618 64.7748 68.0263 64.3425 68.0263H47.5004C46.586 68.0263 45.8545 67.3025 45.8545 66.3976V52.1838C45.8545 51.279 46.586 50.5551 47.5004 50.5551H50.2271C51.5405 50.5551 52.7875 49.9135 53.5356 48.8442L55.8466 45.5704C55.8466 45.5539 55.8799 45.521 55.9298 45.521C55.9796 45.521 55.9963 45.5539 56.0129 45.5704L58.3239 48.8442C59.0721 49.9135 60.319 50.5551 61.6325 50.5551H64.3591C65.2735 50.5551 66.0051 51.279 66.0051 52.1838V66.3976C65.9884 66.8418 65.8222 67.2531 65.5063 67.5492Z" fill="black"/>
<path d="M27.5988 20.7616L34.3988 24.1999C34.6649 24.3315 34.9475 24.4138 35.2468 24.4303H35.4795C35.7788 24.4138 36.0614 24.348 36.3274 24.1999L43.1274 20.7616C43.859 20.3997 44.3245 19.6429 44.3245 18.8204V10.6935C44.3245 10.2986 44.2081 9.90381 44.0086 9.55834C43.8091 9.22931 43.5265 8.96609 43.1773 8.78513L36.3773 5.16586C35.7622 4.83683 35.014 4.83683 34.3822 5.14941C34.3822 5.14941 34.3656 5.14941 34.3656 5.16586L27.5656 8.78513C27.2331 8.96609 26.9338 9.22931 26.7343 9.55834C26.5182 9.90381 26.4184 10.2986 26.4184 10.6935V18.8204C26.4018 19.6429 26.8673 20.3997 27.5988 20.7616ZM28.3969 18.8204V11.5818L34.3656 14.5924V21.9626L28.4966 19.0013C28.4468 18.9684 28.3969 18.9026 28.3969 18.8204ZM42.2296 19.0013L36.3607 21.9626V14.5924L42.3294 11.5818V18.8204C42.3294 18.9026 42.2962 18.9684 42.2296 19.0013ZM35.2966 6.89324C35.3465 6.86033 35.3964 6.86033 35.4296 6.89324L41.1822 9.95317L35.3798 12.8815L29.5773 9.95317L35.2966 6.89324Z" fill="black"/>
<path d="M53.0205 40.0091C53.4361 41.21 54.5833 42.0655 55.93 42.0655C57.6258 42.0655 59.0058 40.7 59.0058 39.022C59.0058 37.344 57.6258 35.9785 55.93 35.9785C54.5833 35.9785 53.4361 36.834 53.0205 38.0349H38.2733C37.8576 36.834 36.7104 35.9785 35.3637 35.9785C34.017 35.9785 32.8698 36.834 32.4542 38.0349H17.707C17.2914 36.834 16.1442 35.9785 14.7975 35.9785C13.1016 35.9785 11.7217 37.344 11.7217 39.022C11.7217 40.7 13.1016 42.0655 14.7975 42.0655C16.1442 42.0655 17.2914 41.21 17.707 40.0091H32.4542C32.8698 41.21 34.017 42.0655 35.3637 42.0655C36.7104 42.0655 37.8576 41.21 38.2733 40.0091H53.0205ZM55.9134 37.9527C56.5119 37.9527 56.994 38.4297 56.994 39.022C56.994 39.6142 56.5119 40.0913 55.9134 40.0913C55.3148 40.0913 54.8327 39.6142 54.8327 39.022C54.8327 38.4297 55.3148 37.9527 55.9134 37.9527ZM14.8141 40.0913C14.2156 40.0913 13.7334 39.6142 13.7334 39.022C13.7334 38.4297 14.2156 37.9527 14.8141 37.9527C15.4126 37.9527 15.8948 38.4297 15.8948 39.022C15.8948 39.6142 15.4126 40.0913 14.8141 40.0913ZM35.3637 40.0913C34.7652 40.0913 34.283 39.6142 34.283 39.022C34.283 38.4297 34.7652 37.9527 35.3637 37.9527C35.9623 37.9527 36.4444 38.4297 36.4444 39.022C36.4444 39.6142 35.9623 40.0913 35.3637 40.0913Z" fill="black"/>
<path d="M22.5277 54.1572H6.60009C6.05144 54.1572 5.60254 54.6014 5.60254 55.1443C5.60254 55.6872 6.05144 56.1314 6.60009 56.1314H22.5277C23.0764 56.1314 23.5253 55.6872 23.5253 55.1443C23.5253 54.6014 23.0764 54.1572 22.5277 54.1572Z" fill="black"/>
<path d="M6.60009 60.524H17.4901C18.0387 60.524 18.4876 60.0798 18.4876 59.5369C18.4876 58.994 18.0387 58.5498 17.4901 58.5498H6.60009C6.05144 58.5498 5.60254 58.994 5.60254 59.5369C5.60254 60.0798 6.05144 60.524 6.60009 60.524Z" fill="black"/>
<path d="M22.5277 62.9424H6.60009C6.05144 62.9424 5.60254 63.3866 5.60254 63.9295C5.60254 64.4723 6.05144 64.9165 6.60009 64.9165H22.5277C23.0764 64.9165 23.5253 64.4723 23.5253 63.9295C23.5253 63.3866 23.0764 62.9424 22.5277 62.9424Z" fill="black"/>
<path d="M60.4849 55.1441L54.1504 61.412L51.3406 58.6317C50.9582 58.2533 50.3264 58.2533 49.9274 58.6317C49.545 59.0101 49.545 59.6353 49.9274 60.0301L53.4521 63.5177C53.6516 63.7152 53.901 63.8139 54.1504 63.8139C54.3998 63.8139 54.6658 63.7152 54.8487 63.5177L61.8815 56.5589C62.2639 56.1805 62.2639 55.5553 61.8815 55.1605C61.5157 54.7657 60.8839 54.7657 60.4849 55.1441Z" fill="black"/>
</g>
<defs>
<clipPath id="clip0_27_1411">
<rect width="68" height="70" fill="white"/>
</clipPath>
</defs>
</svg>
