<svg width="75" height="70" viewBox="0 0 75 70" fill="none" xmlns="http://www.w3.org/2000/svg">
<g clip-path="url(#clip0_27_1394)">
<path d="M40.4233 42.2606H45.0335C45.6606 42.2606 46.1521 41.7535 46.1521 41.145C46.1521 40.5364 45.6437 40.0293 45.0335 40.0293H40.4233C39.7962 40.0293 39.3047 40.5364 39.3047 41.145C39.3047 41.7535 39.8132 42.2606 40.4233 42.2606Z" fill="black"/>
<path d="M46.5763 46.8578C48.0509 46.8578 49.2373 45.6745 49.2373 44.2038V25.8122C49.2373 24.3584 48.0509 23.1582 46.5763 23.1582H28.1356C26.661 23.1582 25.4746 24.3415 25.4746 25.8122V44.2038C25.4746 45.6745 26.661 46.8578 28.1356 46.8578H46.5763ZM35.4068 32.354V25.3895H39.3051V32.354H35.4068ZM35.0509 34.5854H39.661C40.6949 34.5854 41.5424 33.7402 41.5424 32.709V25.4065H46.5763C46.8136 25.4065 47 25.5924 47 25.8291V44.2207C47 44.4574 46.8136 44.6434 46.5763 44.6434H28.1356C27.8983 44.6434 27.7119 44.4574 27.7119 44.2207V25.8291C27.7119 25.5924 27.8983 25.4065 28.1356 25.4065H33.1695V32.7259C33.1526 33.7402 34 34.5854 35.0509 34.5854Z" fill="black"/>
<path d="M63.7799 28.1623C63.0511 28.3144 62.5766 29.0244 62.7291 29.7681C63.085 31.4924 63.2715 33.2504 63.2715 35.0084C63.2715 40.6206 61.4918 45.9623 58.1189 50.4419C57.6613 51.0335 57.7799 51.8787 58.3901 52.3352C58.6274 52.5211 58.9155 52.6056 59.2037 52.6056C59.6105 52.6056 60.0172 52.4197 60.2884 52.0647C64.0172 47.1118 66.0003 41.2122 66.0003 35.0084C66.0003 33.0644 65.7969 31.1036 65.4071 29.2103C65.2206 28.4834 64.5088 28.0101 63.7799 28.1623Z" fill="black"/>
<path d="M10.9664 41.9898C11.0511 41.9898 11.1528 41.9898 11.2545 41.956C11.9833 41.8038 12.4579 41.077 12.3054 40.3501C11.9325 38.592 11.746 36.7833 11.746 34.9915C11.746 29.3962 13.5088 24.0883 16.8647 19.6256C17.3223 19.034 17.1867 18.1888 16.5935 17.7324C16.0003 17.2759 15.1359 17.4112 14.6952 18.0028C11.0003 22.9388 9.03418 28.8215 9.03418 34.9915C9.03418 36.9692 9.23757 38.9639 9.64435 40.9079C9.77994 41.5503 10.3393 41.9898 10.9664 41.9898Z" fill="black"/>
<path d="M54.2036 54.4309C53.6782 54.9549 53.6782 55.817 54.2036 56.341C54.4748 56.6115 54.8138 56.7298 55.1697 56.7298C55.5257 56.7298 55.8647 56.5946 56.1189 56.341L56.3053 56.1551C56.8308 55.631 56.746 54.8704 56.2036 54.3294C55.6613 53.7885 54.746 53.9068 54.2036 54.4309Z" fill="black"/>
<path d="M19.9157 16.1599C20.2547 16.1599 20.6106 16.0247 20.8648 15.7711L21.0513 15.5852C21.5937 15.0612 21.5937 14.199 21.0682 13.675C20.5428 13.151 19.6784 13.1341 19.153 13.6581L18.9665 13.8441C18.4242 14.3681 18.4242 15.2302 18.9496 15.7542C19.2208 16.0247 19.5598 16.1599 19.9157 16.1599Z" fill="black"/>
<path d="M46.8983 58.1499C45.5254 58.3528 44.339 58.6739 43.2881 59.012C42.8136 59.1642 42.3729 59.2994 41.9492 59.4515L41.4746 59.6037C41.4237 59.6206 41.3898 59.6375 41.3559 59.6544L38.4915 60.601C38.5254 57.6597 36.5763 55.2255 32.8644 53.6872L26.2712 50.9657C23.5593 45.7423 16.983 43.7138 10.678 46.2156H1.18644C0.525424 46.2156 0 46.7565 0 47.3989C0 48.0412 0.542373 48.5822 1.18644 48.5822H10.9153C11.0678 48.5822 11.2203 48.5484 11.3729 48.4977C15.8475 46.6551 21.8475 47.3313 24.2373 52.2166C24.339 52.5546 24.5763 52.8251 24.9153 52.9772L31.9492 55.8848C35.1525 57.2033 36.4915 59.1135 35.9661 61.5645L23.4915 56.4088C22.8814 56.1552 22.1864 56.4426 21.9322 57.0511C21.678 57.6597 21.9661 58.3528 22.5763 58.6063L36.2542 64.2692C36.4068 64.3368 36.5593 64.3537 36.7119 64.3537C36.8644 64.3537 37.0169 64.3199 37.1695 64.2523C37.4576 64.134 37.6949 63.8973 37.8136 63.6099C37.8475 63.5254 37.8814 63.4578 37.8983 63.3733L44.1017 61.2096C45.0508 60.9222 46.0847 60.6348 47.2542 60.4658C48.4746 60.2798 50.1017 60.3305 50.7966 61.5307C51.2542 62.3083 51.1186 63.2381 51.1186 63.3395L40.6949 67.6331H28.4237C26.4407 67.6331 24.5085 67.1936 22.6949 66.3315L14.339 62.2745C11.8644 61.0912 9.23729 60.4827 6.52542 60.4827H1.22034C0.559322 60.4827 0.0338983 61.0236 0.0338983 61.666C0.0338983 62.3083 0.576271 62.8493 1.22034 62.8493H6.52542C8.88136 62.8493 11.1695 63.3733 13.3051 64.4044L21.678 68.4614C23.8475 69.4926 26.1186 69.9997 28.4576 69.9997H40.983C41.1356 69.9997 41.2881 69.9659 41.4407 69.9152L52.1017 65.537C53.4576 64.9623 53.8305 63.0014 53.3898 61.4293C53.0508 60.4996 51.8305 57.4399 46.8983 58.1499Z" fill="black"/>
<path d="M73.8303 21.4006H64.1015C63.9489 21.4006 63.7964 21.4344 63.6438 21.4851C59.1693 23.3277 53.1693 22.6515 50.7794 17.7662C50.6777 17.4451 50.4405 17.1577 50.1015 17.0225L43.0676 14.1149C39.8642 12.7964 38.5252 10.8863 39.0506 8.43516L51.5252 13.5909C52.1354 13.8445 52.8303 13.5571 53.0845 12.9486C53.3388 12.34 53.0506 11.6469 52.4405 11.3934L38.7625 5.7305C38.4744 5.61217 38.1354 5.61217 37.8472 5.7305C37.5591 5.84883 37.3218 6.08549 37.2032 6.37286C37.1523 6.50809 37.1015 6.62642 37.0506 6.76165L32.8981 8.11398C32.8642 8.11398 32.8303 8.13089 32.7794 8.14779L32.2879 8.31683C30.9828 8.75634 29.5252 9.24656 27.7455 9.51702C26.5252 9.70297 24.8981 9.65226 24.2032 8.45206C23.7455 7.67447 23.8811 6.74475 23.8811 6.64332L34.3218 2.34967H46.593C48.576 2.34967 50.5083 2.78918 52.3218 3.6682L60.6777 7.72519C63.1523 8.90848 65.7794 9.51702 68.4913 9.51702H73.7964C74.4574 9.51702 74.9828 8.97609 74.9828 8.33374C74.9828 7.69138 74.4405 7.15045 73.7964 7.15045H68.5252C66.1693 7.15045 63.8811 6.62642 61.7455 5.59527L53.3727 1.53828C51.2032 0.507124 48.932 0 46.593 0H34.0845C33.932 0 33.7794 0.0338083 33.6269 0.0845206L22.9659 4.46269C21.6099 5.03743 21.2371 6.99831 21.6777 8.57039C21.915 9.4325 22.9489 11.985 26.6947 11.985C27.1184 11.985 27.593 11.9512 28.0845 11.8836C29.4574 11.6638 30.6438 11.3596 31.6947 11.0215L36.5083 9.71987C36.6099 12.526 38.5422 14.8587 42.1184 16.3294L48.7116 19.051C50.6438 22.7699 54.5422 24.866 58.8981 24.866C60.6608 24.866 62.4913 24.5279 64.3218 23.801H73.8133C74.4744 23.801 74.9998 23.2601 74.9998 22.6177C75.0167 21.9416 74.4913 21.4006 73.8303 21.4006Z" fill="black"/>
</g>
<defs>
<clipPath id="clip0_27_1394">
<rect width="75" height="70" fill="white"/>
</clipPath>
</defs>
</svg>
