<svg width="28" height="28" viewBox="0 0 28 28" fill="none" xmlns="http://www.w3.org/2000/svg">
<path d="M6.89258 23.1719C6.89258 23.5947 7.23222 23.9356 7.64885 23.9356H11.6521C12.0732 23.9356 12.4129 23.5901 12.4129 23.1719C12.4129 22.7536 12.0732 22.4081 11.6521 22.4126H7.64885C7.23222 22.4126 6.89258 22.7536 6.89258 23.1719Z" fill="black"/>
<path d="M26.1252 6.82383H19.3142V3.60058C19.3097 1.6139 17.6976 0 15.7276 0H3.58661C1.60763 0 0 1.6139 0 3.60058V24.3994C0 26.3861 1.60763 28 3.58661 28H15.7276C17.7066 28 19.3142 26.3861 19.3142 24.3994V21.6626H26.1252C27.1577 21.6626 28 20.817 28 19.7805V8.70596C27.9955 7.66488 27.1577 6.82383 26.1252 6.82383ZM26.7003 8.70141V8.98328L19.1059 14.4296C19.0063 14.5024 18.8886 14.5387 18.7708 14.5387C18.6531 14.5387 18.5353 14.5024 18.4357 14.4296L10.8459 8.98328V8.70141C10.8459 8.38318 11.104 8.12405 11.421 8.12405H26.1252C26.4422 8.12405 26.7003 8.38318 26.7003 8.70141ZM12.4263 1.52297L11.6565 4.16886H7.65777L6.89245 1.52297H12.4263ZM17.7972 24.5403H17.7881C17.7157 25.6178 16.819 26.477 15.7276 26.477H3.58661C2.44994 26.477 1.52159 25.5496 1.52159 24.404V3.60058C1.52159 2.45949 2.44541 1.52752 3.58661 1.52752H5.30746L6.36261 5.15084C6.45771 5.47362 6.75659 5.70093 7.0917 5.70093H12.2316C12.5667 5.70093 12.8656 5.47362 12.9607 5.15084L14.0159 1.52752H15.7367C16.8734 1.52752 17.8017 2.45949 17.8017 3.60058V6.82383H11.421C10.3885 6.82383 9.54618 7.66943 9.54618 8.70596V19.7805C9.54618 20.817 10.3885 21.6626 11.421 21.6626H17.7972V24.5403ZM26.7048 19.4304L22.6065 15.3161C22.3438 15.0661 21.9317 15.0752 21.6827 15.3343C21.5649 15.4571 21.5015 15.6162 21.5015 15.7844C21.5015 15.9526 21.5695 16.1163 21.6872 16.239L25.7855 20.3533H11.7652L15.868 16.2345C16.1171 15.9753 16.108 15.5616 15.8499 15.3116C15.5963 15.0661 15.1978 15.0661 14.9442 15.3116L10.8459 19.4259V10.5881L17.6885 15.4934C18.3361 15.948 19.2146 15.948 19.8667 15.4934L26.7048 10.5881V19.4304Z" fill="black"/>
</svg>
