<svg width="18" height="19" viewBox="0 0 18 19" fill="none" xmlns="http://www.w3.org/2000/svg">
<path d="M13.2125 11.68C14.3073 10.2031 14.8041 8.36715 14.6036 6.53958C14.4031 4.71201 13.52 3.02756 12.131 1.82322C10.742 0.618885 8.94962 -0.0165205 7.11234 0.0441283C5.27506 0.104777 3.52842 0.857007 2.22186 2.15032C0.91531 3.44364 0.145193 5.18266 0.065587 7.01948C-0.0140188 8.8563 0.602757 10.6554 1.79252 12.057C2.98228 13.4585 4.65729 14.3591 6.48243 14.5785C8.30758 14.7979 10.1483 14.32 11.6362 13.2404L11.6351 13.2403C11.6685 13.2854 11.7042 13.3283 11.7444 13.37L16.0408 17.7148C16.2501 17.9266 16.5349 18.0465 16.8326 18.0483C17.1302 18.05 17.4164 17.9334 17.6281 17.7241C17.8399 17.5149 17.9598 17.23 17.9616 16.9323C17.9633 16.6346 17.8467 16.3484 17.6375 16.1366L13.341 11.7918C13.3011 11.751 13.2582 11.7132 13.2126 11.6789L13.2125 11.68ZM13.5259 7.36738C13.5214 8.178 13.3573 8.9798 13.043 9.72701C12.7287 10.4742 12.2704 11.1522 11.6941 11.7222C11.1178 12.2923 10.4349 12.7432 9.68437 13.0493C8.93385 13.3553 8.13039 13.5106 7.31989 13.5061C6.50938 13.5016 5.70769 13.3375 4.96059 13.0232C4.21349 12.7088 3.53561 12.2504 2.96566 11.674C2.39571 11.0977 1.94484 10.4147 1.63881 9.66405C1.33277 8.91343 1.17756 8.10986 1.18204 7.29924C1.19107 5.66211 1.85 4.09563 3.01385 2.94439C4.1777 1.79316 5.75114 1.15148 7.38803 1.16052C9.02493 1.16955 10.5912 1.82856 11.7423 2.99258C12.8933 4.15659 13.5349 5.73025 13.5259 7.36738Z" fill="#333333"/>
</svg>
