<svg width="176" height="57" viewBox="0 0 176 57" fill="none" xmlns="http://www.w3.org/2000/svg">
<g clip-path="url(#clip0_66_150)">
<path d="M77.6718 22.9028H76.0063V38.6409H77.6718V22.9028Z" fill="#1D1D1B"/>
<path d="M91.0073 34.5731L84.1717 22.9028H82.7998V38.6469H84.3934V26.1199L90.5819 36.6459H91.3668L97.5493 26.054V38.6469H99.1489V22.9028H97.777L91.0073 34.5731Z" fill="#1D1D1B"/>
<path d="M108.962 22.9028L101.767 38.6409H103.498L105.386 34.4353H114.156L116.043 38.6409H117.799L110.604 22.9028H108.962ZM105.997 33.0873L109.771 24.6342L113.551 33.0873H105.997Z" fill="#1D1D1B"/>
<path d="M134.1 24.3108C135.945 24.3108 137.521 24.85 138.845 26.156L139.881 25.1016C138.485 23.5919 136.412 22.8311 134.028 22.8311C129.211 22.8311 125.701 26.2279 125.701 30.8409C125.701 35.4538 129.211 38.8507 134.004 38.8507C136.185 38.8507 138.299 38.1737 139.785 36.8497V32.2128V30.8409H138.186H134.771V32.2128H138.186V36.1548C136.97 37.0294 135.574 37.3709 134.07 37.3709C130.2 37.3709 127.342 34.5792 127.342 30.8468C127.342 27.1145 130.2 24.3228 134.094 24.3228L134.1 24.3108Z" fill="#1D1D1B"/>
<path d="M146.16 22.9629H144.494V38.7129H146.16V22.9629Z" fill="#1D1D1B"/>
<path d="M151.288 38.7129H152.953V32.0331H159.902V30.5893H152.953V24.4007H162.089V22.9629H151.288V38.7129Z" fill="#1D1D1B"/>
<path d="M163.767 22.9629V24.4007H168.703V38.7129H170.369V24.4007H175.904V22.9629H163.767Z" fill="#1D1D1B"/>
<path d="M49.7125 22.873H43.8115V38.647H45.483V24.3168H49.6766C52.8278 24.3168 54.4993 25.7606 54.4993 28.2828C54.4993 30.805 52.8338 32.2008 49.6766 32.2008H46.5553V33.6686H49.7185C53.7324 33.6686 56.1647 31.6377 56.1647 28.2828C56.1647 24.9279 53.7324 22.873 49.7185 22.873H49.7125Z" fill="#1D1D1B"/>
<path d="M72.1181 28.2828C72.1181 24.904 69.6858 22.873 65.6779 22.873H59.7769V38.647H61.4423V24.3168H65.6359C68.7871 24.3168 70.4586 25.7606 70.4586 28.2828C70.4586 30.805 68.7871 32.2248 65.6359 32.2248H62.5327V33.6446H65.6839C66.1332 33.6446 66.5406 33.6207 66.9479 33.5787L70.5544 38.647H72.3817L68.5295 33.2373C70.83 32.4944 72.136 30.757 72.136 28.2828H72.1181Z" fill="#1D1D1B"/>
<path d="M115.138 45.0874L112.251 53.6184H111.592L108.95 45.9681L106.296 53.6184H105.637L102.737 45.0874H103.396L105.99 52.7677L108.656 45.0874H109.255L111.909 52.7737L114.527 45.0874H115.138Z" fill="#1D1D1B"/>
<path d="M121.83 47.256L118.565 54.481C118.056 55.6492 117.421 56.0266 116.582 56.0266C116.007 56.0266 115.474 55.8289 115.108 55.4515L115.414 54.9902C115.743 55.3317 116.121 55.4875 116.594 55.4875C117.181 55.4875 117.607 55.2179 117.996 54.3552L118.337 53.5883L115.474 47.25H116.121L118.667 52.9413L121.213 47.25H121.836L121.83 47.256Z" fill="#1D1D1B"/>
<path d="M126.168 47.208V47.8071C126.12 47.8071 126.072 47.7951 126.024 47.7951C124.61 47.7951 123.771 48.7297 123.771 50.3053V53.6182H123.16V47.2559H123.747V48.6458C124.137 47.7232 124.975 47.208 126.174 47.208H126.168Z" fill="#1D1D1B"/>
<path d="M127.096 50.4371C127.096 48.544 128.45 47.208 130.277 47.208C132.105 47.208 133.459 48.55 133.459 50.4371C133.459 52.3243 132.105 53.6602 130.277 53.6602C128.45 53.6602 127.096 52.3183 127.096 50.4371ZM132.835 50.4371C132.835 48.8376 131.739 47.7532 130.277 47.7532C128.816 47.7532 127.719 48.8376 127.719 50.4371C127.719 52.0367 128.816 53.1151 130.277 53.1151C131.739 53.1151 132.835 52.0307 132.835 50.4371ZM131.278 44.7817H132.152L130.241 46.2195H129.582L131.278 44.7817Z" fill="#1D1D1B"/>
<path d="M139.539 53.091V53.6182H134.483V53.2048L138.671 47.7831H134.543V47.2559H139.467V47.6692L135.268 53.091H139.545H139.539Z" fill="#1D1D1B"/>
<path d="M147.058 49.898V53.6124H146.446V49.946C146.446 48.5082 145.68 47.7533 144.386 47.7533C142.888 47.7533 141.977 48.7178 141.977 50.2275V53.6124H141.366V47.2501H141.953V48.628C142.379 47.7413 143.271 47.2021 144.475 47.2021C146.021 47.2021 147.058 48.1188 147.058 49.898Z" fill="#1D1D1B"/>
<path d="M149.568 47.2559H150.179V53.6182H149.568V47.2559Z" fill="#1D1D1B"/>
<path d="M150.383 55.6015L150.628 55.1522C150.886 55.3858 151.251 55.5057 151.665 55.5057C152.408 55.5057 152.809 55.0563 152.809 54.2296V47.2622H153.42V54.2536C153.42 55.3259 152.809 56.0329 151.701 56.0329C151.192 56.0329 150.688 55.9011 150.383 55.6075V55.6015Z" fill="#1D1D1B"/>
<path d="M158.183 52.8514L158.464 52.3662C158.955 52.7795 159.818 53.133 160.759 53.133C162.101 53.133 162.634 52.6597 162.634 51.9408C162.634 50.0896 158.416 51.4495 158.416 48.9514C158.416 47.9868 159.219 47.208 160.831 47.208C161.633 47.208 162.514 47.4536 163.011 47.8311L162.73 48.3163C162.191 47.9269 161.496 47.7412 160.819 47.7412C159.572 47.7412 159.027 48.2504 159.027 48.9334C159.027 50.8445 163.239 49.4905 163.239 51.9168C163.239 52.9533 162.352 53.6542 160.729 53.6542C159.68 53.6542 158.68 53.3007 158.183 52.8394V52.8514Z" fill="#1D1D1B"/>
<path d="M164.947 47.2559H165.558V53.6182H164.947V47.2559Z" fill="#1D1D1B"/>
<path d="M173.502 50.5807H168.032C168.092 52.0904 169.2 53.1149 170.728 53.1149C171.531 53.1149 172.273 52.8213 172.765 52.2282L173.118 52.6296C172.998 52.7734 172.849 52.8992 172.669 53.055C171.477 54.1273 171.255 54.6126 171.255 55.1158C171.255 55.6191 171.608 55.8587 172.082 55.8587C172.357 55.8587 172.639 55.7628 172.837 55.6011L173.01 55.9546C172.729 56.1642 172.405 56.2601 172.034 56.2601C171.291 56.2601 170.782 55.8347 170.782 55.1398C170.782 54.7025 170.967 54.1513 171.585 53.5702C171.303 53.6301 171.009 53.666 170.722 53.666C168.799 53.666 167.445 52.3241 167.445 50.4429C167.445 48.5618 168.751 47.2139 170.488 47.2139C172.226 47.2139 173.526 48.5319 173.526 50.419C173.526 50.4669 173.514 50.5268 173.514 50.5927L173.502 50.5807ZM168.044 50.1015H172.92C172.831 48.7236 171.836 47.7411 170.482 47.7411C169.128 47.7411 168.146 48.7176 168.05 50.1015H168.044Z" fill="#1D1D1B"/>
<path d="M175.293 45.0874H176L175.88 51.1681H175.419L175.299 45.0874H175.293Z" fill="#1D1D1B"/>
<path d="M137.401 45.0034H136.61V45.7942H137.401V45.0034Z" fill="#1D1D1B"/>
<path d="M150.269 44.8237H149.478V45.6145H150.269V44.8237Z" fill="#1D1D1B"/>
<path d="M153.51 44.8237H152.719V45.6145H153.51V44.8237Z" fill="#1D1D1B"/>
<path d="M165.648 44.8237H164.857V45.6145H165.648V44.8237Z" fill="#1D1D1B"/>
<path d="M175.964 52.7676H175.334V53.5584H175.964V52.7676Z" fill="#1D1D1B"/>
<path d="M36.8858 10.5918H0V19.9136H29.2714V18.1463H1.7733V12.3651H35.1125V18.1463H31.0747V37.0235H5.81115V21.5311H4.03785V38.7909H32.848V19.9136H36.8858V10.5918Z" fill="#1D0002"/>
<path d="M30.0802 4.2715C30.0682 4.22956 28.7502 0.0299544 26.294 0C23.652 0 20.5727 2.71387 18.1823 5.07427L17.9726 5.28395L17.7629 5.07427C15.3666 2.71387 12.2933 0 9.68724 0C7.18905 0.0299544 5.87105 4.22956 5.85907 4.2715C5.58948 5.17612 5.72727 6.02083 6.25447 6.71577C7.74021 8.68078 12.0716 8.8665 13.2638 8.87848L13.2458 7.10518C11.4366 7.08122 8.44713 6.67983 7.66832 5.6494C7.54251 5.48764 7.4167 5.24202 7.55449 4.77473C7.95588 3.42678 9.00428 1.77929 9.66328 1.7733C11.167 1.7733 13.4076 3.27701 16.5408 6.36231L17.9666 7.8121L19.3985 6.35632C22.5317 3.26503 24.7663 1.76731 26.246 1.76731C26.929 1.7733 27.9774 3.42678 28.3788 4.76874C28.5166 5.23004 28.3908 5.47566 28.2709 5.64341C27.4921 6.67384 24.5027 7.08122 22.6934 7.09919L22.6755 8.87249C23.8676 8.86051 28.1991 8.67479 29.6848 6.70978C30.212 6.01484 30.3498 5.17013 30.0802 4.2655V4.2715Z" fill="#1D1D1B"/>
<path d="M9.65112 24.6943H7.79395V35.6516H9.65112V24.6943Z" fill="#ED6A8A"/>
<path d="M12.9221 24.6943H11.0649V35.6516H12.9221V24.6943Z" fill="#ED6A8A"/>
<path d="M16.1936 24.6943H14.3364V35.6516H16.1936V24.6943Z" fill="#ED6A8A"/>
<path d="M19.4582 24.6943H17.6011V35.6516H19.4582V24.6943Z" fill="#ED6A8A"/>
<path d="M22.7292 24.6943H20.8721V35.6516H22.7292V24.6943Z" fill="#ED6A8A"/>
<path d="M25.9944 24.6943H24.1372V35.6516H25.9944V24.6943Z" fill="#ED6A8A"/>
<path d="M29.2654 24.6943H27.4082V35.6516H29.2654V24.6943Z" fill="#ED6A8A"/>
</g>
<defs>
<clipPath id="clip0_66_150">
<rect width="176" height="56.2603" fill="white"/>
</clipPath>
</defs>
</svg>
