<svg width="24" height="24" viewBox="0 0 24 24" fill="none" xmlns="http://www.w3.org/2000/svg">
<g clip-path="url(#clip0_66_194)">
<path d="M21.6 0H2.4C1.07344 0 0 1.07344 0 2.4V21.6C0 22.9266 1.07344 24 2.4 24H21.6C22.9266 24 24 22.9266 24 21.6V2.4C24 1.07812 22.9266 0.0046875 21.6 0ZM9.6 1.60313H14.4V9.60469H9.6V1.60313ZM22.4016 21.6C22.4016 22.0406 22.0453 22.4016 21.6 22.4016H2.4C1.95938 22.4016 1.59844 22.0453 1.59844 21.6V2.4C1.59844 1.95938 1.95469 1.59844 2.4 1.59844H8.00156V9.6C8.00156 10.4812 8.71875 11.1984 9.6 11.1984H14.4C15.2813 11.1984 15.9984 10.4812 15.9984 9.6V1.60313H21.6C22.0406 1.60313 22.4016 1.95937 22.4016 2.40469V21.6Z" fill="black"/>
<path d="M20.0015 17.6016H15.2015C14.7608 17.6016 14.3999 17.9578 14.3999 18.4031C14.3999 18.8484 14.7562 19.2047 15.2015 19.2047H20.0015C20.4421 19.2047 20.803 18.8484 20.803 18.4031C20.803 17.9578 20.4421 17.6016 20.0015 17.6016Z" fill="black"/>
</g>
<defs>
<clipPath id="clip0_66_194">
<rect width="24" height="24" fill="white"/>
</clipPath>
</defs>
</svg>
