<svg width="19" height="27" viewBox="0 0 19 27" fill="none" xmlns="http://www.w3.org/2000/svg">
<path d="M11.2791 21.6172H7.40539C7.00293 21.6172 6.6709 21.9442 6.6709 22.3517C6.6709 22.7592 6.9979 23.0862 7.40539 23.0862H11.2791C11.6865 23.0862 12.0135 22.7542 12.0135 22.3517C12.0135 21.9493 11.6865 21.6122 11.2791 21.6172Z" fill="black"/>
<path d="M15.223 0H3.47121C1.5545 0 0 1.5545 0 3.47121V23.5288C0 25.4455 1.5545 27 3.47121 27H15.223C17.1397 27 18.6942 25.4455 18.6942 23.5288V3.47624C18.6892 1.55953 17.1297 0 15.223 0ZM12.0285 1.46898L11.284 4.01956H7.41028L6.67077 1.46898H12.0285ZM17.2152 23.6646C17.1448 24.706 16.2795 25.531 15.218 25.531H3.46618C2.36445 25.531 1.46898 24.6355 1.46898 23.5338V3.47121C1.46898 2.36948 2.36445 1.47401 3.46618 1.47401H5.13136L6.1526 4.97037C6.24315 5.28228 6.53494 5.4986 6.8569 5.4986H11.8323C12.1543 5.4986 12.4461 5.27725 12.5366 4.97037L13.5579 1.47401H15.223C16.3248 1.47401 17.2202 2.37451 17.2202 3.47121V6.8066H17.2152V23.6646Z" fill="black"/>
</svg>
