<svg width="25" height="20" viewBox="0 0 25 20" fill="none" xmlns="http://www.w3.org/2000/svg">
<path d="M22.531 0H2.47706C1.11171 0 0 1.11171 0 2.47706V17.5229C0 18.8883 1.11171 20 2.47706 20H22.531C23.8964 20 25.0081 18.8883 25.0081 17.5229V2.47706C25.0027 1.11171 23.891 0 22.531 0ZM1.6082 2.47167C1.6082 1.99676 1.99676 1.6082 2.47167 1.6082H22.5256C23.0005 1.6082 23.3891 1.99676 23.3891 2.47167V2.898L12.9951 10.3238C12.8494 10.4317 12.6767 10.4857 12.4933 10.4857C12.3098 10.4857 12.1371 10.4317 11.986 10.3238L1.59741 2.898V2.47167H1.6082ZM23.3999 17.2477L17.674 11.5165C17.3502 11.2088 16.8376 11.2196 16.53 11.538C16.4598 11.6136 16.4004 11.6999 16.3627 11.7971C16.3249 11.8888 16.3033 11.9914 16.3033 12.0939C16.3033 12.3044 16.3842 12.504 16.5353 12.6552L22.2612 18.381H2.7469L8.48354 12.6498C8.79115 12.3314 8.78036 11.8187 8.46195 11.5111C8.14895 11.2089 7.65246 11.2089 7.33945 11.5111L1.6136 17.2369V4.87858L11.0739 11.6352C11.932 12.2342 13.0869 12.2342 13.9504 11.6352L23.3999 4.87858V17.2477Z" fill="black"/>
</svg>
