<svg width="21" height="21" viewBox="0 0 21 21" fill="none" xmlns="http://www.w3.org/2000/svg">
<path d="M15.9746 0.999999H5.02542C2.80222 0.999999 1 2.80222 1 5.02542V15.9746C1 18.1978 2.80222 20 5.02542 20H15.9746C18.1978 20 20 18.1978 20 15.9746V5.02542C20 2.80222 18.1978 0.999999 15.9746 0.999999Z" stroke="black" stroke-width="1.5" stroke-miterlimit="10" stroke-linecap="round" stroke-linejoin="round"/>
<path d="M16.1768 3.81737C15.6209 3.81737 15.1704 4.26789 15.1704 4.82372C15.1704 5.37955 15.6209 5.83008 16.1768 5.83008C16.7326 5.83008 17.1831 5.37955 17.1831 4.82372C17.1831 4.26789 16.7326 3.81737 16.1768 3.81737Z" fill="black"/>
<path d="M10.5012 6.0718C8.05572 6.0718 6.07324 8.05428 6.07324 10.4998C6.07324 12.9453 8.05572 14.9277 10.5012 14.9277C12.9467 14.9277 14.9292 12.9453 14.9292 10.4998C14.9292 8.05428 12.9467 6.0718 10.5012 6.0718Z" stroke="black" stroke-width="1.5" stroke-miterlimit="10" stroke-linecap="round" stroke-linejoin="round"/>
</svg>
