<svg width="133" height="93" viewBox="0 0 133 93" fill="none" xmlns="http://www.w3.org/2000/svg">
<path d="M41.4011 81.3057L38.5135 89.8367H37.8545L35.2125 82.1863L32.5586 89.8367H31.8996L29 81.3057H29.659L32.253 88.986L34.919 81.3057H35.5181L38.172 88.992L40.79 81.3057H41.4011Z" fill="#1D1D1B"/>
<path d="M48.0929 83.4738L44.8278 90.6988C44.3186 91.867 43.6836 92.2444 42.8449 92.2444C42.2697 92.2444 41.7365 92.0467 41.3711 91.6693L41.6766 91.208C42.0061 91.5495 42.3835 91.7052 42.8568 91.7052C43.4439 91.7052 43.8693 91.4356 44.2587 90.573L44.6002 89.8061L41.7365 83.4678H42.3836L44.9297 89.1591L47.4758 83.4678H48.0988L48.0929 83.4738Z" fill="#1D1D1B"/>
<path d="M52.4303 83.4268V84.0258C52.3823 84.0258 52.3344 84.0139 52.2865 84.0139C50.8726 84.0139 50.0339 84.9484 50.0339 86.524V89.837H49.4229V83.4747H50.01V84.8646C50.3994 83.942 51.2381 83.4268 52.4363 83.4268H52.4303Z" fill="#1D1D1B"/>
<path d="M53.3589 86.6554C53.3589 84.7623 54.7128 83.4263 56.5401 83.4263C58.3673 83.4263 59.7212 84.7683 59.7212 86.6554C59.7212 88.5425 58.3673 89.8785 56.5401 89.8785C54.7128 89.8785 53.3589 88.5365 53.3589 86.6554ZM59.0981 86.6554C59.0981 85.0558 58.0018 83.9715 56.5401 83.9715C55.0783 83.9715 53.9819 85.0558 53.9819 86.6554C53.9819 88.255 55.0783 89.3333 56.5401 89.3333C58.0018 89.3333 59.0981 88.249 59.0981 86.6554ZM57.5405 81H58.4152L56.5041 82.4378H55.8451L57.5405 81Z" fill="#1D1D1B"/>
<path d="M65.8019 89.3097V89.8369H60.7456V89.4236L64.9332 84.0018H60.8055V83.4746H65.73V83.888L61.5304 89.3097H65.8079H65.8019Z" fill="#1D1D1B"/>
<path d="M73.3202 86.1158V89.8302H72.7092V86.1637C72.7092 84.7259 71.9423 83.9711 70.6483 83.9711C69.1506 83.9711 68.24 84.9356 68.24 86.4453V89.8302H67.6289V83.4678H68.216V84.8457C68.6414 83.9591 69.534 83.4199 70.7382 83.4199C72.2838 83.4199 73.3202 84.3365 73.3202 86.1158Z" fill="#1D1D1B"/>
<path d="M75.8306 83.4746H76.4416V89.8369H75.8306V83.4746Z" fill="#1D1D1B"/>
<path d="M76.6455 91.8198L76.8911 91.3705C77.1487 91.6041 77.5142 91.7239 77.9276 91.7239C78.6704 91.7239 79.0718 91.2746 79.0718 90.4479V83.4805H79.6829V90.4718C79.6829 91.5442 79.0718 92.2511 77.9635 92.2511C77.4543 92.2511 76.951 92.1193 76.6455 91.8258V91.8198Z" fill="#1D1D1B"/>
<path d="M84.4453 89.0702L84.7269 88.5849C85.2181 88.9983 86.0808 89.3517 87.0214 89.3517C88.3633 89.3517 88.8965 88.8785 88.8965 88.1595C88.8965 86.3084 84.6789 87.6683 84.6789 85.1701C84.6789 84.2056 85.4817 83.4268 87.0933 83.4268C87.896 83.4268 88.7767 83.6724 89.274 84.0498L88.9924 84.5351C88.4532 84.1457 87.7583 83.9599 87.0813 83.9599C85.8352 83.9599 85.29 84.4692 85.29 85.1521C85.29 87.0632 89.5016 85.7093 89.5016 88.1356C89.5016 89.172 88.615 89.8729 86.9914 89.8729C85.943 89.8729 84.9426 89.5195 84.4453 89.0582V89.0702Z" fill="#1D1D1B"/>
<path d="M91.2095 83.4746H91.8206V89.8369H91.2095V83.4746Z" fill="#1D1D1B"/>
<path d="M99.7643 86.7995H94.2946C94.3545 88.3092 95.4629 89.3336 96.9905 89.3336C97.7933 89.3336 98.5362 89.0401 99.0274 88.447L99.3809 88.8484C99.2611 88.9922 99.1113 89.118 98.9316 89.2737C97.7394 90.3461 97.5177 90.8314 97.5177 91.3346C97.5177 91.8378 97.8712 92.0775 98.3445 92.0775C98.62 92.0775 98.9016 91.9816 99.0993 91.8198L99.2731 92.1733C98.9915 92.383 98.668 92.4788 98.2965 92.4788C97.5537 92.4788 97.0444 92.0535 97.0444 91.3585C97.0444 90.9212 97.2302 90.3701 97.8472 89.7889C97.5656 89.8488 97.2721 89.8848 96.9845 89.8848C95.0615 89.8848 93.7075 88.5428 93.7075 86.6617C93.7075 84.7806 95.0135 83.4326 96.7509 83.4326C98.4882 83.4326 99.7883 84.7506 99.7883 86.6377C99.7883 86.6857 99.7763 86.7456 99.7763 86.8115L99.7643 86.7995ZM94.3066 86.3202H99.1832C99.0933 84.9423 98.0988 83.9598 96.7449 83.9598C95.391 83.9598 94.4085 84.9363 94.3126 86.3202H94.3066Z" fill="#1D1D1B"/>
<path d="M101.556 81.3057H102.263L102.143 87.3864H101.681L101.562 81.3057H101.556Z" fill="#1D1D1B"/>
<path d="M63.6634 81.2217H62.8726V82.0125H63.6634V81.2217Z" fill="#1D1D1B"/>
<path d="M76.5315 81.042H75.7407V81.8328H76.5315V81.042Z" fill="#1D1D1B"/>
<path d="M79.7727 81.042H78.9819V81.8328H79.7727V81.042Z" fill="#1D1D1B"/>
<path d="M91.9104 81.042H91.1196V81.8328H91.9104V81.042Z" fill="#1D1D1B"/>
<path d="M102.226 88.9863H101.597V89.7771H102.226V88.9863Z" fill="#1D1D1B"/>
<path d="M33.8603 57.0723H32.1948V72.8103H33.8603V57.0723Z" fill="#1D1D1B"/>
<path d="M47.1958 68.7425L40.3602 57.0723H38.9883V72.8163H40.5818V60.2894L46.7704 70.8153H47.5552L53.7378 60.2235V72.8163H55.3374V57.0723H53.9655L47.1958 68.7425Z" fill="#1D1D1B"/>
<path d="M65.1506 57.0723L57.9556 72.8103H59.6869L61.5741 68.6047H70.3447L72.2318 72.8103H73.9872L66.7921 57.0723H65.1506ZM62.1851 67.2568L65.9594 58.8036L69.7396 67.2568H62.1851Z" fill="#1D1D1B"/>
<path d="M90.2884 58.4797C92.1336 58.4797 93.7092 59.0189 95.0331 60.3249L96.0696 59.2705C94.6737 57.7608 92.6008 57 90.2165 57C85.3998 57 81.8892 60.3968 81.8892 65.0098C81.8892 69.6228 85.3998 73.0196 90.1925 73.0196C92.3732 73.0196 94.488 72.3426 95.9737 71.0187V66.3817V65.0098H94.3741H90.9593V66.3817H94.3741V70.3237C93.158 71.1984 91.7621 71.5399 90.2584 71.5399C86.3883 71.5399 83.5307 68.7481 83.5307 65.0158C83.5307 61.2835 86.3883 58.4917 90.2824 58.4917L90.2884 58.4797Z" fill="#1D1D1B"/>
<path d="M102.348 57.1318H100.683V72.8819H102.348V57.1318Z" fill="#1D1D1B"/>
<path d="M107.476 72.8819H109.142V66.202H116.091V64.7582H109.142V58.5696H118.278V57.1318H107.476V72.8819Z" fill="#1D1D1B"/>
<path d="M119.955 57.1318V58.5696H124.892V72.8819H126.557V58.5696H132.093V57.1318H119.955Z" fill="#1D1D1B"/>
<path d="M5.90102 57.042H0V72.816H1.67146V58.4858H5.86507C9.01627 58.4858 10.6877 59.9296 10.6877 62.4518C10.6877 64.9739 9.02226 66.3698 5.86507 66.3698H2.74382V67.8376H5.90701C9.92089 67.8376 12.3532 65.8066 12.3532 62.4518C12.3532 59.0969 9.92089 57.042 5.90701 57.042H5.90102Z" fill="#1D1D1B"/>
<path d="M28.3065 62.4518C28.3065 59.0729 25.8742 57.042 21.8663 57.042H15.9653V72.816H17.6308V58.4858H21.8244C24.9756 58.4858 26.6471 59.9296 26.6471 62.4518C26.6471 64.9739 24.9756 66.3938 21.8244 66.3938H18.7211V67.8136H21.8723C22.3217 67.8136 22.729 67.7896 23.1364 67.7477L26.7429 72.816H28.5701L24.718 67.4062C27.0185 66.6633 28.3245 64.926 28.3245 62.4518H28.3065Z" fill="#1D1D1B"/>
<path d="M87 12.6348H43V23.7545H77.917V21.6463H45.1153V14.7501H84.8847V21.6463H80.0681V44.1644H49.9319V25.684H47.8166V46.2726H82.1834V23.7545H87V12.6348Z" fill="#1D0002"/>
<path d="M78.8817 5.09534C78.8674 5.04531 77.2952 0.0357317 74.3652 0C71.2136 0 67.5404 3.23729 64.689 6.05295L64.4389 6.30307L64.1888 6.05295C61.3302 3.23729 57.6642 0 54.5555 0C51.5755 0.0357317 50.0033 5.04531 49.989 5.09534C49.6674 6.17444 49.8318 7.18207 50.4607 8.01105C52.233 10.355 57.3998 10.5766 58.8219 10.5909L58.8004 8.47556C56.6422 8.44697 53.0762 7.96817 52.1472 6.739C51.9971 6.54605 51.8471 6.25305 52.0114 5.69563C52.4902 4.08771 53.7408 2.12246 54.5269 2.11532C56.3207 2.11532 58.9934 3.90905 62.7309 7.58941L64.4318 9.31882L66.1397 7.58226C69.8773 3.89475 72.5429 2.10817 74.308 2.10817C75.1227 2.11532 76.3733 4.08771 76.8521 5.68849C77.0165 6.23875 76.8664 6.53175 76.7235 6.73185C75.7944 7.96102 72.2284 8.44697 70.0702 8.46841L70.0488 10.5837C71.4709 10.5694 76.6377 10.3479 78.41 8.0039C79.0389 7.17492 79.2032 6.16729 78.8817 5.08819V5.09534Z" fill="#1D1D1B"/>
<path d="M54.5127 29.457H52.2974V42.5277H54.5127V29.457Z" fill="#ED6A8A"/>
<path d="M58.4146 29.457H56.1992V42.5277H58.4146V29.457Z" fill="#ED6A8A"/>
<path d="M62.3164 29.457H60.1011V42.5277H62.3164V29.457Z" fill="#ED6A8A"/>
<path d="M66.211 29.457H63.9956V42.5277H66.211V29.457Z" fill="#ED6A8A"/>
<path d="M70.1133 29.457H67.8979V42.5277H70.1133V29.457Z" fill="#ED6A8A"/>
<path d="M74.0083 29.457H71.793V42.5277H74.0083V29.457Z" fill="#ED6A8A"/>
<path d="M77.9097 29.457H75.6943V42.5277H77.9097V29.457Z" fill="#ED6A8A"/>
</svg>
