<svg width="16" height="16" viewBox="0 0 16 16" fill="none" xmlns="http://www.w3.org/2000/svg">
<g clip-path="url(#clip0_20_737)">
<path d="M5.10215 10.1484H2.33177C2.07746 10.1484 1.86914 10.3538 1.86914 10.6106C1.86914 10.8674 2.07475 11.0728 2.33177 11.0728H5.10215C5.35646 11.0728 5.56478 10.8674 5.56478 10.6106C5.56478 10.3538 5.35646 10.1484 5.10215 10.1484Z" fill="white"/>
<path d="M13.8519 7.62054V1.38378C13.8519 0.621622 13.2323 0.0027027 12.4667 0H1.38519C0.619547 0 0 0.618919 0 1.38378V12.4541C0 13.2189 0.619547 13.8378 1.38519 13.8378H7.60176C8.40068 15.1338 9.83375 16 11.4657 16C13.9655 16 16 13.9676 16 11.4703C16 9.84703 15.1402 8.42027 13.8519 7.62054ZM5.54075 0.924324H8.31113V5.53784H5.54075V0.924324ZM1.38519 12.9162C1.13088 12.9162 0.922557 12.7108 0.922557 12.4541V1.38378C0.922557 1.12973 1.12817 0.921622 1.38519 0.921622H4.61819V5.53514C4.61819 6.04324 5.03213 6.45676 5.54075 6.45676H8.31113C8.81975 6.45676 9.23368 6.04324 9.23368 5.53514V0.924324H12.4667C12.721 0.924324 12.9293 1.12973 12.9293 1.38649V7.18297C12.4699 7.02595 11.9775 6.94054 11.4657 6.94054C8.96584 6.94054 6.93135 8.97297 6.93135 11.4703C6.93135 11.9757 7.01468 12.4619 7.16835 12.9162H1.38519ZM11.4657 15.0432C9.4934 15.0432 7.88908 13.4405 7.88908 11.4703C7.88908 9.5 9.4934 7.8973 11.4657 7.8973C13.4379 7.8973 15.0423 9.5 15.0423 11.4703C15.0423 13.4405 13.4379 15.0432 11.4657 15.0432Z" fill="white"/>
<path d="M13.2808 10.9164H12.0146V9.65422C12.0146 9.40557 11.8144 9.20557 11.5655 9.20557H11.3626C11.1137 9.20557 10.9135 9.40557 10.9135 9.65422V10.9164H9.64735C9.39845 10.9164 9.19824 11.1164 9.19824 11.365V11.5677C9.19824 11.8164 9.40115 12.0164 9.65005 12.0164H10.9135V13.2839C10.9135 13.5326 11.1137 13.7326 11.3626 13.7326H11.5655C11.8144 13.7326 12.0173 13.5299 12.0146 13.2839V12.0164H13.2808C13.5297 12.0164 13.7299 11.8164 13.7299 11.5677V11.365C13.7299 11.1164 13.5297 10.9164 13.2808 10.9164Z" fill="white"/>
</g>
<defs>
<clipPath id="clip0_20_737">
<rect width="16" height="16" fill="white"/>
</clipPath>
</defs>
</svg>
