<svg width="27" height="24" viewBox="0 0 27 24" fill="none" xmlns="http://www.w3.org/2000/svg">
<path d="M14.0023 0.506232C8.41818 0.312336 3.72686 4.66678 3.50488 10.2498C3.51551 12.4153 4.28121 14.5093 5.67001 16.171C5.08902 17.2067 4.45078 18.2207 3.77418 19.1884C3.4314 19.6748 3.41579 20.3199 3.73456 20.8223C4.04624 21.317 4.62438 21.5764 5.20113 21.4802C6.7606 21.2163 8.27822 20.747 9.71443 20.0846C10.1013 19.9056 10.4635 19.7162 10.8106 19.5235C11.8461 19.8339 12.9212 19.9923 14.0023 19.9935C19.5864 20.1874 24.2777 15.8329 24.4996 10.2498C24.2776 4.66678 19.5863 0.312336 14.0023 0.506232ZM14.0023 18.5938C12.9643 18.592 11.9332 18.4257 10.9474 18.101C10.7596 18.0397 10.5546 18.0605 10.3829 18.1584C9.98776 18.3838 9.57644 18.6063 9.12671 18.8138C7.8026 19.4458 6.37928 19.8442 4.91949 19.9914C5.66419 18.9281 6.35269 17.8265 6.98214 16.6911L7.127 16.4112C7.27064 16.1489 7.23167 15.8242 7.02999 15.6033C5.67666 14.1476 4.91822 12.2374 4.90449 10.2498C5.1269 5.44009 9.19123 1.71251 14.0022 1.90593C18.8132 1.71251 22.8775 5.44009 23.0999 10.2498C22.8776 15.0595 18.8133 18.7871 14.0023 18.5938Z" fill="white"/>
<path d="M14.0264 13.5674H12.502C12.5065 13.1436 12.543 12.7881 12.6113 12.501C12.6797 12.2093 12.7936 11.945 12.9531 11.708C13.1172 11.471 13.3337 11.2204 13.6025 10.9561C13.8122 10.7555 14.0013 10.5664 14.1699 10.3887C14.3385 10.2064 14.473 10.015 14.5732 9.81445C14.6735 9.60938 14.7236 9.37467 14.7236 9.11035C14.7236 8.82324 14.6758 8.57943 14.5801 8.37891C14.4844 8.17839 14.3431 8.02572 14.1562 7.9209C13.974 7.81608 13.7461 7.76367 13.4727 7.76367C13.2448 7.76367 13.0306 7.80924 12.8301 7.90039C12.6296 7.98698 12.4678 8.1237 12.3447 8.31055C12.2217 8.49284 12.1556 8.73438 12.1465 9.03516H10.499C10.5081 8.46094 10.6449 7.97786 10.9092 7.58594C11.1735 7.19401 11.529 6.90007 11.9756 6.7041C12.4222 6.50814 12.9212 6.41016 13.4727 6.41016C14.0833 6.41016 14.6051 6.51497 15.0381 6.72461C15.471 6.92969 15.8014 7.23047 16.0293 7.62695C16.2617 8.01888 16.3779 8.49284 16.3779 9.04883C16.3779 9.44987 16.2982 9.81445 16.1387 10.1426C15.9792 10.4661 15.7718 10.7692 15.5166 11.0518C15.2614 11.3298 14.9857 11.6077 14.6895 11.8857C14.4342 12.1182 14.2611 12.3711 14.1699 12.6445C14.0788 12.9134 14.0309 13.221 14.0264 13.5674ZM12.3652 15.7002C12.3652 15.4541 12.4495 15.2467 12.6182 15.0781C12.7868 14.9049 13.0169 14.8184 13.3086 14.8184C13.6003 14.8184 13.8304 14.9049 13.999 15.0781C14.1676 15.2467 14.252 15.4541 14.252 15.7002C14.252 15.9463 14.1676 16.1559 13.999 16.3291C13.8304 16.4977 13.6003 16.582 13.3086 16.582C13.0169 16.582 12.7868 16.4977 12.6182 16.3291C12.4495 16.1559 12.3652 15.9463 12.3652 15.7002Z" fill="white"/>
</svg>
