<svg width="51" height="51" viewBox="0 0 51 51" fill="none" xmlns="http://www.w3.org/2000/svg">
<g clip-path="url(#clip0_28_2753)">
<path d="M33.2663 3.22064C31.192 1.14633 28.4315 0 25.4993 0C19.448 0 14.5195 4.92064 14.5195 10.9798V11.2761C14.5195 14.333 16.2585 17.8812 19.6897 21.8115C21.881 24.3303 24.0645 26.1862 24.6805 26.6931L25.4993 27.3482L26.3104 26.6931C26.9264 26.1862 29.1021 24.3381 31.309 21.8037C34.7402 17.8656 36.4792 14.3252 36.4792 11.2683V10.972C36.4792 8.04771 35.3406 5.29495 33.2585 3.21284L33.2663 3.22064ZM33.9682 11.2761C33.9682 13.3972 32.7906 15.9628 30.4746 18.895C28.7044 21.133 26.6769 23.0358 25.6241 23.9716L25.4993 24.0807L25.3746 23.9716C24.3218 23.0358 22.2943 21.133 20.5241 18.8872C18.2081 15.9628 17.0305 13.3972 17.0305 11.2683V10.972C17.0305 6.30871 20.8282 2.51101 25.4993 2.51101C30.1704 2.51101 33.9682 6.30871 33.9682 10.972V11.2761Z" fill="black"/>
<path d="M25.5001 5.74707C22.6148 5.74707 20.2598 8.09432 20.2598 10.9796C20.2598 13.865 22.607 16.2122 25.5001 16.2122C28.3933 16.2122 30.7405 13.865 30.7405 10.9796C30.7405 8.09432 28.3933 5.74707 25.5001 5.74707ZM25.5001 13.631C24.0419 13.631 22.8566 12.4457 22.8566 10.9874C22.8566 9.52918 24.0419 8.34386 25.5001 8.34386C26.9584 8.34386 28.1437 9.52918 28.1437 10.9874C28.1437 12.4457 26.9584 13.631 25.5001 13.631Z" fill="black"/>
<path d="M44.9564 10.8394C43.3422 10.8394 41.8216 11.471 40.683 12.6095C39.5445 13.7481 38.9128 15.2687 38.9128 16.8829V18.7779H31.6995C31.1069 18.7779 30.6234 19.2614 30.6234 19.854C30.6234 20.4467 31.1069 20.9302 31.6995 20.9302H38.9128V30.6779H26.3266C23.7844 28.2527 18.8326 23.5426 16.0876 20.9302H19.8619C20.4546 20.9302 20.9381 20.4467 20.9381 19.854C20.9381 19.2614 20.4546 18.7779 19.8619 18.7779H12.0872V16.8829C12.0872 13.5531 9.37339 10.8394 6.04358 10.8394C4.42936 10.8394 2.90872 11.471 1.77018 12.6095C0.631651 13.7481 0 15.2687 0 16.8829V44.6678C0 44.8705 0.00779817 45.0733 0.0311927 45.2838C0.179358 46.7967 0.93578 48.1848 2.1445 49.1985C3.31422 50.1733 4.79587 50.7036 6.32431 50.7036H44.9564C48.2862 50.7036 51 47.9976 51 44.66V16.8829C51 13.5531 48.2862 10.8394 44.9564 10.8394ZM41.0729 16.8829C41.0729 15.8458 41.4784 14.871 42.2115 14.138C42.9445 13.405 43.9193 12.9994 44.9564 12.9994C47.1009 12.9994 48.8399 14.7384 48.8399 16.8829V40.0201C48.1771 39.4664 47.3972 39.0531 46.5472 38.8348C44.6757 38.3513 42.7495 38.7334 41.2601 39.8953C41.1977 39.9421 41.1353 39.9967 41.0729 40.0435V16.8829ZM3.29862 14.138C4.03165 13.405 5.00642 12.9994 6.04358 12.9994C8.18807 12.9994 9.92706 14.7384 9.92706 16.8829V40.0435C8.87431 39.1623 7.51743 38.6242 6.04358 38.6242C4.56972 38.6242 3.21284 39.1545 2.16009 40.0435V16.8829C2.16009 15.8458 2.5656 14.871 3.29862 14.138ZM2.18349 45.0733C2.16789 44.9329 2.16009 44.7926 2.16009 44.6678C2.16009 42.5233 3.89908 40.7843 6.04358 40.7843C8.18807 40.7843 9.92706 42.5233 9.92706 44.6678C9.92706 45.2605 10.4106 45.7439 11.0032 45.7439C11.5959 45.7439 12.0794 45.2605 12.0794 44.6678V28.3306L21.944 37.7196L10.5665 48.5513H6.31651C4.18761 48.5513 2.36284 47.0228 2.16789 45.0733H2.18349ZM24.2679 38.4994C24.4784 38.2967 24.6032 38.016 24.6032 37.7196C24.6032 37.4233 24.4784 37.1426 24.2679 36.9398L12.095 25.3517V20.938H12.9683C14.5904 22.482 22.1156 29.6407 25.1647 32.5494C25.3674 32.7366 25.6326 32.8458 25.9055 32.8458H38.9206V36.6435H31.4656C31.1771 36.6435 30.9041 36.7605 30.7014 36.9632L19.1055 48.5513H13.717L24.2679 38.5072V38.4994ZM44.9642 48.5435H22.1546L31.9101 38.7958H38.9206V44.66C38.9206 45.2527 39.4041 45.7361 39.9968 45.7361C40.5895 45.7361 41.0729 45.2527 41.0729 44.66C41.0729 43.4513 41.6188 42.3283 42.578 41.5875C43.5372 40.8467 44.7849 40.5972 46.0092 40.9169C47.3115 41.2522 48.372 42.3127 48.7073 43.6072C48.8009 43.9582 48.8399 44.3091 48.8399 44.66C48.8399 46.8045 47.1009 48.5435 44.9564 48.5435H44.9642Z" fill="black"/>
</g>
<defs>
<clipPath id="clip0_28_2753">
<rect width="51" height="50.7037" fill="white"/>
</clipPath>
</defs>
</svg>
