<svg width="21" height="25" viewBox="0 0 21 25" fill="none" xmlns="http://www.w3.org/2000/svg">
<path d="M10.007 5.4248C7.47944 5.4248 5.41992 7.4794 5.41992 10.007C5.41992 12.5346 7.47451 14.5892 10.007 14.5892C12.5396 14.5892 14.5941 12.5346 14.5941 10.007C14.5941 7.4794 12.5346 5.4248 10.007 5.4248ZM10.007 12.8204C8.45993 12.8204 7.1986 11.559 7.1986 10.0119C7.1986 8.46481 8.45993 7.20348 10.007 7.20348C11.5541 7.20348 12.8155 8.46481 12.8155 10.0119C12.8155 11.559 11.5591 12.8204 10.007 12.8204Z" fill="#ED6A8A"/>
<path d="M10.0069 0C4.48857 0 0 4.48857 0 10.0069V10.2877C0 13.0814 1.60623 16.3431 4.77927 19.9842C7.08021 22.6251 9.35652 24.4728 9.45014 24.5516L10.0069 25L10.5637 24.5516C10.6573 24.4728 12.9336 22.6301 15.2345 19.9842C18.4076 16.3431 20.0138 13.0814 20.0138 10.2877V10.0069C20.0187 4.4935 15.5252 0 10.0069 0ZM18.24 10.2877C18.24 12.3522 17.1167 14.8157 14.8995 17.6192C13.1257 19.8611 11.1106 21.7284 10.0709 22.6399L10.0069 22.6991L9.94285 22.6399C8.90323 21.7284 6.88806 19.8611 5.11431 17.6143C2.89712 14.8157 1.77375 12.3473 1.77375 10.2828V10.002C1.77375 5.46413 5.46413 1.76882 10.0069 1.76882C14.5497 1.76882 18.24 5.46413 18.24 10.002V10.2877Z" fill="#ED6A8A"/>
</svg>
