<svg width="23" height="23" viewBox="0 0 23 23" fill="none" xmlns="http://www.w3.org/2000/svg">
<path d="M11.5 23C17.8528 23 23 17.8528 23 11.5C23 5.1472 17.8528 0 11.5 0C5.1472 0 0 5.1472 0 11.5C0.00492084 17.8479 5.15212 22.9951 11.5 23ZM11.5 1.5353C17.0064 1.5353 21.4647 5.9985 21.4647 11.5C21.4647 17.0015 17.0015 21.4647 11.5 21.4647C5.9985 21.4647 1.5353 17.0015 1.5353 11.5C1.54022 5.9985 5.9985 1.54022 11.5 1.5353Z" fill="#ED6A8A"/>
<path d="M11.5001 12.2673H16.1011C16.5242 12.2673 16.8687 11.9228 16.8687 11.4996C16.8687 11.0764 16.5242 10.732 16.1011 10.732H12.2677V5.36824C12.2677 4.94504 11.9233 4.60059 11.5001 4.60059C11.0769 4.60059 10.7324 4.94504 10.7324 5.36824V11.4996C10.7324 11.9228 11.0769 12.2673 11.5001 12.2673Z" fill="#ED6A8A"/>
</svg>
