<svg width="56" height="54" viewBox="0 0 56 54" fill="none" xmlns="http://www.w3.org/2000/svg">
<path d="M51.8341 10.251H50.4341C50.639 10.0646 50.8098 9.87825 50.9805 9.67493C51.7488 8.67524 51.9366 7.45529 51.561 6.15061C51.5439 6.08284 49.6317 0.0338877 46.0634 0C42.222 0 37.7488 3.91403 34.2829 7.31974L33.9756 7.62472L33.6683 7.31974C30.2024 3.91403 25.7293 0 21.939 0C18.3024 0.0338877 16.4073 6.09978 16.3732 6.15061C15.9805 7.45529 16.1854 8.67524 16.9537 9.67493C17.1073 9.87825 17.2951 10.0816 17.5 10.251H16.1C13.7951 10.251 11.9341 12.1148 11.9341 14.3853V32.8541H1.19512C0.529268 32.8541 0 33.3793 0 34.0402C0 34.701 0.529268 35.2262 1.19512 35.2262H11.9341V39.1741H5.68537C5.01951 39.1741 4.49024 39.6994 4.49024 40.3602C4.49024 41.021 5.01951 41.5463 5.68537 41.5463H11.9341V49.8657C11.9341 52.1531 13.7951 54 16.1 54H51.8341C54.139 54 56 52.1362 56 49.8657V14.4023C56.0171 12.1318 54.139 10.268 51.8341 10.251ZM45.9951 2.55852C46.9854 2.57546 48.5049 4.9476 49.0854 6.89614C49.2902 7.55695 49.1024 7.91277 48.9317 8.14998C47.8049 9.64104 43.4683 10.2171 40.822 10.251V10.268H34.9659L36.0415 9.16661C40.6 4.71039 43.8439 2.55852 45.9951 2.55852ZM38.739 12.6232V28.0082H29.2122V12.6232H38.739ZM27.1122 10.2341C24.4829 10.2002 20.1463 9.6241 19.0195 8.13304C18.8317 7.89583 18.661 7.54001 18.8488 6.8792C19.4293 4.9476 20.9488 2.55852 21.9049 2.54157C24.0902 2.54157 27.3341 4.71039 31.8927 9.16661L32.9683 10.251L27.1122 10.2341ZM53.6268 49.8657C53.6268 50.8484 52.8244 51.6448 51.8341 51.6448H16.1C15.1098 51.6448 14.3073 50.8484 14.3073 49.8657V41.5463H25.2171C25.8829 41.5463 26.4122 41.021 26.4122 40.3602C26.4122 39.6994 25.8829 39.1741 25.2171 39.1741H14.3073V35.2262H20.7439C21.4098 35.2262 21.939 34.701 21.939 34.0402C21.939 33.3793 21.4098 32.8541 20.7439 32.8541H14.3073V14.3853C14.3073 13.4026 15.1098 12.6062 16.1 12.6062H24.3122C25.3366 12.7248 26.2244 12.7587 26.822 12.7757V27.6862C26.822 29.1434 28.0171 30.3464 29.5024 30.3464H38.4317C39.9 30.3464 41.1122 29.1603 41.1122 27.6862V12.7757C41.6927 12.7587 42.5634 12.7248 43.5537 12.6232H51.8512C52.8415 12.6232 53.6439 13.4195 53.6439 14.4023V49.8657H53.6268Z" fill="black"/>
<path d="M48.8627 42.7832H39.9334C39.2675 42.7832 38.7383 43.3085 38.7383 43.9693C38.7383 44.6301 39.2675 45.1553 39.9334 45.1553H48.8627C49.5285 45.1553 50.0578 44.6301 50.0578 43.9693C50.0578 43.3085 49.5285 42.7832 48.8627 42.7832Z" fill="black"/>
</svg>
