<svg width="70" height="72" viewBox="0 0 70 72" fill="none" xmlns="http://www.w3.org/2000/svg">
<g clip-path="url(#clip0_267_1697)">
<path d="M68.459 64.454H65.7049C65.8852 64.0403 65.9836 63.5935 65.9836 63.1136V46.9463C65.9836 45.1426 64.5246 43.6698 62.7377 43.6698H36.9672C36.082 43.6698 35.2787 44.0339 34.7049 44.6131C34.1148 44.0339 33.3279 43.6864 32.4426 43.6698H31.3607C31.4426 43.4216 31.4918 43.1568 31.4918 42.8755V28.1313C31.4918 26.7248 30.3607 25.583 28.9508 25.5664H10.1311C8.7377 25.5664 7.59016 26.7082 7.59016 28.1313V42.8755C7.59016 43.1568 7.63934 43.4216 7.72131 43.6698H6.63934C4.85246 43.6698 3.39344 45.1426 3.39344 46.9463V63.1136C3.39344 63.5935 3.4918 64.0403 3.67213 64.454H1.54098C0.688525 64.454 0 65.149 0 66.0095V70.4444C0 71.3049 0.688525 71.9999 1.54098 71.9999H68.459C69.3115 71.9999 70 71.3049 70 70.4444V66.0095C70 65.149 69.3115 64.454 68.459 64.454ZM17.0656 32.2187H22.0164C22.9508 32.2187 23.7213 31.4409 23.7213 30.4977V27.3536H28.9344C29.3607 27.3536 29.7049 27.7011 29.7049 28.1313V42.8755C29.7049 43.3058 29.3607 43.6533 28.9344 43.6533H10.1311C9.70492 43.6533 9.36066 43.3058 9.36066 42.8755V28.1313C9.36066 27.7011 9.70492 27.3536 10.1311 27.3536H15.3443V30.4977C15.3607 31.4409 16.1148 32.2187 17.0656 32.2187ZM17.1148 30.448V27.3536H21.9672V30.448H17.1148ZM2.2623 69.7328V66.7376H67.7541V69.7328H2.2623ZM46.4426 52.3409H53.2295C54.3934 52.3409 55.3443 51.3812 55.3443 50.2063V45.6721H62.7213C63.4262 45.6721 64 46.2513 64 46.9629V63.1302C64 63.8417 63.4262 64.4209 62.7213 64.4209H36.9508C36.2459 64.4209 35.6721 63.8417 35.6721 63.1302V46.9629C35.6721 46.2513 36.2459 45.6721 36.9508 45.6721H44.3279V50.2063C44.3279 51.3812 45.2787 52.3409 46.4426 52.3409ZM16.1475 52.3409H22.9344C24.0984 52.3409 25.0492 51.3812 25.0492 50.2063V45.6721H32.4262C33.1311 45.6721 33.7049 46.2513 33.7049 46.9629V63.1302C33.7049 63.8417 33.1311 64.4209 32.4262 64.4209H6.65574C5.95082 64.4209 5.37705 63.8417 5.37705 63.1302V46.9629C5.37705 46.2513 5.95082 45.6721 6.65574 45.6721H14.0328V50.2063C14.0328 51.3812 14.9672 52.3409 16.1475 52.3409ZM16 50.3552V45.6721H23.082V50.3552H16ZM46.3115 50.3552V45.6721H53.3934V50.3552H46.3115Z" fill="black"/>
<path d="M59.5407 19.0137H48.5735C48.0325 19.0137 47.5898 19.4605 47.5898 20.0065C47.5898 20.5526 48.0325 20.9994 48.5735 20.9994H59.5407C60.0817 20.9994 60.5243 20.5526 60.5243 20.0065C60.5243 19.4605 60.0817 19.0137 59.5407 19.0137Z" fill="black"/>
<path d="M59.5407 24.3257H48.5735C48.0325 24.3257 47.5898 24.7725 47.5898 25.3186C47.5898 25.8646 48.0325 26.3114 48.5735 26.3114H59.5407C60.0817 26.3114 60.5243 25.8646 60.5243 25.3186C60.5243 24.7725 60.0817 24.3257 59.5407 24.3257Z" fill="black"/>
<path d="M55.8194 29.6206H48.5735C48.0325 29.6206 47.5898 30.0674 47.5898 30.6135C47.5898 31.1596 48.0325 31.6064 48.5735 31.6064H55.8194C56.3603 31.6064 56.803 31.1596 56.803 30.6135C56.803 30.0674 56.3603 29.6206 55.8194 29.6206Z" fill="black"/>
<path d="M41.0163 18.2524L41.1311 18.2855V37.5969C41.1311 38.3415 41.7212 38.9373 42.459 38.9373H65.6721C66.4098 38.9373 66.9999 38.3415 66.9999 37.5969V7.72788C66.9999 6.98322 66.4098 6.3875 65.6721 6.3875H51.7868L51.754 6.28821C50.4917 2.53183 46.9999 0 43.0819 0C38.0327 0 33.918 4.15353 33.918 9.25029C33.918 13.5693 36.836 17.276 41.0163 18.2524ZM51.1639 13.5693C51.8688 12.2455 52.2294 10.7561 52.2294 9.25029C52.2294 8.96897 52.213 8.67111 52.1803 8.37325L52.1639 8.22432H65.1639V37.117H42.918V18.5006H43.0655C45.5737 18.5006 47.918 17.4911 49.6721 15.6709L49.7049 15.6212H59.5081C59.9999 15.6212 60.4098 15.2075 60.4098 14.7111C60.4098 14.2147 59.9999 13.801 59.5081 13.801H51.0327L51.1639 13.5693ZM43.0819 1.83682C47.1311 1.83682 50.4262 5.16295 50.4262 9.25029C50.4262 13.3376 47.1311 16.6638 43.0819 16.6638C39.0327 16.6638 35.7376 13.3376 35.7376 9.25029C35.7376 5.16295 39.0327 1.83682 43.0819 1.83682Z" fill="black"/>
<path d="M41.8533 12.3116C42.0337 12.4936 42.2959 12.6094 42.5582 12.6094C42.8205 12.6094 43.0664 12.5102 43.2632 12.3116L47.5091 8.02567C47.6894 7.84364 47.8041 7.57888 47.8041 7.31411C47.8041 7.04934 47.7058 6.80113 47.5091 6.60255C47.1156 6.2054 46.4927 6.2054 46.1156 6.60255L42.5582 10.1934L40.05 7.66162C39.8697 7.47959 39.6238 7.36375 39.3451 7.36375C39.0828 7.36375 38.8369 7.46304 38.6402 7.66162C38.2632 8.05877 38.2632 8.68759 38.6402 9.06819L41.8533 12.3116Z" fill="black"/>
<path d="M23.3766 59.5561H30.1635C30.7045 59.5561 31.1471 59.1093 31.1471 58.5632C31.1471 58.0171 30.7045 57.5703 30.1635 57.5703H23.3766C22.8356 57.5703 22.393 58.0171 22.393 58.5632C22.3766 59.1093 22.8192 59.5561 23.3766 59.5561Z" fill="black"/>
<path d="M22.3286 40.4429H27.2794C27.7712 40.4429 28.1647 40.0458 28.1647 39.5493C28.1647 39.0529 27.7712 38.6558 27.2794 38.6558H22.3286C21.8368 38.6558 21.4434 39.0529 21.4434 39.5493C21.4598 40.0292 21.8532 40.4429 22.3286 40.4429Z" fill="black"/>
<path d="M53.6731 59.5561H60.4599C61.0009 59.5561 61.4436 59.1093 61.4436 58.5632C61.4436 58.0171 61.0009 57.5703 60.4599 57.5703H53.6731C53.1321 57.5703 52.6895 58.0171 52.6895 58.5632C52.6895 59.1093 53.1321 59.5561 53.6731 59.5561Z" fill="black"/>
</g>
<defs>
<clipPath id="clip0_267_1697">
<rect width="70" height="72" fill="white"/>
</clipPath>
</defs>
</svg>
