<svg width="73" height="72" viewBox="0 0 73 72" fill="none" xmlns="http://www.w3.org/2000/svg">
<path d="M4.93212 31.5418C5.19186 31.9802 5.74381 32.11 6.18213 31.8503L11.0685 28.912C11.6042 28.5873 11.7828 27.8892 11.4581 27.3535C11.1334 26.8178 10.4354 26.6392 9.89966 26.9639L7.8055 28.2302C11.0198 15.162 22.7731 5.8113 36.4094 5.8113C39.0231 5.8113 41.588 6.15221 44.088 6.8178C44.6724 6.98014 45.2893 6.65546 45.4679 6.05481C45.6627 5.43793 45.3055 4.78858 44.6887 4.62624C41.9938 3.89572 39.2179 3.53857 36.4094 3.53857C21.588 3.53857 8.82823 13.7821 5.51654 28.0841L3.9581 25.4704C3.63342 24.9347 2.93537 24.7561 2.39965 25.0808C1.86394 25.4055 1.68537 26.1035 2.01004 26.6392L4.93212 31.5418Z" fill="black"/>
<path d="M70.0139 24.6745L65.1275 21.7362C64.6892 21.4765 64.1373 21.6226 63.8775 22.0447L60.9392 26.931C60.6146 27.4668 60.7931 28.1648 61.3288 28.4895C61.8646 28.8142 62.5626 28.6356 62.8873 28.0999L64.2834 25.7622C65.3224 28.8142 65.8581 32.0122 65.8581 35.2914C65.8581 41.6713 63.7639 47.9051 59.9652 52.9863C59.5918 53.4733 59.673 54.1713 60.1438 54.5609C60.647 54.9668 61.3775 54.8856 61.7509 54.3661C65.8581 48.8953 68.1146 42.1746 68.1146 35.2914C68.1146 31.8174 67.5626 28.4408 66.4587 25.194L68.8126 26.6064C69.3483 26.931 70.0464 26.7525 70.3711 26.2168C70.7282 25.6973 70.5496 24.9992 70.0139 24.6745Z" fill="black"/>
<path d="M69.9483 0H53.2762C51.6528 0 50.3379 1.31494 50.3379 2.93831V13.6364C50.3379 15.2598 51.6528 16.5747 53.2762 16.5747H54.9321C55.3541 16.5747 55.7437 16.7857 55.9872 17.1266L58.3736 20.5682C58.5522 20.8279 58.8606 20.9903 59.1691 20.9903C59.4775 20.9903 59.786 20.8279 59.9645 20.5682L62.3509 17.1266C62.5944 16.7857 62.984 16.5747 63.4061 16.5747H69.9321C71.5554 16.5747 72.8704 15.2598 72.8704 13.6364V2.93831C72.8866 1.31494 71.5717 0 69.9483 0ZM70.9386 13.6364C70.9386 14.1883 70.484 14.6266 69.9483 14.6266H63.4223C62.3671 14.6266 61.3769 15.1461 60.76 16.0065L59.1691 18.2955L57.5782 16.0065C56.9775 15.1299 55.9872 14.6266 54.9158 14.6266H53.26C52.708 14.6266 52.2697 14.1721 52.2697 13.6364V2.93831C52.2697 2.38637 52.7243 1.94805 53.26 1.94805H69.9321C70.484 1.94805 70.9223 2.4026 70.9223 2.93831L70.9386 13.6364Z" fill="black"/>
<path d="M64.1039 9.64355H55.4838C54.9481 9.64355 54.5098 10.0819 54.5098 10.6176C54.5098 11.1533 54.9481 11.5916 55.4838 11.5916H64.1039C64.6396 11.5916 65.078 11.1533 65.078 10.6176C65.078 10.0819 64.6396 9.64355 64.1039 9.64355Z" fill="black"/>
<path d="M67.3507 4.64355H55.4838C54.9481 4.64355 54.5098 5.08187 54.5098 5.61758C54.5098 6.1533 54.9481 6.59161 55.4838 6.59161H67.3507C67.8864 6.59161 68.3247 6.1533 68.3247 5.61758C68.3247 5.08187 67.8864 4.64355 67.3507 4.64355Z" fill="black"/>
<path d="M55.7437 53.5074C54.8346 50.7639 52.4807 48.7347 49.6398 48.2152L45.0132 47.371L42.0586 46.8353V46.2509C43.3736 45.4879 44.5262 44.4652 45.4352 43.2477H47.7242C49.6073 43.2477 51.1333 41.7217 51.1333 39.8386V26.4132C51.1333 18.2963 44.656 11.5593 36.5391 11.4944C28.3411 11.4132 21.6528 18.0528 21.6528 26.2347V34.173C21.6528 36.3645 23.2112 38.1827 25.2729 38.621C25.906 41.884 27.9515 44.6438 30.7274 46.2509V46.8353L25.0294 47.8743L23.1463 48.2152C20.2891 48.7347 17.9515 50.7639 17.0424 53.5074L15.7599 57.3548C14.5424 56.1697 13.3735 54.9197 12.2534 53.6373C11.6852 52.9879 11.7502 51.9814 12.4157 51.4133L13.1787 50.7801C14.7209 49.4814 14.9482 47.1925 13.6982 45.6178L9.86703 40.8451C8.53586 39.2379 6.16573 39.0269 4.57482 40.3418C4.42872 40.4717 4.28261 40.6178 4.15274 40.7639L2.10729 43.1827C-1.72388 47.8256 0.159234 53.0529 3.8443 57.1113C7.85405 62.1762 12.5618 66.6568 17.8541 70.3743C21.2144 72.6957 25.695 72.5172 28.8606 69.936L31.2632 67.8905C32.8216 66.4944 32.9677 64.1081 31.5716 62.5334C31.458 62.4035 31.3281 62.2736 31.182 62.16L30.208 61.3808H56.5067C57.432 61.3808 58.0814 60.4717 57.7892 59.5951L55.7437 53.5074ZM48.8606 39.8386C48.8606 40.4555 48.3573 40.9749 47.7242 40.9749H46.7664C47.0911 40.2282 47.3508 39.4327 47.4969 38.621C47.984 38.5236 48.4223 38.3288 48.8443 38.0853L48.8606 39.8386ZM47.7242 36.121V32.2087C48.406 32.5983 48.8606 33.3288 48.8606 34.1567C48.8606 34.9847 48.406 35.7314 47.7242 36.121ZM25.0619 36.121C24.3963 35.7314 23.9255 35.0009 23.9255 34.173C23.9255 33.3451 24.38 32.6145 25.0619 32.2249V36.121ZM25.8248 28.5074C25.4028 28.5074 25.0619 28.8483 25.0619 29.2704V29.7899C24.656 29.9035 24.2826 30.0496 23.9255 30.2606V26.3808C23.9255 19.5139 29.4125 13.8158 36.2794 13.7509C43.2112 13.6859 48.8768 19.3028 48.8768 26.2184V30.2444C48.5197 30.0334 48.1463 29.8873 47.7404 29.7736V29.2541C47.7404 28.8321 47.3995 28.4912 46.9775 28.4912H46.6203C43.2762 28.4912 40.1106 27.1762 37.7404 24.8061L36.9125 23.9782C36.6365 23.7022 36.1982 23.7022 35.9223 23.9782L35.0943 24.8061C32.7242 27.1762 29.5748 28.4912 26.2145 28.4912L25.8248 28.5074ZM27.3183 36.2834V30.7152C30.7274 30.4554 33.893 29.0593 36.393 26.6892C38.8768 29.0593 42.0586 30.4554 45.4677 30.7152V36.4295C45.4677 38.0853 45.0132 39.6275 44.2502 40.9587H37.5456C36.9125 40.9587 36.4093 41.4619 36.4093 42.0951C36.4093 42.7282 36.9125 43.2314 37.5456 43.2314H42.3995C40.7437 44.6925 38.5521 45.5691 36.1658 45.4879C31.1982 45.3581 27.3183 41.2184 27.3183 36.2834ZM39.8021 47.2574V47.3061L36.4093 50.699L33.0002 47.3061V47.2574C34.0716 47.5983 35.208 47.7769 36.4093 47.7769C37.6106 47.7769 38.7145 47.5983 39.8021 47.2574ZM29.8184 63.8646C30.4839 64.4165 30.5813 65.3905 30.0294 66.0561C29.9807 66.1211 29.9158 66.186 29.8508 66.2347L27.432 68.2801C25.0456 70.2769 21.6041 70.4068 19.0716 68.6048C13.0002 64.3191 7.70794 59.0269 3.40599 52.9392C1.60404 50.4068 1.73391 46.9652 3.73067 44.5788L5.77612 42.16C6.34431 41.5106 7.33457 41.4457 7.98392 42.0139C8.04885 42.0626 8.09755 42.1275 8.16249 42.1925L11.9774 46.9652C12.4969 47.6145 12.3995 48.5723 11.7664 49.1081L11.0034 49.7412C9.44496 51.1048 9.26638 53.4749 10.5976 55.0659C11.9937 56.6568 13.4547 58.1827 14.9969 59.6275C15.63 60.2282 16.2631 60.7964 16.9125 61.3808C16.9233 61.3916 16.9341 61.4024 16.945 61.4133C18.3898 62.6633 20.5002 62.6146 21.8963 61.3808C22.0261 61.2672 22.1398 61.1535 22.2534 61.0236C22.2534 61.0236 22.2534 61.0074 22.2696 61.0074L22.9028 60.2444C23.4385 59.6113 24.3963 59.5139 25.0456 60.0334L26.7339 61.3808L29.8184 63.8646ZM27.3671 59.1081L26.393 58.3288C24.5424 56.9003 22.3508 57.4685 20.9709 59.1081C20.8411 59.2704 20.7112 59.4327 20.5976 59.6113C20.0294 60.2607 19.0391 60.3418 18.3898 59.7737H18.3735C18.13 59.5626 17.8703 59.3353 17.6268 59.1081C17.6105 59.0918 17.5943 59.0756 17.5618 59.0594L19.169 54.2217C19.8183 52.2574 21.4904 50.8126 23.5359 50.4392L27.7567 49.6762L31.458 49.0107L35.8249 53.3775C36.1333 53.686 36.6203 53.686 36.9125 53.3775L41.2794 49.0107L44.9807 49.6762L49.2015 50.4392C51.2469 50.8126 52.919 52.2574 53.5684 54.2217L55.1918 59.1081H27.3671Z" fill="black"/>
</svg>
