<svg width="62" height="68" viewBox="0 0 62 68" fill="none" xmlns="http://www.w3.org/2000/svg">
<path d="M7.6425 38.673C6.29573 38.673 5.20858 39.7526 5.20858 41.09C5.20858 42.4275 6.29573 43.5071 7.6425 43.5071C8.98927 43.5071 10.0764 42.4275 10.0764 41.09C10.0764 39.7526 8.98927 38.673 7.6425 38.673ZM33.2798 55.963L22.9113 39.2209C22.8139 39.0758 22.7003 38.9469 22.5381 38.8664C22.2785 38.7052 21.9702 38.6569 21.6781 38.7213C21.386 38.7858 21.1264 38.963 20.9804 39.2209L16.8265 45.8919L15.1227 43.0882C15.0254 42.927 14.8956 42.782 14.7333 42.6853C14.5548 42.5725 14.3601 42.5242 14.1492 42.5242C13.7597 42.5242 13.3865 42.7175 13.1756 43.072L5.38707 55.963C5.28971 56.1403 5.22481 56.3336 5.22481 56.5431C5.22481 56.8493 5.33839 57.1232 5.56556 57.3488C5.7765 57.5583 6.06857 57.6711 6.36064 57.6711H32.3224C32.7281 57.655 33.0851 57.4294 33.2798 57.091C33.4745 56.7526 33.4745 56.3175 33.2798 55.963ZM8.35645 55.4313L14.279 45.8597L15.9665 48.6635C15.999 48.7118 16.0476 48.7763 16.1125 48.8246L16.1288 48.8408C16.1612 48.8891 16.2099 48.9374 16.2586 48.9697H16.3884L16.4371 49.0019C16.502 49.0341 16.5669 49.0502 16.6318 49.0664H16.8752C16.9401 49.0825 17.005 49.0825 17.0699 49.0664L17.4431 48.9374C17.4918 48.9052 17.5404 48.8569 17.5891 48.8085L17.6053 48.7924C17.654 48.7441 17.7027 48.6957 17.7351 48.6313L21.9053 41.9602L30.2617 55.4313H8.35645ZM7.6425 38.673C6.29573 38.673 5.20858 39.7526 5.20858 41.09C5.20858 42.4275 6.29573 43.5071 7.6425 43.5071C8.98927 43.5071 10.0764 42.4275 10.0764 41.09C10.0764 39.7526 8.98927 38.673 7.6425 38.673ZM29.061 11.6019C28.0712 11.6019 27.2761 12.3915 27.2761 13.3744C27.2761 14.3573 28.0712 15.1469 29.061 15.1469C30.0508 15.1469 30.8459 14.3573 30.8459 13.3744C30.8459 12.3915 30.0508 11.6019 29.061 11.6019ZM33.2798 55.963L22.9113 39.2209C22.8139 39.0758 22.7003 38.9469 22.5381 38.8664C22.2785 38.7052 21.9702 38.6569 21.6781 38.7213C21.386 38.7858 21.1264 38.963 20.9804 39.2209L16.8265 45.8919L15.1227 43.0882C15.0254 42.927 14.8956 42.782 14.7333 42.6853C14.5548 42.5725 14.3601 42.5242 14.1492 42.5242C13.7597 42.5242 13.3865 42.7175 13.1756 43.072L5.38707 55.963C5.28971 56.1403 5.22481 56.3336 5.22481 56.5431C5.22481 56.8493 5.33839 57.1232 5.56556 57.3488C5.7765 57.5583 6.06857 57.6711 6.36064 57.6711H32.3224C32.7281 57.655 33.0851 57.4294 33.2798 57.091C33.4745 56.7526 33.4745 56.3175 33.2798 55.963ZM8.35645 55.4313L14.279 45.8597L15.9665 48.6635C15.999 48.7118 16.0476 48.7763 16.1125 48.8246L16.1288 48.8408C16.1612 48.8891 16.2099 48.9374 16.2586 48.9697H16.3884L16.4371 49.0019C16.502 49.0341 16.5669 49.0502 16.6318 49.0664H16.8752C16.9401 49.0825 17.005 49.0825 17.0699 49.0664L17.4431 48.9374C17.4918 48.9052 17.5404 48.8569 17.5891 48.8085L17.6053 48.7924C17.654 48.7441 17.7027 48.6957 17.7351 48.6313L21.9053 41.9602L30.2617 55.4313H8.35645ZM47.5588 23.7355L40.3057 12.1659C40.2083 12.0209 40.0947 11.8919 39.9325 11.7953C39.397 11.473 38.6993 11.6341 38.3748 12.1659L35.7624 16.3393L34.8537 14.8246C34.7563 14.6796 34.6428 14.5507 34.4805 14.454C34.302 14.3412 34.0911 14.2929 33.8801 14.2929C33.799 14.2929 33.7016 14.309 33.6205 14.3251C33.3284 14.3896 33.0688 14.5668 32.9228 14.8246L27.4708 23.7355C27.3572 23.9128 27.3086 24.1062 27.3086 24.3156C27.3086 24.9441 27.8116 25.4436 28.4444 25.4436H46.6176C46.8286 25.4436 47.0395 25.3791 47.218 25.2664C47.4776 25.1052 47.6561 24.8635 47.721 24.5573C47.7697 24.2834 47.721 23.9773 47.5588 23.7355ZM30.5376 23.1393L33.9613 17.4995L34.8537 19.0142C34.9024 19.0626 34.9511 19.127 35.016 19.1754L35.0322 19.2076C35.0646 19.2559 35.1133 19.3043 35.162 19.3365C35.2107 19.3526 35.2594 19.3687 35.308 19.3848L35.3405 19.4009C35.4054 19.4332 35.4865 19.4654 35.5514 19.4815C35.6163 19.4976 35.6812 19.4976 35.7461 19.4815H35.9733L36.2329 19.3687H36.379C36.4276 19.3365 36.4601 19.3043 36.4925 19.2559L36.5088 19.2398C36.5737 19.1915 36.6223 19.127 36.671 19.0626L39.2834 14.8569L44.492 23.1393H30.5376ZM47.5588 23.7355L40.3057 12.1659C40.2083 12.0209 40.0947 11.8919 39.9325 11.7953C39.397 11.473 38.6993 11.6341 38.3748 12.1659L35.7624 16.3393L34.8537 14.8246C34.7563 14.6796 34.6428 14.5507 34.4805 14.454C34.302 14.3412 34.0911 14.2929 33.8801 14.2929C33.799 14.2929 33.7016 14.309 33.6205 14.3251C33.3284 14.3896 33.0688 14.5668 32.9228 14.8246L27.4708 23.7355C27.3572 23.9128 27.3086 24.1062 27.3086 24.3156C27.3086 24.9441 27.8116 25.4436 28.4444 25.4436H46.6176C46.8286 25.4436 47.0395 25.3791 47.218 25.2664C47.4776 25.1052 47.6561 24.8635 47.721 24.5573C47.7697 24.2834 47.721 23.9773 47.5588 23.7355ZM30.5376 23.1393L33.9613 17.4995L34.8537 19.0142C34.9024 19.0626 34.9511 19.127 35.016 19.1754L35.0322 19.2076C35.0646 19.2559 35.1133 19.3043 35.162 19.3365C35.2107 19.3526 35.2594 19.3687 35.308 19.3848L35.3405 19.4009C35.4054 19.4332 35.4865 19.4654 35.5514 19.4815C35.6163 19.4976 35.6812 19.4976 35.7461 19.4815H35.9733L36.2329 19.3687H36.379C36.4276 19.3365 36.4601 19.3043 36.4925 19.2559L36.5088 19.2398C36.5737 19.1915 36.6223 19.127 36.671 19.0626L39.2834 14.8569L44.492 23.1393H30.5376ZM29.061 11.6019C28.0712 11.6019 27.2761 12.3915 27.2761 13.3744C27.2761 14.3573 28.0712 15.1469 29.061 15.1469C30.0508 15.1469 30.8459 14.3573 30.8459 13.3744C30.8459 12.3915 30.0508 11.6019 29.061 11.6019ZM33.2798 55.963L22.9113 39.2209C22.8139 39.0758 22.7003 38.9469 22.5381 38.8664C22.2785 38.7052 21.9702 38.6569 21.6781 38.7213C21.386 38.7858 21.1264 38.963 20.9804 39.2209L16.8265 45.8919L15.1227 43.0882C15.0254 42.927 14.8956 42.782 14.7333 42.6853C14.5548 42.5725 14.3601 42.5242 14.1492 42.5242C13.7597 42.5242 13.3865 42.7175 13.1756 43.072L5.38707 55.963C5.28971 56.1403 5.22481 56.3336 5.22481 56.5431C5.22481 56.8493 5.33839 57.1232 5.56556 57.3488C5.7765 57.5583 6.06857 57.6711 6.36064 57.6711H32.3224C32.7281 57.655 33.0851 57.4294 33.2798 57.091C33.4745 56.7526 33.4745 56.3175 33.2798 55.963ZM8.35645 55.4313L14.279 45.8597L15.9665 48.6635C15.999 48.7118 16.0476 48.7763 16.1125 48.8246L16.1288 48.8408C16.1612 48.8891 16.2099 48.9374 16.2586 48.9697H16.3884L16.4371 49.0019C16.502 49.0341 16.5669 49.0502 16.6318 49.0664H16.8752C16.9401 49.0825 17.005 49.0825 17.0699 49.0664L17.4431 48.9374C17.4918 48.9052 17.5404 48.8569 17.5891 48.8085L17.6053 48.7924C17.654 48.7441 17.7027 48.6957 17.7351 48.6313L21.9053 41.9602L30.2617 55.4313H8.35645ZM7.6425 38.673C6.29573 38.673 5.20858 39.7526 5.20858 41.09C5.20858 42.4275 6.29573 43.5071 7.6425 43.5071C8.98927 43.5071 10.0764 42.4275 10.0764 41.09C10.0764 39.7526 8.98927 38.673 7.6425 38.673ZM7.6425 38.673C6.29573 38.673 5.20858 39.7526 5.20858 41.09C5.20858 42.4275 6.29573 43.5071 7.6425 43.5071C8.98927 43.5071 10.0764 42.4275 10.0764 41.09C10.0764 39.7526 8.98927 38.673 7.6425 38.673ZM29.061 11.6019C28.0712 11.6019 27.2761 12.3915 27.2761 13.3744C27.2761 14.3573 28.0712 15.1469 29.061 15.1469C30.0508 15.1469 30.8459 14.3573 30.8459 13.3744C30.8459 12.3915 30.0508 11.6019 29.061 11.6019ZM33.2798 55.963L22.9113 39.2209C22.8139 39.0758 22.7003 38.9469 22.5381 38.8664C22.2785 38.7052 21.9702 38.6569 21.6781 38.7213C21.386 38.7858 21.1264 38.963 20.9804 39.2209L16.8265 45.8919L15.1227 43.0882C15.0254 42.927 14.8956 42.782 14.7333 42.6853C14.5548 42.5725 14.3601 42.5242 14.1492 42.5242C13.7597 42.5242 13.3865 42.7175 13.1756 43.072L5.38707 55.963C5.28971 56.1403 5.22481 56.3336 5.22481 56.5431C5.22481 56.8493 5.33839 57.1232 5.56556 57.3488C5.7765 57.5583 6.06857 57.6711 6.36064 57.6711H32.3224C32.7281 57.655 33.0851 57.4294 33.2798 57.091C33.4745 56.7526 33.4745 56.3175 33.2798 55.963ZM8.35645 55.4313L14.279 45.8597L15.9665 48.6635C15.999 48.7118 16.0476 48.7763 16.1125 48.8246L16.1288 48.8408C16.1612 48.8891 16.2099 48.9374 16.2586 48.9697H16.3884L16.4371 49.0019C16.502 49.0341 16.5669 49.0502 16.6318 49.0664H16.8752C16.9401 49.0825 17.005 49.0825 17.0699 49.0664L17.4431 48.9374C17.4918 48.9052 17.5404 48.8569 17.5891 48.8085L17.6053 48.7924C17.654 48.7441 17.7027 48.6957 17.7351 48.6313L21.9053 41.9602L30.2617 55.4313H8.35645ZM47.5588 23.7355L40.3057 12.1659C40.2083 12.0209 40.0947 11.8919 39.9325 11.7953C39.397 11.473 38.6993 11.6341 38.3748 12.1659L35.7624 16.3393L34.8537 14.8246C34.7563 14.6796 34.6428 14.5507 34.4805 14.454C34.302 14.3412 34.0911 14.2929 33.8801 14.2929C33.799 14.2929 33.7016 14.309 33.6205 14.3251C33.3284 14.3896 33.0688 14.5668 32.9228 14.8246L27.4708 23.7355C27.3572 23.9128 27.3086 24.1062 27.3086 24.3156C27.3086 24.9441 27.8116 25.4436 28.4444 25.4436H46.6176C46.8286 25.4436 47.0395 25.3791 47.218 25.2664C47.4776 25.1052 47.6561 24.8635 47.721 24.5573C47.7697 24.2834 47.721 23.9773 47.5588 23.7355ZM30.5376 23.1393L33.9613 17.4995L34.8537 19.0142C34.9024 19.0626 34.9511 19.127 35.016 19.1754L35.0322 19.2076C35.0646 19.2559 35.1133 19.3043 35.162 19.3365C35.2107 19.3526 35.2594 19.3687 35.308 19.3848L35.3405 19.4009C35.4054 19.4332 35.4865 19.4654 35.5514 19.4815C35.6163 19.4976 35.6812 19.4976 35.7461 19.4815H35.9733L36.2329 19.3687H36.379C36.4276 19.3365 36.4601 19.3043 36.4925 19.2559L36.5088 19.2398C36.5737 19.1915 36.6223 19.127 36.671 19.0626L39.2834 14.8569L44.492 23.1393H30.5376ZM33.2798 55.963L22.9113 39.2209C22.8139 39.0758 22.7003 38.9469 22.5381 38.8664C22.2785 38.7052 21.9702 38.6569 21.6781 38.7213C21.386 38.7858 21.1264 38.963 20.9804 39.2209L16.8265 45.8919L15.1227 43.0882C15.0254 42.927 14.8956 42.782 14.7333 42.6853C14.5548 42.5725 14.3601 42.5242 14.1492 42.5242C13.7597 42.5242 13.3865 42.7175 13.1756 43.072L5.38707 55.963C5.28971 56.1403 5.22481 56.3336 5.22481 56.5431C5.22481 56.8493 5.33839 57.1232 5.56556 57.3488C5.7765 57.5583 6.06857 57.6711 6.36064 57.6711H32.3224C32.7281 57.655 33.0851 57.4294 33.2798 57.091C33.4745 56.7526 33.4745 56.3175 33.2798 55.963ZM8.35645 55.4313L14.279 45.8597L15.9665 48.6635C15.999 48.7118 16.0476 48.7763 16.1125 48.8246L16.1288 48.8408C16.1612 48.8891 16.2099 48.9374 16.2586 48.9697H16.3884L16.4371 49.0019C16.502 49.0341 16.5669 49.0502 16.6318 49.0664H16.8752C16.9401 49.0825 17.005 49.0825 17.0699 49.0664L17.4431 48.9374C17.4918 48.9052 17.5404 48.8569 17.5891 48.8085L17.6053 48.7924C17.654 48.7441 17.7027 48.6957 17.7351 48.6313L21.9053 41.9602L30.2617 55.4313H8.35645ZM7.6425 38.673C6.29573 38.673 5.20858 39.7526 5.20858 41.09C5.20858 42.4275 6.29573 43.5071 7.6425 43.5071C8.98927 43.5071 10.0764 42.4275 10.0764 41.09C10.0764 39.7526 8.98927 38.673 7.6425 38.673ZM47.5588 23.7355L40.3057 12.1659C40.2083 12.0209 40.0947 11.8919 39.9325 11.7953C39.397 11.473 38.6993 11.6341 38.3748 12.1659L35.7624 16.3393L34.8537 14.8246C34.7563 14.6796 34.6428 14.5507 34.4805 14.454C34.302 14.3412 34.0911 14.2929 33.8801 14.2929C33.799 14.2929 33.7016 14.309 33.6205 14.3251C33.3284 14.3896 33.0688 14.5668 32.9228 14.8246L27.4708 23.7355C27.3572 23.9128 27.3086 24.1062 27.3086 24.3156C27.3086 24.9441 27.8116 25.4436 28.4444 25.4436H46.6176C46.8286 25.4436 47.0395 25.3791 47.218 25.2664C47.4776 25.1052 47.6561 24.8635 47.721 24.5573C47.7697 24.2834 47.721 23.9773 47.5588 23.7355ZM30.5376 23.1393L33.9613 17.4995L34.8537 19.0142C34.9024 19.0626 34.9511 19.127 35.016 19.1754L35.0322 19.2076C35.0646 19.2559 35.1133 19.3043 35.162 19.3365C35.2107 19.3526 35.2594 19.3687 35.308 19.3848L35.3405 19.4009C35.4054 19.4332 35.4865 19.4654 35.5514 19.4815C35.6163 19.4976 35.6812 19.4976 35.7461 19.4815H35.9733L36.2329 19.3687H36.379C36.4276 19.3365 36.4601 19.3043 36.4925 19.2559L36.5088 19.2398C36.5737 19.1915 36.6223 19.127 36.671 19.0626L39.2834 14.8569L44.492 23.1393H30.5376ZM29.061 11.6019C28.0712 11.6019 27.2761 12.3915 27.2761 13.3744C27.2761 14.3573 28.0712 15.1469 29.061 15.1469C30.0508 15.1469 30.8459 14.3573 30.8459 13.3744C30.8459 12.3915 30.0508 11.6019 29.061 11.6019ZM7.6425 38.673C6.29573 38.673 5.20858 39.7526 5.20858 41.09C5.20858 42.4275 6.29573 43.5071 7.6425 43.5071C8.98927 43.5071 10.0764 42.4275 10.0764 41.09C10.0764 39.7526 8.98927 38.673 7.6425 38.673ZM29.061 11.6019C28.0712 11.6019 27.2761 12.3915 27.2761 13.3744C27.2761 14.3573 28.0712 15.1469 29.061 15.1469C30.0508 15.1469 30.8459 14.3573 30.8459 13.3744C30.8459 12.3915 30.0508 11.6019 29.061 11.6019ZM33.2798 55.963L22.9113 39.2209C22.8139 39.0758 22.7003 38.9469 22.5381 38.8664C22.2785 38.7052 21.9702 38.6569 21.6781 38.7213C21.386 38.7858 21.1264 38.963 20.9804 39.2209L16.8265 45.8919L15.1227 43.0882C15.0254 42.927 14.8956 42.782 14.7333 42.6853C14.5548 42.5725 14.3601 42.5242 14.1492 42.5242C13.7597 42.5242 13.3865 42.7175 13.1756 43.072L5.38707 55.963C5.28971 56.1403 5.22481 56.3336 5.22481 56.5431C5.22481 56.8493 5.33839 57.1232 5.56556 57.3488C5.7765 57.5583 6.06857 57.6711 6.36064 57.6711H32.3224C32.7281 57.655 33.0851 57.4294 33.2798 57.091C33.4745 56.7526 33.4745 56.3175 33.2798 55.963ZM8.35645 55.4313L14.279 45.8597L15.9665 48.6635C15.999 48.7118 16.0476 48.7763 16.1125 48.8246L16.1288 48.8408C16.1612 48.8891 16.2099 48.9374 16.2586 48.9697H16.3884L16.4371 49.0019C16.502 49.0341 16.5669 49.0502 16.6318 49.0664H16.8752C16.9401 49.0825 17.005 49.0825 17.0699 49.0664L17.4431 48.9374C17.4918 48.9052 17.5404 48.8569 17.5891 48.8085L17.6053 48.7924C17.654 48.7441 17.7027 48.6957 17.7351 48.6313L21.9053 41.9602L30.2617 55.4313H8.35645ZM47.5588 23.7355L40.3057 12.1659C40.2083 12.0209 40.0947 11.8919 39.9325 11.7953C39.397 11.473 38.6993 11.6341 38.3748 12.1659L35.7624 16.3393L34.8537 14.8246C34.7563 14.6796 34.6428 14.5507 34.4805 14.454C34.302 14.3412 34.0911 14.2929 33.8801 14.2929C33.799 14.2929 33.7016 14.309 33.6205 14.3251C33.3284 14.3896 33.0688 14.5668 32.9228 14.8246L27.4708 23.7355C27.3572 23.9128 27.3086 24.1062 27.3086 24.3156C27.3086 24.9441 27.8116 25.4436 28.4444 25.4436H46.6176C46.8286 25.4436 47.0395 25.3791 47.218 25.2664C47.4776 25.1052 47.6561 24.8635 47.721 24.5573C47.7697 24.2834 47.721 23.9773 47.5588 23.7355ZM30.5376 23.1393L33.9613 17.4995L34.8537 19.0142C34.9024 19.0626 34.9511 19.127 35.016 19.1754L35.0322 19.2076C35.0646 19.2559 35.1133 19.3043 35.162 19.3365C35.2107 19.3526 35.2594 19.3687 35.308 19.3848L35.3405 19.4009C35.4054 19.4332 35.4865 19.4654 35.5514 19.4815C35.6163 19.4976 35.6812 19.4976 35.7461 19.4815H35.9733L36.2329 19.3687H36.379C36.4276 19.3365 36.4601 19.3043 36.4925 19.2559L36.5088 19.2398C36.5737 19.1915 36.6223 19.127 36.671 19.0626L39.2834 14.8569L44.492 23.1393H30.5376ZM33.2798 55.963L22.9113 39.2209C22.8139 39.0758 22.7003 38.9469 22.5381 38.8664C22.2785 38.7052 21.9702 38.6569 21.6781 38.7213C21.386 38.7858 21.1264 38.963 20.9804 39.2209L16.8265 45.8919L15.1227 43.0882C15.0254 42.927 14.8956 42.782 14.7333 42.6853C14.5548 42.5725 14.3601 42.5242 14.1492 42.5242C13.7597 42.5242 13.3865 42.7175 13.1756 43.072L5.38707 55.963C5.28971 56.1403 5.22481 56.3336 5.22481 56.5431C5.22481 56.8493 5.33839 57.1232 5.56556 57.3488C5.7765 57.5583 6.06857 57.6711 6.36064 57.6711H32.3224C32.7281 57.655 33.0851 57.4294 33.2798 57.091C33.4745 56.7526 33.4745 56.3175 33.2798 55.963ZM8.35645 55.4313L14.279 45.8597L15.9665 48.6635C15.999 48.7118 16.0476 48.7763 16.1125 48.8246L16.1288 48.8408C16.1612 48.8891 16.2099 48.9374 16.2586 48.9697H16.3884L16.4371 49.0019C16.502 49.0341 16.5669 49.0502 16.6318 49.0664H16.8752C16.9401 49.0825 17.005 49.0825 17.0699 49.0664L17.4431 48.9374C17.4918 48.9052 17.5404 48.8569 17.5891 48.8085L17.6053 48.7924C17.654 48.7441 17.7027 48.6957 17.7351 48.6313L21.9053 41.9602L30.2617 55.4313H8.35645ZM7.6425 38.673C6.29573 38.673 5.20858 39.7526 5.20858 41.09C5.20858 42.4275 6.29573 43.5071 7.6425 43.5071C8.98927 43.5071 10.0764 42.4275 10.0764 41.09C10.0764 39.7526 8.98927 38.673 7.6425 38.673ZM47.5588 23.7355L40.3057 12.1659C40.2083 12.0209 40.0947 11.8919 39.9325 11.7953C39.397 11.473 38.6993 11.6341 38.3748 12.1659L35.7624 16.3393L34.8537 14.8246C34.7563 14.6796 34.6428 14.5507 34.4805 14.454C34.302 14.3412 34.0911 14.2929 33.8801 14.2929C33.799 14.2929 33.7016 14.309 33.6205 14.3251C33.3284 14.3896 33.0688 14.5668 32.9228 14.8246L27.4708 23.7355C27.3572 23.9128 27.3086 24.1062 27.3086 24.3156C27.3086 24.9441 27.8116 25.4436 28.4444 25.4436H46.6176C46.8286 25.4436 47.0395 25.3791 47.218 25.2664C47.4776 25.1052 47.6561 24.8635 47.721 24.5573C47.7697 24.2834 47.721 23.9773 47.5588 23.7355ZM30.5376 23.1393L33.9613 17.4995L34.8537 19.0142C34.9024 19.0626 34.9511 19.127 35.016 19.1754L35.0322 19.2076C35.0646 19.2559 35.1133 19.3043 35.162 19.3365C35.2107 19.3526 35.2594 19.3687 35.308 19.3848L35.3405 19.4009C35.4054 19.4332 35.4865 19.4654 35.5514 19.4815C35.6163 19.4976 35.6812 19.4976 35.7461 19.4815H35.9733L36.2329 19.3687H36.379C36.4276 19.3365 36.4601 19.3043 36.4925 19.2559L36.5088 19.2398C36.5737 19.1915 36.6223 19.127 36.671 19.0626L39.2834 14.8569L44.492 23.1393H30.5376ZM29.061 11.6019C28.0712 11.6019 27.2761 12.3915 27.2761 13.3744C27.2761 14.3573 28.0712 15.1469 29.061 15.1469C30.0508 15.1469 30.8459 14.3573 30.8459 13.3744C30.8459 12.3915 30.0508 11.6019 29.061 11.6019ZM7.6425 38.673C6.29573 38.673 5.20858 39.7526 5.20858 41.09C5.20858 42.4275 6.29573 43.5071 7.6425 43.5071C8.98927 43.5071 10.0764 42.4275 10.0764 41.09C10.0764 39.7526 8.98927 38.673 7.6425 38.673ZM29.061 11.6019C28.0712 11.6019 27.2761 12.3915 27.2761 13.3744C27.2761 14.3573 28.0712 15.1469 29.061 15.1469C30.0508 15.1469 30.8459 14.3573 30.8459 13.3744C30.8459 12.3915 30.0508 11.6019 29.061 11.6019ZM33.2798 55.963L22.9113 39.2209C22.8139 39.0758 22.7003 38.9469 22.5381 38.8664C22.2785 38.7052 21.9702 38.6569 21.6781 38.7213C21.386 38.7858 21.1264 38.963 20.9804 39.2209L16.8265 45.8919L15.1227 43.0882C15.0254 42.927 14.8956 42.782 14.7333 42.6853C14.5548 42.5725 14.3601 42.5242 14.1492 42.5242C13.7597 42.5242 13.3865 42.7175 13.1756 43.072L5.38707 55.963C5.28971 56.1403 5.22481 56.3336 5.22481 56.5431C5.22481 56.8493 5.33839 57.1232 5.56556 57.3488C5.7765 57.5583 6.06857 57.6711 6.36064 57.6711H32.3224C32.7281 57.655 33.0851 57.4294 33.2798 57.091C33.4745 56.7526 33.4745 56.3175 33.2798 55.963ZM8.35645 55.4313L14.279 45.8597L15.9665 48.6635C15.999 48.7118 16.0476 48.7763 16.1125 48.8246L16.1288 48.8408C16.1612 48.8891 16.2099 48.9374 16.2586 48.9697H16.3884L16.4371 49.0019C16.502 49.0341 16.5669 49.0502 16.6318 49.0664H16.8752C16.9401 49.0825 17.005 49.0825 17.0699 49.0664L17.4431 48.9374C17.4918 48.9052 17.5404 48.8569 17.5891 48.8085L17.6053 48.7924C17.654 48.7441 17.7027 48.6957 17.7351 48.6313L21.9053 41.9602L30.2617 55.4313H8.35645ZM47.5588 23.7355L40.3057 12.1659C40.2083 12.0209 40.0947 11.8919 39.9325 11.7953C39.397 11.473 38.6993 11.6341 38.3748 12.1659L35.7624 16.3393L34.8537 14.8246C34.7563 14.6796 34.6428 14.5507 34.4805 14.454C34.302 14.3412 34.0911 14.2929 33.8801 14.2929C33.799 14.2929 33.7016 14.309 33.6205 14.3251C33.3284 14.3896 33.0688 14.5668 32.9228 14.8246L27.4708 23.7355C27.3572 23.9128 27.3086 24.1062 27.3086 24.3156C27.3086 24.9441 27.8116 25.4436 28.4444 25.4436H46.6176C46.8286 25.4436 47.0395 25.3791 47.218 25.2664C47.4776 25.1052 47.6561 24.8635 47.721 24.5573C47.7697 24.2834 47.721 23.9773 47.5588 23.7355ZM30.5376 23.1393L33.9613 17.4995L34.8537 19.0142C34.9024 19.0626 34.9511 19.127 35.016 19.1754L35.0322 19.2076C35.0646 19.2559 35.1133 19.3043 35.162 19.3365C35.2107 19.3526 35.2594 19.3687 35.308 19.3848L35.3405 19.4009C35.4054 19.4332 35.4865 19.4654 35.5514 19.4815C35.6163 19.4976 35.6812 19.4976 35.7461 19.4815H35.9733L36.2329 19.3687H36.379C36.4276 19.3365 36.4601 19.3043 36.4925 19.2559L36.5088 19.2398C36.5737 19.1915 36.6223 19.127 36.671 19.0626L39.2834 14.8569L44.492 23.1393H30.5376ZM33.2798 55.963L22.9113 39.2209C22.8139 39.0758 22.7003 38.9469 22.5381 38.8664C22.2785 38.7052 21.9702 38.6569 21.6781 38.7213C21.386 38.7858 21.1264 38.963 20.9804 39.2209L16.8265 45.8919L15.1227 43.0882C15.0254 42.927 14.8956 42.782 14.7333 42.6853C14.5548 42.5725 14.3601 42.5242 14.1492 42.5242C13.7597 42.5242 13.3865 42.7175 13.1756 43.072L5.38707 55.963C5.28971 56.1403 5.22481 56.3336 5.22481 56.5431C5.22481 56.8493 5.33839 57.1232 5.56556 57.3488C5.7765 57.5583 6.06857 57.6711 6.36064 57.6711H32.3224C32.7281 57.655 33.0851 57.4294 33.2798 57.091C33.4745 56.7526 33.4745 56.3175 33.2798 55.963ZM8.35645 55.4313L14.279 45.8597L15.9665 48.6635C15.999 48.7118 16.0476 48.7763 16.1125 48.8246L16.1288 48.8408C16.1612 48.8891 16.2099 48.9374 16.2586 48.9697H16.3884L16.4371 49.0019C16.502 49.0341 16.5669 49.0502 16.6318 49.0664H16.8752C16.9401 49.0825 17.005 49.0825 17.0699 49.0664L17.4431 48.9374C17.4918 48.9052 17.5404 48.8569 17.5891 48.8085L17.6053 48.7924C17.654 48.7441 17.7027 48.6957 17.7351 48.6313L21.9053 41.9602L30.2617 55.4313H8.35645ZM7.6425 38.673C6.29573 38.673 5.20858 39.7526 5.20858 41.09C5.20858 42.4275 6.29573 43.5071 7.6425 43.5071C8.98927 43.5071 10.0764 42.4275 10.0764 41.09C10.0764 39.7526 8.98927 38.673 7.6425 38.673ZM47.5588 23.7355L40.3057 12.1659C40.2083 12.0209 40.0947 11.8919 39.9325 11.7953C39.397 11.473 38.6993 11.6341 38.3748 12.1659L35.7624 16.3393L34.8537 14.8246C34.7563 14.6796 34.6428 14.5507 34.4805 14.454C34.302 14.3412 34.0911 14.2929 33.8801 14.2929C33.799 14.2929 33.7016 14.309 33.6205 14.3251C33.3284 14.3896 33.0688 14.5668 32.9228 14.8246L27.4708 23.7355C27.3572 23.9128 27.3086 24.1062 27.3086 24.3156C27.3086 24.9441 27.8116 25.4436 28.4444 25.4436H46.6176C46.8286 25.4436 47.0395 25.3791 47.218 25.2664C47.4776 25.1052 47.6561 24.8635 47.721 24.5573C47.7697 24.2834 47.721 23.9773 47.5588 23.7355ZM30.5376 23.1393L33.9613 17.4995L34.8537 19.0142C34.9024 19.0626 34.9511 19.127 35.016 19.1754L35.0322 19.2076C35.0646 19.2559 35.1133 19.3043 35.162 19.3365C35.2107 19.3526 35.2594 19.3687 35.308 19.3848L35.3405 19.4009C35.4054 19.4332 35.4865 19.4654 35.5514 19.4815C35.6163 19.4976 35.6812 19.4976 35.7461 19.4815H35.9733L36.2329 19.3687H36.379C36.4276 19.3365 36.4601 19.3043 36.4925 19.2559L36.5088 19.2398C36.5737 19.1915 36.6223 19.127 36.671 19.0626L39.2834 14.8569L44.492 23.1393H30.5376ZM29.061 11.6019C28.0712 11.6019 27.2761 12.3915 27.2761 13.3744C27.2761 14.3573 28.0712 15.1469 29.061 15.1469C30.0508 15.1469 30.8459 14.3573 30.8459 13.3744C30.8459 12.3915 30.0508 11.6019 29.061 11.6019ZM7.6425 38.673C6.29573 38.673 5.20858 39.7526 5.20858 41.09C5.20858 42.4275 6.29573 43.5071 7.6425 43.5071C8.98927 43.5071 10.0764 42.4275 10.0764 41.09C10.0764 39.7526 8.98927 38.673 7.6425 38.673ZM29.061 11.6019C28.0712 11.6019 27.2761 12.3915 27.2761 13.3744C27.2761 14.3573 28.0712 15.1469 29.061 15.1469C30.0508 15.1469 30.8459 14.3573 30.8459 13.3744C30.8459 12.3915 30.0508 11.6019 29.061 11.6019ZM33.2798 55.963L22.9113 39.2209C22.8139 39.0758 22.7003 38.9469 22.5381 38.8664C22.2785 38.7052 21.9702 38.6569 21.6781 38.7213C21.386 38.7858 21.1264 38.963 20.9804 39.2209L16.8265 45.8919L15.1227 43.0882C15.0254 42.927 14.8956 42.782 14.7333 42.6853C14.5548 42.5725 14.3601 42.5242 14.1492 42.5242C13.7597 42.5242 13.3865 42.7175 13.1756 43.072L5.38707 55.963C5.28971 56.1403 5.22481 56.3336 5.22481 56.5431C5.22481 56.8493 5.33839 57.1232 5.56556 57.3488C5.7765 57.5583 6.06857 57.6711 6.36064 57.6711H32.3224C32.7281 57.655 33.0851 57.4294 33.2798 57.091C33.4745 56.7526 33.4745 56.3175 33.2798 55.963ZM8.35645 55.4313L14.279 45.8597L15.9665 48.6635C15.999 48.7118 16.0476 48.7763 16.1125 48.8246L16.1288 48.8408C16.1612 48.8891 16.2099 48.9374 16.2586 48.9697H16.3884L16.4371 49.0019C16.502 49.0341 16.5669 49.0502 16.6318 49.0664H16.8752C16.9401 49.0825 17.005 49.0825 17.0699 49.0664L17.4431 48.9374C17.4918 48.9052 17.5404 48.8569 17.5891 48.8085L17.6053 48.7924C17.654 48.7441 17.7027 48.6957 17.7351 48.6313L21.9053 41.9602L30.2617 55.4313H8.35645ZM47.5588 23.7355L40.3057 12.1659C40.2083 12.0209 40.0947 11.8919 39.9325 11.7953C39.397 11.473 38.6993 11.6341 38.3748 12.1659L35.7624 16.3393L34.8537 14.8246C34.7563 14.6796 34.6428 14.5507 34.4805 14.454C34.302 14.3412 34.0911 14.2929 33.8801 14.2929C33.799 14.2929 33.7016 14.309 33.6205 14.3251C33.3284 14.3896 33.0688 14.5668 32.9228 14.8246L27.4708 23.7355C27.3572 23.9128 27.3086 24.1062 27.3086 24.3156C27.3086 24.9441 27.8116 25.4436 28.4444 25.4436H46.6176C46.8286 25.4436 47.0395 25.3791 47.218 25.2664C47.4776 25.1052 47.6561 24.8635 47.721 24.5573C47.7697 24.2834 47.721 23.9773 47.5588 23.7355ZM30.5376 23.1393L33.9613 17.4995L34.8537 19.0142C34.9024 19.0626 34.9511 19.127 35.016 19.1754L35.0322 19.2076C35.0646 19.2559 35.1133 19.3043 35.162 19.3365C35.2107 19.3526 35.2594 19.3687 35.308 19.3848L35.3405 19.4009C35.4054 19.4332 35.4865 19.4654 35.5514 19.4815C35.6163 19.4976 35.6812 19.4976 35.7461 19.4815H35.9733L36.2329 19.3687H36.379C36.4276 19.3365 36.4601 19.3043 36.4925 19.2559L36.5088 19.2398C36.5737 19.1915 36.6223 19.127 36.671 19.0626L39.2834 14.8569L44.492 23.1393H30.5376ZM33.2798 55.963L22.9113 39.2209C22.8139 39.0758 22.7003 38.9469 22.5381 38.8664C22.2785 38.7052 21.9702 38.6569 21.6781 38.7213C21.386 38.7858 21.1264 38.963 20.9804 39.2209L16.8265 45.8919L15.1227 43.0882C15.0254 42.927 14.8956 42.782 14.7333 42.6853C14.5548 42.5725 14.3601 42.5242 14.1492 42.5242C13.7597 42.5242 13.3865 42.7175 13.1756 43.072L5.38707 55.963C5.28971 56.1403 5.22481 56.3336 5.22481 56.5431C5.22481 56.8493 5.33839 57.1232 5.56556 57.3488C5.7765 57.5583 6.06857 57.6711 6.36064 57.6711H32.3224C32.7281 57.655 33.0851 57.4294 33.2798 57.091C33.4745 56.7526 33.4745 56.3175 33.2798 55.963ZM8.35645 55.4313L14.279 45.8597L15.9665 48.6635C15.999 48.7118 16.0476 48.7763 16.1125 48.8246L16.1288 48.8408C16.1612 48.8891 16.2099 48.9374 16.2586 48.9697H16.3884L16.4371 49.0019C16.502 49.0341 16.5669 49.0502 16.6318 49.0664H16.8752C16.9401 49.0825 17.005 49.0825 17.0699 49.0664L17.4431 48.9374C17.4918 48.9052 17.5404 48.8569 17.5891 48.8085L17.6053 48.7924C17.654 48.7441 17.7027 48.6957 17.7351 48.6313L21.9053 41.9602L30.2617 55.4313H8.35645ZM7.6425 38.673C6.29573 38.673 5.20858 39.7526 5.20858 41.09C5.20858 42.4275 6.29573 43.5071 7.6425 43.5071C8.98927 43.5071 10.0764 42.4275 10.0764 41.09C10.0764 39.7526 8.98927 38.673 7.6425 38.673ZM47.5588 23.7355L40.3057 12.1659C40.2083 12.0209 40.0947 11.8919 39.9325 11.7953C39.397 11.473 38.6993 11.6341 38.3748 12.1659L35.7624 16.3393L34.8537 14.8246C34.7563 14.6796 34.6428 14.5507 34.4805 14.454C34.302 14.3412 34.0911 14.2929 33.8801 14.2929C33.799 14.2929 33.7016 14.309 33.6205 14.3251C33.3284 14.3896 33.0688 14.5668 32.9228 14.8246L27.4708 23.7355C27.3572 23.9128 27.3086 24.1062 27.3086 24.3156C27.3086 24.9441 27.8116 25.4436 28.4444 25.4436H46.6176C46.8286 25.4436 47.0395 25.3791 47.218 25.2664C47.4776 25.1052 47.6561 24.8635 47.721 24.5573C47.7697 24.2834 47.721 23.9773 47.5588 23.7355ZM30.5376 23.1393L33.9613 17.4995L34.8537 19.0142C34.9024 19.0626 34.9511 19.127 35.016 19.1754L35.0322 19.2076C35.0646 19.2559 35.1133 19.3043 35.162 19.3365C35.2107 19.3526 35.2594 19.3687 35.308 19.3848L35.3405 19.4009C35.4054 19.4332 35.4865 19.4654 35.5514 19.4815C35.6163 19.4976 35.6812 19.4976 35.7461 19.4815H35.9733L36.2329 19.3687H36.379C36.4276 19.3365 36.4601 19.3043 36.4925 19.2559L36.5088 19.2398C36.5737 19.1915 36.6223 19.127 36.671 19.0626L39.2834 14.8569L44.492 23.1393H30.5376ZM29.061 11.6019C28.0712 11.6019 27.2761 12.3915 27.2761 13.3744C27.2761 14.3573 28.0712 15.1469 29.061 15.1469C30.0508 15.1469 30.8459 14.3573 30.8459 13.3744C30.8459 12.3915 30.0508 11.6019 29.061 11.6019ZM7.6425 38.673C6.29573 38.673 5.20858 39.7526 5.20858 41.09C5.20858 42.4275 6.29573 43.5071 7.6425 43.5071C8.98927 43.5071 10.0764 42.4275 10.0764 41.09C10.0764 39.7526 8.98927 38.673 7.6425 38.673ZM29.061 11.6019C28.0712 11.6019 27.2761 12.3915 27.2761 13.3744C27.2761 14.3573 28.0712 15.1469 29.061 15.1469C30.0508 15.1469 30.8459 14.3573 30.8459 13.3744C30.8459 12.3915 30.0508 11.6019 29.061 11.6019ZM33.2798 55.963L22.9113 39.2209C22.8139 39.0758 22.7003 38.9469 22.5381 38.8664C22.2785 38.7052 21.9702 38.6569 21.6781 38.7213C21.386 38.7858 21.1264 38.963 20.9804 39.2209L16.8265 45.8919L15.1227 43.0882C15.0254 42.927 14.8956 42.782 14.7333 42.6853C14.5548 42.5725 14.3601 42.5242 14.1492 42.5242C13.7597 42.5242 13.3865 42.7175 13.1756 43.072L5.38707 55.963C5.28971 56.1403 5.22481 56.3336 5.22481 56.5431C5.22481 56.8493 5.33839 57.1232 5.56556 57.3488C5.7765 57.5583 6.06857 57.6711 6.36064 57.6711H32.3224C32.7281 57.655 33.0851 57.4294 33.2798 57.091C33.4745 56.7526 33.4745 56.3175 33.2798 55.963ZM8.35645 55.4313L14.279 45.8597L15.9665 48.6635C15.999 48.7118 16.0476 48.7763 16.1125 48.8246L16.1288 48.8408C16.1612 48.8891 16.2099 48.9374 16.2586 48.9697H16.3884L16.4371 49.0019C16.502 49.0341 16.5669 49.0502 16.6318 49.0664H16.8752C16.9401 49.0825 17.005 49.0825 17.0699 49.0664L17.4431 48.9374C17.4918 48.9052 17.5404 48.8569 17.5891 48.8085L17.6053 48.7924C17.654 48.7441 17.7027 48.6957 17.7351 48.6313L21.9053 41.9602L30.2617 55.4313H8.35645ZM47.5588 23.7355L40.3057 12.1659C40.2083 12.0209 40.0947 11.8919 39.9325 11.7953C39.397 11.473 38.6993 11.6341 38.3748 12.1659L35.7624 16.3393L34.8537 14.8246C34.7563 14.6796 34.6428 14.5507 34.4805 14.454C34.302 14.3412 34.0911 14.2929 33.8801 14.2929C33.799 14.2929 33.7016 14.309 33.6205 14.3251C33.3284 14.3896 33.0688 14.5668 32.9228 14.8246L27.4708 23.7355C27.3572 23.9128 27.3086 24.1062 27.3086 24.3156C27.3086 24.9441 27.8116 25.4436 28.4444 25.4436H46.6176C46.8286 25.4436 47.0395 25.3791 47.218 25.2664C47.4776 25.1052 47.6561 24.8635 47.721 24.5573C47.7697 24.2834 47.721 23.9773 47.5588 23.7355ZM30.5376 23.1393L33.9613 17.4995L34.8537 19.0142C34.9024 19.0626 34.9511 19.127 35.016 19.1754L35.0322 19.2076C35.0646 19.2559 35.1133 19.3043 35.162 19.3365C35.2107 19.3526 35.2594 19.3687 35.308 19.3848L35.3405 19.4009C35.4054 19.4332 35.4865 19.4654 35.5514 19.4815C35.6163 19.4976 35.6812 19.4976 35.7461 19.4815H35.9733L36.2329 19.3687H36.379C36.4276 19.3365 36.4601 19.3043 36.4925 19.2559L36.5088 19.2398C36.5737 19.1915 36.6223 19.127 36.671 19.0626L39.2834 14.8569L44.492 23.1393H30.5376ZM47.5588 23.7355L40.3057 12.1659C40.2083 12.0209 40.0947 11.8919 39.9325 11.7953C39.397 11.473 38.6993 11.6341 38.3748 12.1659L35.7624 16.3393L34.8537 14.8246C34.7563 14.6796 34.6428 14.5507 34.4805 14.454C34.302 14.3412 34.0911 14.2929 33.8801 14.2929C33.799 14.2929 33.7016 14.309 33.6205 14.3251C33.3284 14.3896 33.0688 14.5668 32.9228 14.8246L27.4708 23.7355C27.3572 23.9128 27.3086 24.1062 27.3086 24.3156C27.3086 24.9441 27.8116 25.4436 28.4444 25.4436H46.6176C46.8286 25.4436 47.0395 25.3791 47.218 25.2664C47.4776 25.1052 47.6561 24.8635 47.721 24.5573C47.7697 24.2834 47.721 23.9773 47.5588 23.7355ZM30.5376 23.1393L33.9613 17.4995L34.8537 19.0142C34.9024 19.0626 34.9511 19.127 35.016 19.1754L35.0322 19.2076C35.0646 19.2559 35.1133 19.3043 35.162 19.3365C35.2107 19.3526 35.2594 19.3687 35.308 19.3848L35.3405 19.4009C35.4054 19.4332 35.4865 19.4654 35.5514 19.4815C35.6163 19.4976 35.6812 19.4976 35.7461 19.4815H35.9733L36.2329 19.3687H36.379C36.4276 19.3365 36.4601 19.3043 36.4925 19.2559L36.5088 19.2398C36.5737 19.1915 36.6223 19.127 36.671 19.0626L39.2834 14.8569L44.492 23.1393H30.5376ZM29.061 11.6019C28.0712 11.6019 27.2761 12.3915 27.2761 13.3744C27.2761 14.3573 28.0712 15.1469 29.061 15.1469C30.0508 15.1469 30.8459 14.3573 30.8459 13.3744C30.8459 12.3915 30.0508 11.6019 29.061 11.6019ZM33.2798 55.963L22.9113 39.2209C22.8139 39.0758 22.7003 38.9469 22.5381 38.8664C22.2785 38.7052 21.9702 38.6569 21.6781 38.7213C21.386 38.7858 21.1264 38.963 20.9804 39.2209L16.8265 45.8919L15.1227 43.0882C15.0254 42.927 14.8956 42.782 14.7333 42.6853C14.5548 42.5725 14.3601 42.5242 14.1492 42.5242C13.7597 42.5242 13.3865 42.7175 13.1756 43.072L5.38707 55.963C5.28971 56.1403 5.22481 56.3336 5.22481 56.5431C5.22481 56.8493 5.33839 57.1232 5.56556 57.3488C5.7765 57.5583 6.06857 57.6711 6.36064 57.6711H32.3224C32.7281 57.655 33.0851 57.4294 33.2798 57.091C33.4745 56.7526 33.4745 56.3175 33.2798 55.963ZM8.35645 55.4313L14.279 45.8597L15.9665 48.6635C15.999 48.7118 16.0476 48.7763 16.1125 48.8246L16.1288 48.8408C16.1612 48.8891 16.2099 48.9374 16.2586 48.9697H16.3884L16.4371 49.0019C16.502 49.0341 16.5669 49.0502 16.6318 49.0664H16.8752C16.9401 49.0825 17.005 49.0825 17.0699 49.0664L17.4431 48.9374C17.4918 48.9052 17.5404 48.8569 17.5891 48.8085L17.6053 48.7924C17.654 48.7441 17.7027 48.6957 17.7351 48.6313L21.9053 41.9602L30.2617 55.4313H8.35645ZM7.6425 38.673C6.29573 38.673 5.20858 39.7526 5.20858 41.09C5.20858 42.4275 6.29573 43.5071 7.6425 43.5071C8.98927 43.5071 10.0764 42.4275 10.0764 41.09C10.0764 39.7526 8.98927 38.673 7.6425 38.673ZM7.6425 38.673C6.29573 38.673 5.20858 39.7526 5.20858 41.09C5.20858 42.4275 6.29573 43.5071 7.6425 43.5071C8.98927 43.5071 10.0764 42.4275 10.0764 41.09C10.0764 39.7526 8.98927 38.673 7.6425 38.673ZM29.061 11.6019C28.0712 11.6019 27.2761 12.3915 27.2761 13.3744C27.2761 14.3573 28.0712 15.1469 29.061 15.1469C30.0508 15.1469 30.8459 14.3573 30.8459 13.3744C30.8459 12.3915 30.0508 11.6019 29.061 11.6019ZM33.2798 55.963L22.9113 39.2209C22.8139 39.0758 22.7003 38.9469 22.5381 38.8664C22.2785 38.7052 21.9702 38.6569 21.6781 38.7213C21.386 38.7858 21.1264 38.963 20.9804 39.2209L16.8265 45.8919L15.1227 43.0882C15.0254 42.927 14.8956 42.782 14.7333 42.6853C14.5548 42.5725 14.3601 42.5242 14.1492 42.5242C13.7597 42.5242 13.3865 42.7175 13.1756 43.072L5.38707 55.963C5.28971 56.1403 5.22481 56.3336 5.22481 56.5431C5.22481 56.8493 5.33839 57.1232 5.56556 57.3488C5.7765 57.5583 6.06857 57.6711 6.36064 57.6711H32.3224C32.7281 57.655 33.0851 57.4294 33.2798 57.091C33.4745 56.7526 33.4745 56.3175 33.2798 55.963ZM8.35645 55.4313L14.279 45.8597L15.9665 48.6635C15.999 48.7118 16.0476 48.7763 16.1125 48.8246L16.1288 48.8408C16.1612 48.8891 16.2099 48.9374 16.2586 48.9697H16.3884L16.4371 49.0019C16.502 49.0341 16.5669 49.0502 16.6318 49.0664H16.8752C16.9401 49.0825 17.005 49.0825 17.0699 49.0664L17.4431 48.9374C17.4918 48.9052 17.5404 48.8569 17.5891 48.8085L17.6053 48.7924C17.654 48.7441 17.7027 48.6957 17.7351 48.6313L21.9053 41.9602L30.2617 55.4313H8.35645ZM47.5588 23.7355L40.3057 12.1659C40.2083 12.0209 40.0947 11.8919 39.9325 11.7953C39.397 11.473 38.6993 11.6341 38.3748 12.1659L35.7624 16.3393L34.8537 14.8246C34.7563 14.6796 34.6428 14.5507 34.4805 14.454C34.302 14.3412 34.0911 14.2929 33.8801 14.2929C33.799 14.2929 33.7016 14.309 33.6205 14.3251C33.3284 14.3896 33.0688 14.5668 32.9228 14.8246L27.4708 23.7355C27.3572 23.9128 27.3086 24.1062 27.3086 24.3156C27.3086 24.9441 27.8116 25.4436 28.4444 25.4436H46.6176C46.8286 25.4436 47.0395 25.3791 47.218 25.2664C47.4776 25.1052 47.6561 24.8635 47.721 24.5573C47.7697 24.2834 47.721 23.9773 47.5588 23.7355ZM30.5376 23.1393L33.9613 17.4995L34.8537 19.0142C34.9024 19.0626 34.9511 19.127 35.016 19.1754L35.0322 19.2076C35.0646 19.2559 35.1133 19.3043 35.162 19.3365C35.2107 19.3526 35.2594 19.3687 35.308 19.3848L35.3405 19.4009C35.4054 19.4332 35.4865 19.4654 35.5514 19.4815C35.6163 19.4976 35.6812 19.4976 35.7461 19.4815H35.9733L36.2329 19.3687H36.379C36.4276 19.3365 36.4601 19.3043 36.4925 19.2559L36.5088 19.2398C36.5737 19.1915 36.6223 19.127 36.671 19.0626L39.2834 14.8569L44.492 23.1393H30.5376ZM47.5588 23.7355L40.3057 12.1659C40.2083 12.0209 40.0947 11.8919 39.9325 11.7953C39.397 11.473 38.6993 11.6341 38.3748 12.1659L35.7624 16.3393L34.8537 14.8246C34.7563 14.6796 34.6428 14.5507 34.4805 14.454C34.302 14.3412 34.0911 14.2929 33.8801 14.2929C33.799 14.2929 33.7016 14.309 33.6205 14.3251C33.3284 14.3896 33.0688 14.5668 32.9228 14.8246L27.4708 23.7355C27.3572 23.9128 27.3086 24.1062 27.3086 24.3156C27.3086 24.9441 27.8116 25.4436 28.4444 25.4436H46.6176C46.8286 25.4436 47.0395 25.3791 47.218 25.2664C47.4776 25.1052 47.6561 24.8635 47.721 24.5573C47.7697 24.2834 47.721 23.9773 47.5588 23.7355ZM30.5376 23.1393L33.9613 17.4995L34.8537 19.0142C34.9024 19.0626 34.9511 19.127 35.016 19.1754L35.0322 19.2076C35.0646 19.2559 35.1133 19.3043 35.162 19.3365C35.2107 19.3526 35.2594 19.3687 35.308 19.3848L35.3405 19.4009C35.4054 19.4332 35.4865 19.4654 35.5514 19.4815C35.6163 19.4976 35.6812 19.4976 35.7461 19.4815H35.9733L36.2329 19.3687H36.379C36.4276 19.3365 36.4601 19.3043 36.4925 19.2559L36.5088 19.2398C36.5737 19.1915 36.6223 19.127 36.671 19.0626L39.2834 14.8569L44.492 23.1393H30.5376ZM29.061 11.6019C28.0712 11.6019 27.2761 12.3915 27.2761 13.3744C27.2761 14.3573 28.0712 15.1469 29.061 15.1469C30.0508 15.1469 30.8459 14.3573 30.8459 13.3744C30.8459 12.3915 30.0508 11.6019 29.061 11.6019ZM33.2798 55.963L22.9113 39.2209C22.8139 39.0758 22.7003 38.9469 22.5381 38.8664C22.2785 38.7052 21.9702 38.6569 21.6781 38.7213C21.386 38.7858 21.1264 38.963 20.9804 39.2209L16.8265 45.8919L15.1227 43.0882C15.0254 42.927 14.8956 42.782 14.7333 42.6853C14.5548 42.5725 14.3601 42.5242 14.1492 42.5242C13.7597 42.5242 13.3865 42.7175 13.1756 43.072L5.38707 55.963C5.28971 56.1403 5.22481 56.3336 5.22481 56.5431C5.22481 56.8493 5.33839 57.1232 5.56556 57.3488C5.7765 57.5583 6.06857 57.6711 6.36064 57.6711H32.3224C32.7281 57.655 33.0851 57.4294 33.2798 57.091C33.4745 56.7526 33.4745 56.3175 33.2798 55.963ZM8.35645 55.4313L14.279 45.8597L15.9665 48.6635C15.999 48.7118 16.0476 48.7763 16.1125 48.8246L16.1288 48.8408C16.1612 48.8891 16.2099 48.9374 16.2586 48.9697H16.3884L16.4371 49.0019C16.502 49.0341 16.5669 49.0502 16.6318 49.0664H16.8752C16.9401 49.0825 17.005 49.0825 17.0699 49.0664L17.4431 48.9374C17.4918 48.9052 17.5404 48.8569 17.5891 48.8085L17.6053 48.7924C17.654 48.7441 17.7027 48.6957 17.7351 48.6313L21.9053 41.9602L30.2617 55.4313H8.35645ZM7.6425 38.673C6.29573 38.673 5.20858 39.7526 5.20858 41.09C5.20858 42.4275 6.29573 43.5071 7.6425 43.5071C8.98927 43.5071 10.0764 42.4275 10.0764 41.09C10.0764 39.7526 8.98927 38.673 7.6425 38.673ZM7.6425 38.673C6.29573 38.673 5.20858 39.7526 5.20858 41.09C5.20858 42.4275 6.29573 43.5071 7.6425 43.5071C8.98927 43.5071 10.0764 42.4275 10.0764 41.09C10.0764 39.7526 8.98927 38.673 7.6425 38.673ZM29.061 11.6019C28.0712 11.6019 27.2761 12.3915 27.2761 13.3744C27.2761 14.3573 28.0712 15.1469 29.061 15.1469C30.0508 15.1469 30.8459 14.3573 30.8459 13.3744C30.8459 12.3915 30.0508 11.6019 29.061 11.6019ZM33.2798 55.963L22.9113 39.2209C22.8139 39.0758 22.7003 38.9469 22.5381 38.8664C22.2785 38.7052 21.9702 38.6569 21.6781 38.7213C21.386 38.7858 21.1264 38.963 20.9804 39.2209L16.8265 45.8919L15.1227 43.0882C15.0254 42.927 14.8956 42.782 14.7333 42.6853C14.5548 42.5725 14.3601 42.5242 14.1492 42.5242C13.7597 42.5242 13.3865 42.7175 13.1756 43.072L5.38707 55.963C5.28971 56.1403 5.22481 56.3336 5.22481 56.5431C5.22481 56.8493 5.33839 57.1232 5.56556 57.3488C5.7765 57.5583 6.06857 57.6711 6.36064 57.6711H32.3224C32.7281 57.655 33.0851 57.4294 33.2798 57.091C33.4745 56.7526 33.4745 56.3175 33.2798 55.963ZM8.35645 55.4313L14.279 45.8597L15.9665 48.6635C15.999 48.7118 16.0476 48.7763 16.1125 48.8246L16.1288 48.8408C16.1612 48.8891 16.2099 48.9374 16.2586 48.9697H16.3884L16.4371 49.0019C16.502 49.0341 16.5669 49.0502 16.6318 49.0664H16.8752C16.9401 49.0825 17.005 49.0825 17.0699 49.0664L17.4431 48.9374C17.4918 48.9052 17.5404 48.8569 17.5891 48.8085L17.6053 48.7924C17.654 48.7441 17.7027 48.6957 17.7351 48.6313L21.9053 41.9602L30.2617 55.4313H8.35645ZM47.5588 23.7355L40.3057 12.1659C40.2083 12.0209 40.0947 11.8919 39.9325 11.7953C39.397 11.473 38.6993 11.6341 38.3748 12.1659L35.7624 16.3393L34.8537 14.8246C34.7563 14.6796 34.6428 14.5507 34.4805 14.454C34.302 14.3412 34.0911 14.2929 33.8801 14.2929C33.799 14.2929 33.7016 14.309 33.6205 14.3251C33.3284 14.3896 33.0688 14.5668 32.9228 14.8246L27.4708 23.7355C27.3572 23.9128 27.3086 24.1062 27.3086 24.3156C27.3086 24.9441 27.8116 25.4436 28.4444 25.4436H46.6176C46.8286 25.4436 47.0395 25.3791 47.218 25.2664C47.4776 25.1052 47.6561 24.8635 47.721 24.5573C47.7697 24.2834 47.721 23.9773 47.5588 23.7355ZM30.5376 23.1393L33.9613 17.4995L34.8537 19.0142C34.9024 19.0626 34.9511 19.127 35.016 19.1754L35.0322 19.2076C35.0646 19.2559 35.1133 19.3043 35.162 19.3365C35.2107 19.3526 35.2594 19.3687 35.308 19.3848L35.3405 19.4009C35.4054 19.4332 35.4865 19.4654 35.5514 19.4815C35.6163 19.4976 35.6812 19.4976 35.7461 19.4815H35.9733L36.2329 19.3687H36.379C36.4276 19.3365 36.4601 19.3043 36.4925 19.2559L36.5088 19.2398C36.5737 19.1915 36.6223 19.127 36.671 19.0626L39.2834 14.8569L44.492 23.1393H30.5376ZM47.5588 23.7355L40.3057 12.1659C40.2083 12.0209 40.0947 11.8919 39.9325 11.7953C39.397 11.473 38.6993 11.6341 38.3748 12.1659L35.7624 16.3393L34.8537 14.8246C34.7563 14.6796 34.6428 14.5507 34.4805 14.454C34.302 14.3412 34.0911 14.2929 33.8801 14.2929C33.799 14.2929 33.7016 14.309 33.6205 14.3251C33.3284 14.3896 33.0688 14.5668 32.9228 14.8246L27.4708 23.7355C27.3572 23.9128 27.3086 24.1062 27.3086 24.3156C27.3086 24.9441 27.8116 25.4436 28.4444 25.4436H46.6176C46.8286 25.4436 47.0395 25.3791 47.218 25.2664C47.4776 25.1052 47.6561 24.8635 47.721 24.5573C47.7697 24.2834 47.721 23.9773 47.5588 23.7355ZM30.5376 23.1393L33.9613 17.4995L34.8537 19.0142C34.9024 19.0626 34.9511 19.127 35.016 19.1754L35.0322 19.2076C35.0646 19.2559 35.1133 19.3043 35.162 19.3365C35.2107 19.3526 35.2594 19.3687 35.308 19.3848L35.3405 19.4009C35.4054 19.4332 35.4865 19.4654 35.5514 19.4815C35.6163 19.4976 35.6812 19.4976 35.7461 19.4815H35.9733L36.2329 19.3687H36.379C36.4276 19.3365 36.4601 19.3043 36.4925 19.2559L36.5088 19.2398C36.5737 19.1915 36.6223 19.127 36.671 19.0626L39.2834 14.8569L44.492 23.1393H30.5376ZM29.061 11.6019C28.0712 11.6019 27.2761 12.3915 27.2761 13.3744C27.2761 14.3573 28.0712 15.1469 29.061 15.1469C30.0508 15.1469 30.8459 14.3573 30.8459 13.3744C30.8459 12.3915 30.0508 11.6019 29.061 11.6019ZM33.2798 55.963L22.9113 39.2209C22.8139 39.0758 22.7003 38.9469 22.5381 38.8664C22.2785 38.7052 21.9702 38.6569 21.6781 38.7213C21.386 38.7858 21.1264 38.963 20.9804 39.2209L16.8265 45.8919L15.1227 43.0882C15.0254 42.927 14.8956 42.782 14.7333 42.6853C14.5548 42.5725 14.3601 42.5242 14.1492 42.5242C13.7597 42.5242 13.3865 42.7175 13.1756 43.072L5.38707 55.963C5.28971 56.1403 5.22481 56.3336 5.22481 56.5431C5.22481 56.8493 5.33839 57.1232 5.56556 57.3488C5.7765 57.5583 6.06857 57.6711 6.36064 57.6711H32.3224C32.7281 57.655 33.0851 57.4294 33.2798 57.091C33.4745 56.7526 33.4745 56.3175 33.2798 55.963ZM8.35645 55.4313L14.279 45.8597L15.9665 48.6635C15.999 48.7118 16.0476 48.7763 16.1125 48.8246L16.1288 48.8408C16.1612 48.8891 16.2099 48.9374 16.2586 48.9697H16.3884L16.4371 49.0019C16.502 49.0341 16.5669 49.0502 16.6318 49.0664H16.8752C16.9401 49.0825 17.005 49.0825 17.0699 49.0664L17.4431 48.9374C17.4918 48.9052 17.5404 48.8569 17.5891 48.8085L17.6053 48.7924C17.654 48.7441 17.7027 48.6957 17.7351 48.6313L21.9053 41.9602L30.2617 55.4313H8.35645ZM7.6425 38.673C6.29573 38.673 5.20858 39.7526 5.20858 41.09C5.20858 42.4275 6.29573 43.5071 7.6425 43.5071C8.98927 43.5071 10.0764 42.4275 10.0764 41.09C10.0764 39.7526 8.98927 38.673 7.6425 38.673ZM7.6425 38.673C6.29573 38.673 5.20858 39.7526 5.20858 41.09C5.20858 42.4275 6.29573 43.5071 7.6425 43.5071C8.98927 43.5071 10.0764 42.4275 10.0764 41.09C10.0764 39.7526 8.98927 38.673 7.6425 38.673ZM29.061 11.6019C28.0712 11.6019 27.2761 12.3915 27.2761 13.3744C27.2761 14.3573 28.0712 15.1469 29.061 15.1469C30.0508 15.1469 30.8459 14.3573 30.8459 13.3744C30.8459 12.3915 30.0508 11.6019 29.061 11.6019ZM33.2798 55.963L22.9113 39.2209C22.8139 39.0758 22.7003 38.9469 22.5381 38.8664C22.2785 38.7052 21.9702 38.6569 21.6781 38.7213C21.386 38.7858 21.1264 38.963 20.9804 39.2209L16.8265 45.8919L15.1227 43.0882C15.0254 42.927 14.8956 42.782 14.7333 42.6853C14.5548 42.5725 14.3601 42.5242 14.1492 42.5242C13.7597 42.5242 13.3865 42.7175 13.1756 43.072L5.38707 55.963C5.28971 56.1403 5.22481 56.3336 5.22481 56.5431C5.22481 56.8493 5.33839 57.1232 5.56556 57.3488C5.7765 57.5583 6.06857 57.6711 6.36064 57.6711H32.3224C32.7281 57.655 33.0851 57.4294 33.2798 57.091C33.4745 56.7526 33.4745 56.3175 33.2798 55.963ZM8.35645 55.4313L14.279 45.8597L15.9665 48.6635C15.999 48.7118 16.0476 48.7763 16.1125 48.8246L16.1288 48.8408C16.1612 48.8891 16.2099 48.9374 16.2586 48.9697H16.3884L16.4371 49.0019C16.502 49.0341 16.5669 49.0502 16.6318 49.0664H16.8752C16.9401 49.0825 17.005 49.0825 17.0699 49.0664L17.4431 48.9374C17.4918 48.9052 17.5404 48.8569 17.5891 48.8085L17.6053 48.7924C17.654 48.7441 17.7027 48.6957 17.7351 48.6313L21.9053 41.9602L30.2617 55.4313H8.35645ZM47.5588 23.7355L40.3057 12.1659C40.2083 12.0209 40.0947 11.8919 39.9325 11.7953C39.397 11.473 38.6993 11.6341 38.3748 12.1659L35.7624 16.3393L34.8537 14.8246C34.7563 14.6796 34.6428 14.5507 34.4805 14.454C34.302 14.3412 34.0911 14.2929 33.8801 14.2929C33.799 14.2929 33.7016 14.309 33.6205 14.3251C33.3284 14.3896 33.0688 14.5668 32.9228 14.8246L27.4708 23.7355C27.3572 23.9128 27.3086 24.1062 27.3086 24.3156C27.3086 24.9441 27.8116 25.4436 28.4444 25.4436H46.6176C46.8286 25.4436 47.0395 25.3791 47.218 25.2664C47.4776 25.1052 47.6561 24.8635 47.721 24.5573C47.7697 24.2834 47.721 23.9773 47.5588 23.7355ZM30.5376 23.1393L33.9613 17.4995L34.8537 19.0142C34.9024 19.0626 34.9511 19.127 35.016 19.1754L35.0322 19.2076C35.0646 19.2559 35.1133 19.3043 35.162 19.3365C35.2107 19.3526 35.2594 19.3687 35.308 19.3848L35.3405 19.4009C35.4054 19.4332 35.4865 19.4654 35.5514 19.4815C35.6163 19.4976 35.6812 19.4976 35.7461 19.4815H35.9733L36.2329 19.3687H36.379C36.4276 19.3365 36.4601 19.3043 36.4925 19.2559L36.5088 19.2398C36.5737 19.1915 36.6223 19.127 36.671 19.0626L39.2834 14.8569L44.492 23.1393H30.5376ZM47.5588 23.7355L40.3057 12.1659C40.2083 12.0209 40.0947 11.8919 39.9325 11.7953C39.397 11.473 38.6993 11.6341 38.3748 12.1659L35.7624 16.3393L34.8537 14.8246C34.7563 14.6796 34.6428 14.5507 34.4805 14.454C34.302 14.3412 34.0911 14.2929 33.8801 14.2929C33.799 14.2929 33.7016 14.309 33.6205 14.3251C33.3284 14.3896 33.0688 14.5668 32.9228 14.8246L27.4708 23.7355C27.3572 23.9128 27.3086 24.1062 27.3086 24.3156C27.3086 24.9441 27.8116 25.4436 28.4444 25.4436H46.6176C46.8286 25.4436 47.0395 25.3791 47.218 25.2664C47.4776 25.1052 47.6561 24.8635 47.721 24.5573C47.7697 24.2834 47.721 23.9773 47.5588 23.7355ZM30.5376 23.1393L33.9613 17.4995L34.8537 19.0142C34.9024 19.0626 34.9511 19.127 35.016 19.1754L35.0322 19.2076C35.0646 19.2559 35.1133 19.3043 35.162 19.3365C35.2107 19.3526 35.2594 19.3687 35.308 19.3848L35.3405 19.4009C35.4054 19.4332 35.4865 19.4654 35.5514 19.4815C35.6163 19.4976 35.6812 19.4976 35.7461 19.4815H35.9733L36.2329 19.3687H36.379C36.4276 19.3365 36.4601 19.3043 36.4925 19.2559L36.5088 19.2398C36.5737 19.1915 36.6223 19.127 36.671 19.0626L39.2834 14.8569L44.492 23.1393H30.5376ZM29.061 15.1469C30.0508 15.1469 30.8459 14.3573 30.8459 13.3744C30.8459 12.3915 30.0508 11.6019 29.061 11.6019C28.0712 11.6019 27.2761 12.3915 27.2761 13.3744C27.2761 14.3573 28.0874 15.1469 29.061 15.1469ZM33.2798 55.963L22.9113 39.2209C22.8139 39.0758 22.7003 38.9469 22.5381 38.8664C22.2785 38.7052 21.9702 38.6569 21.6781 38.7213C21.386 38.7858 21.1264 38.963 20.9804 39.2209L16.8265 45.8919L15.1227 43.0882C15.0254 42.927 14.8956 42.782 14.7333 42.6853C14.5548 42.5725 14.3601 42.5242 14.1492 42.5242C13.7597 42.5242 13.3865 42.7175 13.1756 43.072L5.38707 55.963C5.28971 56.1403 5.22481 56.3336 5.22481 56.5431C5.22481 56.8493 5.33839 57.1232 5.56556 57.3488C5.7765 57.5583 6.06857 57.6711 6.36064 57.6711H32.3224C32.7281 57.655 33.0851 57.4294 33.2798 57.091C33.4745 56.7526 33.4745 56.3175 33.2798 55.963ZM8.35645 55.4313L14.279 45.8597L15.9665 48.6635C15.999 48.7118 16.0476 48.7763 16.1125 48.8246L16.1288 48.8408C16.1612 48.8891 16.2099 48.9374 16.2586 48.9697H16.3884L16.4371 49.0019C16.502 49.0341 16.5669 49.0502 16.6318 49.0664H16.8752C16.9401 49.0825 17.005 49.0825 17.0699 49.0664L17.4431 48.9374C17.4918 48.9052 17.5404 48.8569 17.5891 48.8085L17.6053 48.7924C17.654 48.7441 17.7027 48.6957 17.7351 48.6313L21.9053 41.9602L30.2617 55.4313H8.35645ZM7.6425 43.5071C8.98927 43.5071 10.0764 42.4275 10.0764 41.09C10.0764 39.7526 8.98927 38.673 7.6425 38.673C6.29573 38.673 5.20858 39.7526 5.20858 41.09C5.20858 42.4275 6.31196 43.5071 7.6425 43.5071ZM53.3677 1.2891H53.3028L53.2541 1.24076C52.5564 0.451185 51.5342 0 50.4795 0H43.989C43.3562 0 42.8532 0.499526 42.8532 1.12796C42.8532 4.06066 40.4517 6.4455 37.4986 6.4455C34.5454 6.4455 32.1439 4.06066 32.1439 1.12796C32.1439 0.499526 31.6409 0 31.0081 0H24.5177C23.463 0 22.4407 0.451185 21.743 1.24076L21.6943 1.2891H21.6294C16.7778 1.45024 12.9971 5.33365 12.9971 10.1517V19.1754C12.9971 21.2218 14.6684 22.8815 16.7291 22.8815H20.7857V33.5166H3.74823C1.68752 33.5166 0.0162261 35.1763 0.0162261 37.2228V59.1374C0.0162261 61.1839 1.68752 62.8436 3.74823 62.8436H34.9024C36.9631 62.8436 38.6344 61.1839 38.6344 59.1374V39.6398H50.4795C52.5402 39.6398 54.2115 37.9801 54.2115 35.9337V22.8815H58.268C60.3287 22.8815 62 21.2218 62 19.1754V10.1517C62 5.33365 58.2193 1.43412 53.3677 1.2891ZM16.7291 20.6256C15.9178 20.6256 15.2688 19.981 15.2688 19.1754V10.1517C15.2688 7.02559 17.508 4.30237 20.5909 3.67393L20.7857 3.64171V20.6256H16.7291ZM36.3627 59.1374C36.3627 59.9431 35.7137 60.5877 34.9024 60.5877H3.74823C2.93693 60.5877 2.28788 59.9431 2.28788 59.1374V37.2228C2.28788 36.4171 2.93693 35.7725 3.74823 35.7725H34.9024C35.7137 35.7725 36.3627 36.4171 36.3627 37.2228V59.1374ZM51.9398 35.9337C51.9398 36.7393 51.2908 37.3839 50.4795 37.3839H38.6344V37.2228C38.6344 35.1763 36.9631 33.5166 34.9024 33.5166H23.0573V3.70616C23.0573 2.90047 23.7064 2.25592 24.5177 2.25592H29.9696L29.9859 2.38483C30.5376 5.5109 33.0364 7.99242 36.1842 8.54029C38.1963 8.89479 40.2083 8.4436 41.8796 7.28341C43.5509 6.12322 44.6543 4.38294 45.0113 2.38483L45.0437 2.25592H50.4957C51.307 2.25592 51.956 2.90047 51.956 3.70616L51.9398 35.9337ZM59.7283 19.1754C59.7283 19.981 59.0793 20.6256 58.268 20.6256H54.2115V3.64171L54.4062 3.67393C57.4891 4.30237 59.7283 7.02559 59.7283 10.1517V19.1754ZM40.3057 12.1498C40.2083 12.0047 40.0947 11.8758 39.9325 11.7791C39.397 11.4569 38.6993 11.618 38.3748 12.1498L35.7624 16.3232L34.8537 14.8085C34.7563 14.6635 34.6428 14.5346 34.4805 14.4379C34.302 14.3251 34.0911 14.2768 33.8801 14.2768C33.799 14.2768 33.7016 14.2929 33.6205 14.309C33.3284 14.3735 33.0688 14.5507 32.9228 14.8085L27.4708 23.7194C27.3572 23.8967 27.3086 24.09 27.3086 24.2995C27.3086 24.928 27.8116 25.4275 28.4444 25.4275H46.6176C46.8286 25.4275 47.0395 25.363 47.218 25.2502C47.4776 25.0891 47.6561 24.8474 47.721 24.5412C47.7859 24.2512 47.7372 23.945 47.575 23.6872L40.3057 12.1498ZM30.5376 23.1393L33.9613 17.4995L34.8537 19.0142C34.9024 19.0626 34.9511 19.127 35.016 19.1754L35.0322 19.2076C35.0646 19.2559 35.1133 19.3043 35.162 19.3365C35.2107 19.3526 35.2594 19.3687 35.308 19.3848L35.3405 19.4009C35.4054 19.4332 35.4865 19.4654 35.5514 19.4815C35.6163 19.4976 35.6812 19.4976 35.7461 19.4815H35.9733L36.2329 19.3687H36.379C36.4276 19.3365 36.4601 19.3043 36.4925 19.2559L36.5088 19.2398C36.5737 19.1915 36.6223 19.127 36.671 19.0626L39.2834 14.8569L44.492 23.1393H30.5376ZM22.8951 39.2209C22.7977 39.0758 22.6841 38.9469 22.5219 38.8664C22.2622 38.7052 21.9539 38.6569 21.6619 38.7213C21.3698 38.7858 21.1102 38.963 20.9641 39.2209L16.8103 45.8919L15.1065 43.0882C15.0092 42.927 14.8794 42.782 14.7171 42.6853C14.5386 42.5725 14.3439 42.5242 14.1329 42.5242C13.7435 42.5242 13.3703 42.7175 13.1594 43.072L5.37084 55.963C5.27349 56.1403 5.20858 56.3336 5.20858 56.5431C5.20858 56.8493 5.32217 57.1232 5.54933 57.3488C5.76027 57.5583 6.05234 57.6711 6.34441 57.6711H32.3062C32.7119 57.655 33.0688 57.4294 33.2635 57.091C33.4583 56.7365 33.4745 56.3175 33.2635 55.963L22.8951 39.2209ZM8.35645 55.4313L14.279 45.8597L15.9665 48.6635C15.999 48.7118 16.0476 48.7763 16.1125 48.8246L16.1288 48.8408C16.1612 48.8891 16.2099 48.9374 16.2586 48.9697H16.3884L16.4371 49.0019C16.502 49.0341 16.5669 49.0502 16.6318 49.0664H16.8752C16.9401 49.0825 17.005 49.0825 17.0699 49.0664L17.4431 48.9374C17.4918 48.9052 17.5404 48.8569 17.5891 48.8085L17.6053 48.7924C17.654 48.7441 17.7027 48.6957 17.7351 48.6313L21.9053 41.9602L30.2617 55.4313H8.35645ZM29.061 15.1469C30.0508 15.1469 30.8459 14.3573 30.8459 13.3744C30.8459 12.3915 30.0508 11.6019 29.061 11.6019C28.0712 11.6019 27.2761 12.3915 27.2761 13.3744C27.2761 14.3573 28.0874 15.1469 29.061 15.1469ZM7.6425 43.5071C8.98927 43.5071 10.0764 42.4275 10.0764 41.09C10.0764 39.7526 8.98927 38.673 7.6425 38.673C6.29573 38.673 5.20858 39.7526 5.20858 41.09C5.20858 42.4275 6.31196 43.5071 7.6425 43.5071ZM7.6425 38.673C6.29573 38.673 5.20858 39.7526 5.20858 41.09C5.20858 42.4275 6.29573 43.5071 7.6425 43.5071C8.98927 43.5071 10.0764 42.4275 10.0764 41.09C10.0764 39.7526 8.98927 38.673 7.6425 38.673ZM33.2798 55.963L22.9113 39.2209C22.8139 39.0758 22.7003 38.9469 22.5381 38.8664C22.2785 38.7052 21.9702 38.6569 21.6781 38.7213C21.386 38.7858 21.1264 38.963 20.9804 39.2209L16.8265 45.8919L15.1227 43.0882C15.0254 42.927 14.8956 42.782 14.7333 42.6853C14.5548 42.5725 14.3601 42.5242 14.1492 42.5242C13.7597 42.5242 13.3865 42.7175 13.1756 43.072L5.38707 55.963C5.28971 56.1403 5.22481 56.3336 5.22481 56.5431C5.22481 56.8493 5.33839 57.1232 5.56556 57.3488C5.7765 57.5583 6.06857 57.6711 6.36064 57.6711H32.3224C32.7281 57.655 33.0851 57.4294 33.2798 57.091C33.4745 56.7526 33.4745 56.3175 33.2798 55.963ZM8.35645 55.4313L14.279 45.8597L15.9665 48.6635C15.999 48.7118 16.0476 48.7763 16.1125 48.8246L16.1288 48.8408C16.1612 48.8891 16.2099 48.9374 16.2586 48.9697H16.3884L16.4371 49.0019C16.502 49.0341 16.5669 49.0502 16.6318 49.0664H16.8752C16.9401 49.0825 17.005 49.0825 17.0699 49.0664L17.4431 48.9374C17.4918 48.9052 17.5404 48.8569 17.5891 48.8085L17.6053 48.7924C17.654 48.7441 17.7027 48.6957 17.7351 48.6313L21.9053 41.9602L30.2617 55.4313H8.35645ZM29.061 11.6019C28.0712 11.6019 27.2761 12.3915 27.2761 13.3744C27.2761 14.3573 28.0712 15.1469 29.061 15.1469C30.0508 15.1469 30.8459 14.3573 30.8459 13.3744C30.8459 12.3915 30.0508 11.6019 29.061 11.6019ZM47.5588 23.7355L40.3057 12.1659C40.2083 12.0209 40.0947 11.8919 39.9325 11.7953C39.397 11.473 38.6993 11.6341 38.3748 12.1659L35.7624 16.3393L34.8537 14.8246C34.7563 14.6796 34.6428 14.5507 34.4805 14.454C34.302 14.3412 34.0911 14.2929 33.8801 14.2929C33.799 14.2929 33.7016 14.309 33.6205 14.3251C33.3284 14.3896 33.0688 14.5668 32.9228 14.8246L27.4708 23.7355C27.3572 23.9128 27.3086 24.1062 27.3086 24.3156C27.3086 24.9441 27.8116 25.4436 28.4444 25.4436H46.6176C46.8286 25.4436 47.0395 25.3791 47.218 25.2664C47.4776 25.1052 47.6561 24.8635 47.721 24.5573C47.7697 24.2834 47.721 23.9773 47.5588 23.7355ZM30.5376 23.1393L33.9613 17.4995L34.8537 19.0142C34.9024 19.0626 34.9511 19.127 35.016 19.1754L35.0322 19.2076C35.0646 19.2559 35.1133 19.3043 35.162 19.3365C35.2107 19.3526 35.2594 19.3687 35.308 19.3848L35.3405 19.4009C35.4054 19.4332 35.4865 19.4654 35.5514 19.4815C35.6163 19.4976 35.6812 19.4976 35.7461 19.4815H35.9733L36.2329 19.3687H36.379C36.4276 19.3365 36.4601 19.3043 36.4925 19.2559L36.5088 19.2398C36.5737 19.1915 36.6223 19.127 36.671 19.0626L39.2834 14.8569L44.492 23.1393H30.5376ZM47.5588 23.7355L40.3057 12.1659C40.2083 12.0209 40.0947 11.8919 39.9325 11.7953C39.397 11.473 38.6993 11.6341 38.3748 12.1659L35.7624 16.3393L34.8537 14.8246C34.7563 14.6796 34.6428 14.5507 34.4805 14.454C34.302 14.3412 34.0911 14.2929 33.8801 14.2929C33.799 14.2929 33.7016 14.309 33.6205 14.3251C33.3284 14.3896 33.0688 14.5668 32.9228 14.8246L27.4708 23.7355C27.3572 23.9128 27.3086 24.1062 27.3086 24.3156C27.3086 24.9441 27.8116 25.4436 28.4444 25.4436H46.6176C46.8286 25.4436 47.0395 25.3791 47.218 25.2664C47.4776 25.1052 47.6561 24.8635 47.721 24.5573C47.7697 24.2834 47.721 23.9773 47.5588 23.7355ZM30.5376 23.1393L33.9613 17.4995L34.8537 19.0142C34.9024 19.0626 34.9511 19.127 35.016 19.1754L35.0322 19.2076C35.0646 19.2559 35.1133 19.3043 35.162 19.3365C35.2107 19.3526 35.2594 19.3687 35.308 19.3848L35.3405 19.4009C35.4054 19.4332 35.4865 19.4654 35.5514 19.4815C35.6163 19.4976 35.6812 19.4976 35.7461 19.4815H35.9733L36.2329 19.3687H36.379C36.4276 19.3365 36.4601 19.3043 36.4925 19.2559L36.5088 19.2398C36.5737 19.1915 36.6223 19.127 36.671 19.0626L39.2834 14.8569L44.492 23.1393H30.5376ZM33.2798 55.963L22.9113 39.2209C22.8139 39.0758 22.7003 38.9469 22.5381 38.8664C22.2785 38.7052 21.9702 38.6569 21.6781 38.7213C21.386 38.7858 21.1264 38.963 20.9804 39.2209L16.8265 45.8919L15.1227 43.0882C15.0254 42.927 14.8956 42.782 14.7333 42.6853C14.5548 42.5725 14.3601 42.5242 14.1492 42.5242C13.7597 42.5242 13.3865 42.7175 13.1756 43.072L5.38707 55.963C5.28971 56.1403 5.22481 56.3336 5.22481 56.5431C5.22481 56.8493 5.33839 57.1232 5.56556 57.3488C5.7765 57.5583 6.06857 57.6711 6.36064 57.6711H32.3224C32.7281 57.655 33.0851 57.4294 33.2798 57.091C33.4745 56.7526 33.4745 56.3175 33.2798 55.963ZM8.35645 55.4313L14.279 45.8597L15.9665 48.6635C15.999 48.7118 16.0476 48.7763 16.1125 48.8246L16.1288 48.8408C16.1612 48.8891 16.2099 48.9374 16.2586 48.9697H16.3884L16.4371 49.0019C16.502 49.0341 16.5669 49.0502 16.6318 49.0664H16.8752C16.9401 49.0825 17.005 49.0825 17.0699 49.0664L17.4431 48.9374C17.4918 48.9052 17.5404 48.8569 17.5891 48.8085L17.6053 48.7924C17.654 48.7441 17.7027 48.6957 17.7351 48.6313L21.9053 41.9602L30.2617 55.4313H8.35645ZM29.061 11.6019C28.0712 11.6019 27.2761 12.3915 27.2761 13.3744C27.2761 14.3573 28.0712 15.1469 29.061 15.1469C30.0508 15.1469 30.8459 14.3573 30.8459 13.3744C30.8459 12.3915 30.0508 11.6019 29.061 11.6019ZM7.6425 38.673C6.29573 38.673 5.20858 39.7526 5.20858 41.09C5.20858 42.4275 6.29573 43.5071 7.6425 43.5071C8.98927 43.5071 10.0764 42.4275 10.0764 41.09C10.0764 39.7526 8.98927 38.673 7.6425 38.673ZM7.6425 38.673C6.29573 38.673 5.20858 39.7526 5.20858 41.09C5.20858 42.4275 6.29573 43.5071 7.6425 43.5071C8.98927 43.5071 10.0764 42.4275 10.0764 41.09C10.0764 39.7526 8.98927 38.673 7.6425 38.673ZM33.2798 55.963L22.9113 39.2209C22.8139 39.0758 22.7003 38.9469 22.5381 38.8664C22.2785 38.7052 21.9702 38.6569 21.6781 38.7213C21.386 38.7858 21.1264 38.963 20.9804 39.2209L16.8265 45.8919L15.1227 43.0882C15.0254 42.927 14.8956 42.782 14.7333 42.6853C14.5548 42.5725 14.3601 42.5242 14.1492 42.5242C13.7597 42.5242 13.3865 42.7175 13.1756 43.072L5.38707 55.963C5.28971 56.1403 5.22481 56.3336 5.22481 56.5431C5.22481 56.8493 5.33839 57.1232 5.56556 57.3488C5.7765 57.5583 6.06857 57.6711 6.36064 57.6711H32.3224C32.7281 57.655 33.0851 57.4294 33.2798 57.091C33.4745 56.7526 33.4745 56.3175 33.2798 55.963ZM8.35645 55.4313L14.279 45.8597L15.9665 48.6635C15.999 48.7118 16.0476 48.7763 16.1125 48.8246L16.1288 48.8408C16.1612 48.8891 16.2099 48.9374 16.2586 48.9697H16.3884L16.4371 49.0019C16.502 49.0341 16.5669 49.0502 16.6318 49.0664H16.8752C16.9401 49.0825 17.005 49.0825 17.0699 49.0664L17.4431 48.9374C17.4918 48.9052 17.5404 48.8569 17.5891 48.8085L17.6053 48.7924C17.654 48.7441 17.7027 48.6957 17.7351 48.6313L21.9053 41.9602L30.2617 55.4313H8.35645ZM29.061 11.6019C28.0712 11.6019 27.2761 12.3915 27.2761 13.3744C27.2761 14.3573 28.0712 15.1469 29.061 15.1469C30.0508 15.1469 30.8459 14.3573 30.8459 13.3744C30.8459 12.3915 30.0508 11.6019 29.061 11.6019ZM47.5588 23.7355L40.3057 12.1659C40.2083 12.0209 40.0947 11.8919 39.9325 11.7953C39.397 11.473 38.6993 11.6341 38.3748 12.1659L35.7624 16.3393L34.8537 14.8246C34.7563 14.6796 34.6428 14.5507 34.4805 14.454C34.302 14.3412 34.0911 14.2929 33.8801 14.2929C33.799 14.2929 33.7016 14.309 33.6205 14.3251C33.3284 14.3896 33.0688 14.5668 32.9228 14.8246L27.4708 23.7355C27.3572 23.9128 27.3086 24.1062 27.3086 24.3156C27.3086 24.9441 27.8116 25.4436 28.4444 25.4436H46.6176C46.8286 25.4436 47.0395 25.3791 47.218 25.2664C47.4776 25.1052 47.6561 24.8635 47.721 24.5573C47.7697 24.2834 47.721 23.9773 47.5588 23.7355ZM30.5376 23.1393L33.9613 17.4995L34.8537 19.0142C34.9024 19.0626 34.9511 19.127 35.016 19.1754L35.0322 19.2076C35.0646 19.2559 35.1133 19.3043 35.162 19.3365C35.2107 19.3526 35.2594 19.3687 35.308 19.3848L35.3405 19.4009C35.4054 19.4332 35.4865 19.4654 35.5514 19.4815C35.6163 19.4976 35.6812 19.4976 35.7461 19.4815H35.9733L36.2329 19.3687H36.379C36.4276 19.3365 36.4601 19.3043 36.4925 19.2559L36.5088 19.2398C36.5737 19.1915 36.6223 19.127 36.671 19.0626L39.2834 14.8569L44.492 23.1393H30.5376ZM47.5588 23.7355L40.3057 12.1659C40.2083 12.0209 40.0947 11.8919 39.9325 11.7953C39.397 11.473 38.6993 11.6341 38.3748 12.1659L35.7624 16.3393L34.8537 14.8246C34.7563 14.6796 34.6428 14.5507 34.4805 14.454C34.302 14.3412 34.0911 14.2929 33.8801 14.2929C33.799 14.2929 33.7016 14.309 33.6205 14.3251C33.3284 14.3896 33.0688 14.5668 32.9228 14.8246L27.4708 23.7355C27.3572 23.9128 27.3086 24.1062 27.3086 24.3156C27.3086 24.9441 27.8116 25.4436 28.4444 25.4436H46.6176C46.8286 25.4436 47.0395 25.3791 47.218 25.2664C47.4776 25.1052 47.6561 24.8635 47.721 24.5573C47.7697 24.2834 47.721 23.9773 47.5588 23.7355ZM30.5376 23.1393L33.9613 17.4995L34.8537 19.0142C34.9024 19.0626 34.9511 19.127 35.016 19.1754L35.0322 19.2076C35.0646 19.2559 35.1133 19.3043 35.162 19.3365C35.2107 19.3526 35.2594 19.3687 35.308 19.3848L35.3405 19.4009C35.4054 19.4332 35.4865 19.4654 35.5514 19.4815C35.6163 19.4976 35.6812 19.4976 35.7461 19.4815H35.9733L36.2329 19.3687H36.379C36.4276 19.3365 36.4601 19.3043 36.4925 19.2559L36.5088 19.2398C36.5737 19.1915 36.6223 19.127 36.671 19.0626L39.2834 14.8569L44.492 23.1393H30.5376ZM33.2798 55.963L22.9113 39.2209C22.8139 39.0758 22.7003 38.9469 22.5381 38.8664C22.2785 38.7052 21.9702 38.6569 21.6781 38.7213C21.386 38.7858 21.1264 38.963 20.9804 39.2209L16.8265 45.8919L15.1227 43.0882C15.0254 42.927 14.8956 42.782 14.7333 42.6853C14.5548 42.5725 14.3601 42.5242 14.1492 42.5242C13.7597 42.5242 13.3865 42.7175 13.1756 43.072L5.38707 55.963C5.28971 56.1403 5.22481 56.3336 5.22481 56.5431C5.22481 56.8493 5.33839 57.1232 5.56556 57.3488C5.7765 57.5583 6.06857 57.6711 6.36064 57.6711H32.3224C32.7281 57.655 33.0851 57.4294 33.2798 57.091C33.4745 56.7526 33.4745 56.3175 33.2798 55.963ZM8.35645 55.4313L14.279 45.8597L15.9665 48.6635C15.999 48.7118 16.0476 48.7763 16.1125 48.8246L16.1288 48.8408C16.1612 48.8891 16.2099 48.9374 16.2586 48.9697H16.3884L16.4371 49.0019C16.502 49.0341 16.5669 49.0502 16.6318 49.0664H16.8752C16.9401 49.0825 17.005 49.0825 17.0699 49.0664L17.4431 48.9374C17.4918 48.9052 17.5404 48.8569 17.5891 48.8085L17.6053 48.7924C17.654 48.7441 17.7027 48.6957 17.7351 48.6313L21.9053 41.9602L30.2617 55.4313H8.35645ZM29.061 11.6019C28.0712 11.6019 27.2761 12.3915 27.2761 13.3744C27.2761 14.3573 28.0712 15.1469 29.061 15.1469C30.0508 15.1469 30.8459 14.3573 30.8459 13.3744C30.8459 12.3915 30.0508 11.6019 29.061 11.6019ZM7.6425 38.673C6.29573 38.673 5.20858 39.7526 5.20858 41.09C5.20858 42.4275 6.29573 43.5071 7.6425 43.5071C8.98927 43.5071 10.0764 42.4275 10.0764 41.09C10.0764 39.7526 8.98927 38.673 7.6425 38.673ZM7.6425 38.673C6.29573 38.673 5.20858 39.7526 5.20858 41.09C5.20858 42.4275 6.29573 43.5071 7.6425 43.5071C8.98927 43.5071 10.0764 42.4275 10.0764 41.09C10.0764 39.7526 8.98927 38.673 7.6425 38.673ZM33.2798 55.963L22.9113 39.2209C22.8139 39.0758 22.7003 38.9469 22.5381 38.8664C22.2785 38.7052 21.9702 38.6569 21.6781 38.7213C21.386 38.7858 21.1264 38.963 20.9804 39.2209L16.8265 45.8919L15.1227 43.0882C15.0254 42.927 14.8956 42.782 14.7333 42.6853C14.5548 42.5725 14.3601 42.5242 14.1492 42.5242C13.7597 42.5242 13.3865 42.7175 13.1756 43.072L5.38707 55.963C5.28971 56.1403 5.22481 56.3336 5.22481 56.5431C5.22481 56.8493 5.33839 57.1232 5.56556 57.3488C5.7765 57.5583 6.06857 57.6711 6.36064 57.6711H32.3224C32.7281 57.655 33.0851 57.4294 33.2798 57.091C33.4745 56.7526 33.4745 56.3175 33.2798 55.963ZM8.35645 55.4313L14.279 45.8597L15.9665 48.6635C15.999 48.7118 16.0476 48.7763 16.1125 48.8246L16.1288 48.8408C16.1612 48.8891 16.2099 48.9374 16.2586 48.9697H16.3884L16.4371 49.0019C16.502 49.0341 16.5669 49.0502 16.6318 49.0664H16.8752C16.9401 49.0825 17.005 49.0825 17.0699 49.0664L17.4431 48.9374C17.4918 48.9052 17.5404 48.8569 17.5891 48.8085L17.6053 48.7924C17.654 48.7441 17.7027 48.6957 17.7351 48.6313L21.9053 41.9602L30.2617 55.4313H8.35645ZM29.061 11.6019C28.0712 11.6019 27.2761 12.3915 27.2761 13.3744C27.2761 14.3573 28.0712 15.1469 29.061 15.1469C30.0508 15.1469 30.8459 14.3573 30.8459 13.3744C30.8459 12.3915 30.0508 11.6019 29.061 11.6019ZM47.5588 23.7355L40.3057 12.1659C40.2083 12.0209 40.0947 11.8919 39.9325 11.7953C39.397 11.473 38.6993 11.6341 38.3748 12.1659L35.7624 16.3393L34.8537 14.8246C34.7563 14.6796 34.6428 14.5507 34.4805 14.454C34.302 14.3412 34.0911 14.2929 33.8801 14.2929C33.799 14.2929 33.7016 14.309 33.6205 14.3251C33.3284 14.3896 33.0688 14.5668 32.9228 14.8246L27.4708 23.7355C27.3572 23.9128 27.3086 24.1062 27.3086 24.3156C27.3086 24.9441 27.8116 25.4436 28.4444 25.4436H46.6176C46.8286 25.4436 47.0395 25.3791 47.218 25.2664C47.4776 25.1052 47.6561 24.8635 47.721 24.5573C47.7697 24.2834 47.721 23.9773 47.5588 23.7355ZM30.5376 23.1393L33.9613 17.4995L34.8537 19.0142C34.9024 19.0626 34.9511 19.127 35.016 19.1754L35.0322 19.2076C35.0646 19.2559 35.1133 19.3043 35.162 19.3365C35.2107 19.3526 35.2594 19.3687 35.308 19.3848L35.3405 19.4009C35.4054 19.4332 35.4865 19.4654 35.5514 19.4815C35.6163 19.4976 35.6812 19.4976 35.7461 19.4815H35.9733L36.2329 19.3687H36.379C36.4276 19.3365 36.4601 19.3043 36.4925 19.2559L36.5088 19.2398C36.5737 19.1915 36.6223 19.127 36.671 19.0626L39.2834 14.8569L44.492 23.1393H30.5376ZM47.5588 23.7355L40.3057 12.1659C40.2083 12.0209 40.0947 11.8919 39.9325 11.7953C39.397 11.473 38.6993 11.6341 38.3748 12.1659L35.7624 16.3393L34.8537 14.8246C34.7563 14.6796 34.6428 14.5507 34.4805 14.454C34.302 14.3412 34.0911 14.2929 33.8801 14.2929C33.799 14.2929 33.7016 14.309 33.6205 14.3251C33.3284 14.3896 33.0688 14.5668 32.9228 14.8246L27.4708 23.7355C27.3572 23.9128 27.3086 24.1062 27.3086 24.3156C27.3086 24.9441 27.8116 25.4436 28.4444 25.4436H46.6176C46.8286 25.4436 47.0395 25.3791 47.218 25.2664C47.4776 25.1052 47.6561 24.8635 47.721 24.5573C47.7697 24.2834 47.721 23.9773 47.5588 23.7355ZM30.5376 23.1393L33.9613 17.4995L34.8537 19.0142C34.9024 19.0626 34.9511 19.127 35.016 19.1754L35.0322 19.2076C35.0646 19.2559 35.1133 19.3043 35.162 19.3365C35.2107 19.3526 35.2594 19.3687 35.308 19.3848L35.3405 19.4009C35.4054 19.4332 35.4865 19.4654 35.5514 19.4815C35.6163 19.4976 35.6812 19.4976 35.7461 19.4815H35.9733L36.2329 19.3687H36.379C36.4276 19.3365 36.4601 19.3043 36.4925 19.2559L36.5088 19.2398C36.5737 19.1915 36.6223 19.127 36.671 19.0626L39.2834 14.8569L44.492 23.1393H30.5376ZM33.2798 55.963L22.9113 39.2209C22.8139 39.0758 22.7003 38.9469 22.5381 38.8664C22.2785 38.7052 21.9702 38.6569 21.6781 38.7213C21.386 38.7858 21.1264 38.963 20.9804 39.2209L16.8265 45.8919L15.1227 43.0882C15.0254 42.927 14.8956 42.782 14.7333 42.6853C14.5548 42.5725 14.3601 42.5242 14.1492 42.5242C13.7597 42.5242 13.3865 42.7175 13.1756 43.072L5.38707 55.963C5.28971 56.1403 5.22481 56.3336 5.22481 56.5431C5.22481 56.8493 5.33839 57.1232 5.56556 57.3488C5.7765 57.5583 6.06857 57.6711 6.36064 57.6711H32.3224C32.7281 57.655 33.0851 57.4294 33.2798 57.091C33.4745 56.7526 33.4745 56.3175 33.2798 55.963ZM8.35645 55.4313L14.279 45.8597L15.9665 48.6635C15.999 48.7118 16.0476 48.7763 16.1125 48.8246L16.1288 48.8408C16.1612 48.8891 16.2099 48.9374 16.2586 48.9697H16.3884L16.4371 49.0019C16.502 49.0341 16.5669 49.0502 16.6318 49.0664H16.8752C16.9401 49.0825 17.005 49.0825 17.0699 49.0664L17.4431 48.9374C17.4918 48.9052 17.5404 48.8569 17.5891 48.8085L17.6053 48.7924C17.654 48.7441 17.7027 48.6957 17.7351 48.6313L21.9053 41.9602L30.2617 55.4313H8.35645ZM29.061 11.6019C28.0712 11.6019 27.2761 12.3915 27.2761 13.3744C27.2761 14.3573 28.0712 15.1469 29.061 15.1469C30.0508 15.1469 30.8459 14.3573 30.8459 13.3744C30.8459 12.3915 30.0508 11.6019 29.061 11.6019ZM7.6425 38.673C6.29573 38.673 5.20858 39.7526 5.20858 41.09C5.20858 42.4275 6.29573 43.5071 7.6425 43.5071C8.98927 43.5071 10.0764 42.4275 10.0764 41.09C10.0764 39.7526 8.98927 38.673 7.6425 38.673ZM7.6425 38.673C6.29573 38.673 5.20858 39.7526 5.20858 41.09C5.20858 42.4275 6.29573 43.5071 7.6425 43.5071C8.98927 43.5071 10.0764 42.4275 10.0764 41.09C10.0764 39.7526 8.98927 38.673 7.6425 38.673ZM33.2798 55.963L22.9113 39.2209C22.8139 39.0758 22.7003 38.9469 22.5381 38.8664C22.2785 38.7052 21.9702 38.6569 21.6781 38.7213C21.386 38.7858 21.1264 38.963 20.9804 39.2209L16.8265 45.8919L15.1227 43.0882C15.0254 42.927 14.8956 42.782 14.7333 42.6853C14.5548 42.5725 14.3601 42.5242 14.1492 42.5242C13.7597 42.5242 13.3865 42.7175 13.1756 43.072L5.38707 55.963C5.28971 56.1403 5.22481 56.3336 5.22481 56.5431C5.22481 56.8493 5.33839 57.1232 5.56556 57.3488C5.7765 57.5583 6.06857 57.6711 6.36064 57.6711H32.3224C32.7281 57.655 33.0851 57.4294 33.2798 57.091C33.4745 56.7526 33.4745 56.3175 33.2798 55.963ZM8.35645 55.4313L14.279 45.8597L15.9665 48.6635C15.999 48.7118 16.0476 48.7763 16.1125 48.8246L16.1288 48.8408C16.1612 48.8891 16.2099 48.9374 16.2586 48.9697H16.3884L16.4371 49.0019C16.502 49.0341 16.5669 49.0502 16.6318 49.0664H16.8752C16.9401 49.0825 17.005 49.0825 17.0699 49.0664L17.4431 48.9374C17.4918 48.9052 17.5404 48.8569 17.5891 48.8085L17.6053 48.7924C17.654 48.7441 17.7027 48.6957 17.7351 48.6313L21.9053 41.9602L30.2617 55.4313H8.35645ZM29.061 11.6019C28.0712 11.6019 27.2761 12.3915 27.2761 13.3744C27.2761 14.3573 28.0712 15.1469 29.061 15.1469C30.0508 15.1469 30.8459 14.3573 30.8459 13.3744C30.8459 12.3915 30.0508 11.6019 29.061 11.6019ZM47.5588 23.7355L40.3057 12.1659C40.2083 12.0209 40.0947 11.8919 39.9325 11.7953C39.397 11.473 38.6993 11.6341 38.3748 12.1659L35.7624 16.3393L34.8537 14.8246C34.7563 14.6796 34.6428 14.5507 34.4805 14.454C34.302 14.3412 34.0911 14.2929 33.8801 14.2929C33.799 14.2929 33.7016 14.309 33.6205 14.3251C33.3284 14.3896 33.0688 14.5668 32.9228 14.8246L27.4708 23.7355C27.3572 23.9128 27.3086 24.1062 27.3086 24.3156C27.3086 24.9441 27.8116 25.4436 28.4444 25.4436H46.6176C46.8286 25.4436 47.0395 25.3791 47.218 25.2664C47.4776 25.1052 47.6561 24.8635 47.721 24.5573C47.7697 24.2834 47.721 23.9773 47.5588 23.7355ZM30.5376 23.1393L33.9613 17.4995L34.8537 19.0142C34.9024 19.0626 34.9511 19.127 35.016 19.1754L35.0322 19.2076C35.0646 19.2559 35.1133 19.3043 35.162 19.3365C35.2107 19.3526 35.2594 19.3687 35.308 19.3848L35.3405 19.4009C35.4054 19.4332 35.4865 19.4654 35.5514 19.4815C35.6163 19.4976 35.6812 19.4976 35.7461 19.4815H35.9733L36.2329 19.3687H36.379C36.4276 19.3365 36.4601 19.3043 36.4925 19.2559L36.5088 19.2398C36.5737 19.1915 36.6223 19.127 36.671 19.0626L39.2834 14.8569L44.492 23.1393H30.5376ZM47.5588 23.7355L40.3057 12.1659C40.2083 12.0209 40.0947 11.8919 39.9325 11.7953C39.397 11.473 38.6993 11.6341 38.3748 12.1659L35.7624 16.3393L34.8537 14.8246C34.7563 14.6796 34.6428 14.5507 34.4805 14.454C34.302 14.3412 34.0911 14.2929 33.8801 14.2929C33.799 14.2929 33.7016 14.309 33.6205 14.3251C33.3284 14.3896 33.0688 14.5668 32.9228 14.8246L27.4708 23.7355C27.3572 23.9128 27.3086 24.1062 27.3086 24.3156C27.3086 24.9441 27.8116 25.4436 28.4444 25.4436H46.6176C46.8286 25.4436 47.0395 25.3791 47.218 25.2664C47.4776 25.1052 47.6561 24.8635 47.721 24.5573C47.7697 24.2834 47.721 23.9773 47.5588 23.7355ZM30.5376 23.1393L33.9613 17.4995L34.8537 19.0142C34.9024 19.0626 34.9511 19.127 35.016 19.1754L35.0322 19.2076C35.0646 19.2559 35.1133 19.3043 35.162 19.3365C35.2107 19.3526 35.2594 19.3687 35.308 19.3848L35.3405 19.4009C35.4054 19.4332 35.4865 19.4654 35.5514 19.4815C35.6163 19.4976 35.6812 19.4976 35.7461 19.4815H35.9733L36.2329 19.3687H36.379C36.4276 19.3365 36.4601 19.3043 36.4925 19.2559L36.5088 19.2398C36.5737 19.1915 36.6223 19.127 36.671 19.0626L39.2834 14.8569L44.492 23.1393H30.5376ZM33.2798 55.963L22.9113 39.2209C22.8139 39.0758 22.7003 38.9469 22.5381 38.8664C22.2785 38.7052 21.9702 38.6569 21.6781 38.7213C21.386 38.7858 21.1264 38.963 20.9804 39.2209L16.8265 45.8919L15.1227 43.0882C15.0254 42.927 14.8956 42.782 14.7333 42.6853C14.5548 42.5725 14.3601 42.5242 14.1492 42.5242C13.7597 42.5242 13.3865 42.7175 13.1756 43.072L5.38707 55.963C5.28971 56.1403 5.22481 56.3336 5.22481 56.5431C5.22481 56.8493 5.33839 57.1232 5.56556 57.3488C5.7765 57.5583 6.06857 57.6711 6.36064 57.6711H32.3224C32.7281 57.655 33.0851 57.4294 33.2798 57.091C33.4745 56.7526 33.4745 56.3175 33.2798 55.963ZM8.35645 55.4313L14.279 45.8597L15.9665 48.6635C15.999 48.7118 16.0476 48.7763 16.1125 48.8246L16.1288 48.8408C16.1612 48.8891 16.2099 48.9374 16.2586 48.9697H16.3884L16.4371 49.0019C16.502 49.0341 16.5669 49.0502 16.6318 49.0664H16.8752C16.9401 49.0825 17.005 49.0825 17.0699 49.0664L17.4431 48.9374C17.4918 48.9052 17.5404 48.8569 17.5891 48.8085L17.6053 48.7924C17.654 48.7441 17.7027 48.6957 17.7351 48.6313L21.9053 41.9602L30.2617 55.4313H8.35645ZM29.061 11.6019C28.0712 11.6019 27.2761 12.3915 27.2761 13.3744C27.2761 14.3573 28.0712 15.1469 29.061 15.1469C30.0508 15.1469 30.8459 14.3573 30.8459 13.3744C30.8459 12.3915 30.0508 11.6019 29.061 11.6019ZM7.6425 38.673C6.29573 38.673 5.20858 39.7526 5.20858 41.09C5.20858 42.4275 6.29573 43.5071 7.6425 43.5071C8.98927 43.5071 10.0764 42.4275 10.0764 41.09C10.0764 39.7526 8.98927 38.673 7.6425 38.673ZM29.061 11.6019C28.0712 11.6019 27.2761 12.3915 27.2761 13.3744C27.2761 14.3573 28.0712 15.1469 29.061 15.1469C30.0508 15.1469 30.8459 14.3573 30.8459 13.3744C30.8459 12.3915 30.0508 11.6019 29.061 11.6019ZM47.5588 23.7355L40.3057 12.1659C40.2083 12.0209 40.0947 11.8919 39.9325 11.7953C39.397 11.473 38.6993 11.6341 38.3748 12.1659L35.7624 16.3393L34.8537 14.8246C34.7563 14.6796 34.6428 14.5507 34.4805 14.454C34.302 14.3412 34.0911 14.2929 33.8801 14.2929C33.799 14.2929 33.7016 14.309 33.6205 14.3251C33.3284 14.3896 33.0688 14.5668 32.9228 14.8246L27.4708 23.7355C27.3572 23.9128 27.3086 24.1062 27.3086 24.3156C27.3086 24.9441 27.8116 25.4436 28.4444 25.4436H46.6176C46.8286 25.4436 47.0395 25.3791 47.218 25.2664C47.4776 25.1052 47.6561 24.8635 47.721 24.5573C47.7697 24.2834 47.721 23.9773 47.5588 23.7355ZM30.5376 23.1393L33.9613 17.4995L34.8537 19.0142C34.9024 19.0626 34.9511 19.127 35.016 19.1754L35.0322 19.2076C35.0646 19.2559 35.1133 19.3043 35.162 19.3365C35.2107 19.3526 35.2594 19.3687 35.308 19.3848L35.3405 19.4009C35.4054 19.4332 35.4865 19.4654 35.5514 19.4815C35.6163 19.4976 35.6812 19.4976 35.7461 19.4815H35.9733L36.2329 19.3687H36.379C36.4276 19.3365 36.4601 19.3043 36.4925 19.2559L36.5088 19.2398C36.5737 19.1915 36.6223 19.127 36.671 19.0626L39.2834 14.8569L44.492 23.1393H30.5376ZM7.6425 38.673C6.29573 38.673 5.20858 39.7526 5.20858 41.09C5.20858 42.4275 6.29573 43.5071 7.6425 43.5071C8.98927 43.5071 10.0764 42.4275 10.0764 41.09C10.0764 39.7526 8.98927 38.673 7.6425 38.673ZM33.2798 55.963L22.9113 39.2209C22.8139 39.0758 22.7003 38.9469 22.5381 38.8664C22.2785 38.7052 21.9702 38.6569 21.6781 38.7213C21.386 38.7858 21.1264 38.963 20.9804 39.2209L16.8265 45.8919L15.1227 43.0882C15.0254 42.927 14.8956 42.782 14.7333 42.6853C14.5548 42.5725 14.3601 42.5242 14.1492 42.5242C13.7597 42.5242 13.3865 42.7175 13.1756 43.072L5.38707 55.963C5.28971 56.1403 5.22481 56.3336 5.22481 56.5431C5.22481 56.8493 5.33839 57.1232 5.56556 57.3488C5.7765 57.5583 6.06857 57.6711 6.36064 57.6711H32.3224C32.7281 57.655 33.0851 57.4294 33.2798 57.091C33.4745 56.7526 33.4745 56.3175 33.2798 55.963ZM8.35645 55.4313L14.279 45.8597L15.9665 48.6635C15.999 48.7118 16.0476 48.7763 16.1125 48.8246L16.1288 48.8408C16.1612 48.8891 16.2099 48.9374 16.2586 48.9697H16.3884L16.4371 49.0019C16.502 49.0341 16.5669 49.0502 16.6318 49.0664H16.8752C16.9401 49.0825 17.005 49.0825 17.0699 49.0664L17.4431 48.9374C17.4918 48.9052 17.5404 48.8569 17.5891 48.8085L17.6053 48.7924C17.654 48.7441 17.7027 48.6957 17.7351 48.6313L21.9053 41.9602L30.2617 55.4313H8.35645ZM47.5588 23.7355L40.3057 12.1659C40.2083 12.0209 40.0947 11.8919 39.9325 11.7953C39.397 11.473 38.6993 11.6341 38.3748 12.1659L35.7624 16.3393L34.8537 14.8246C34.7563 14.6796 34.6428 14.5507 34.4805 14.454C34.302 14.3412 34.0911 14.2929 33.8801 14.2929C33.799 14.2929 33.7016 14.309 33.6205 14.3251C33.3284 14.3896 33.0688 14.5668 32.9228 14.8246L27.4708 23.7355C27.3572 23.9128 27.3086 24.1062 27.3086 24.3156C27.3086 24.9441 27.8116 25.4436 28.4444 25.4436H46.6176C46.8286 25.4436 47.0395 25.3791 47.218 25.2664C47.4776 25.1052 47.6561 24.8635 47.721 24.5573C47.7697 24.2834 47.721 23.9773 47.5588 23.7355ZM30.5376 23.1393L33.9613 17.4995L34.8537 19.0142C34.9024 19.0626 34.9511 19.127 35.016 19.1754L35.0322 19.2076C35.0646 19.2559 35.1133 19.3043 35.162 19.3365C35.2107 19.3526 35.2594 19.3687 35.308 19.3848L35.3405 19.4009C35.4054 19.4332 35.4865 19.4654 35.5514 19.4815C35.6163 19.4976 35.6812 19.4976 35.7461 19.4815H35.9733L36.2329 19.3687H36.379C36.4276 19.3365 36.4601 19.3043 36.4925 19.2559L36.5088 19.2398C36.5737 19.1915 36.6223 19.127 36.671 19.0626L39.2834 14.8569L44.492 23.1393H30.5376ZM33.2798 55.963L22.9113 39.2209C22.8139 39.0758 22.7003 38.9469 22.5381 38.8664C22.2785 38.7052 21.9702 38.6569 21.6781 38.7213C21.386 38.7858 21.1264 38.963 20.9804 39.2209L16.8265 45.8919L15.1227 43.0882C15.0254 42.927 14.8956 42.782 14.7333 42.6853C14.5548 42.5725 14.3601 42.5242 14.1492 42.5242C13.7597 42.5242 13.3865 42.7175 13.1756 43.072L5.38707 55.963C5.28971 56.1403 5.22481 56.3336 5.22481 56.5431C5.22481 56.8493 5.33839 57.1232 5.56556 57.3488C5.7765 57.5583 6.06857 57.6711 6.36064 57.6711H32.3224C32.7281 57.655 33.0851 57.4294 33.2798 57.091C33.4745 56.7526 33.4745 56.3175 33.2798 55.963ZM8.35645 55.4313L14.279 45.8597L15.9665 48.6635C15.999 48.7118 16.0476 48.7763 16.1125 48.8246L16.1288 48.8408C16.1612 48.8891 16.2099 48.9374 16.2586 48.9697H16.3884L16.4371 49.0019C16.502 49.0341 16.5669 49.0502 16.6318 49.0664H16.8752C16.9401 49.0825 17.005 49.0825 17.0699 49.0664L17.4431 48.9374C17.4918 48.9052 17.5404 48.8569 17.5891 48.8085L17.6053 48.7924C17.654 48.7441 17.7027 48.6957 17.7351 48.6313L21.9053 41.9602L30.2617 55.4313H8.35645ZM29.061 11.6019C28.0712 11.6019 27.2761 12.3915 27.2761 13.3744C27.2761 14.3573 28.0712 15.1469 29.061 15.1469C30.0508 15.1469 30.8459 14.3573 30.8459 13.3744C30.8459 12.3915 30.0508 11.6019 29.061 11.6019ZM7.6425 38.673C6.29573 38.673 5.20858 39.7526 5.20858 41.09C5.20858 42.4275 6.29573 43.5071 7.6425 43.5071C8.98927 43.5071 10.0764 42.4275 10.0764 41.09C10.0764 39.7526 8.98927 38.673 7.6425 38.673ZM29.061 11.6019C28.0712 11.6019 27.2761 12.3915 27.2761 13.3744C27.2761 14.3573 28.0712 15.1469 29.061 15.1469C30.0508 15.1469 30.8459 14.3573 30.8459 13.3744C30.8459 12.3915 30.0508 11.6019 29.061 11.6019ZM47.5588 23.7355L40.3057 12.1659C40.2083 12.0209 40.0947 11.8919 39.9325 11.7953C39.397 11.473 38.6993 11.6341 38.3748 12.1659L35.7624 16.3393L34.8537 14.8246C34.7563 14.6796 34.6428 14.5507 34.4805 14.454C34.302 14.3412 34.0911 14.2929 33.8801 14.2929C33.799 14.2929 33.7016 14.309 33.6205 14.3251C33.3284 14.3896 33.0688 14.5668 32.9228 14.8246L27.4708 23.7355C27.3572 23.9128 27.3086 24.1062 27.3086 24.3156C27.3086 24.9441 27.8116 25.4436 28.4444 25.4436H46.6176C46.8286 25.4436 47.0395 25.3791 47.218 25.2664C47.4776 25.1052 47.6561 24.8635 47.721 24.5573C47.7697 24.2834 47.721 23.9773 47.5588 23.7355ZM30.5376 23.1393L33.9613 17.4995L34.8537 19.0142C34.9024 19.0626 34.9511 19.127 35.016 19.1754L35.0322 19.2076C35.0646 19.2559 35.1133 19.3043 35.162 19.3365C35.2107 19.3526 35.2594 19.3687 35.308 19.3848L35.3405 19.4009C35.4054 19.4332 35.4865 19.4654 35.5514 19.4815C35.6163 19.4976 35.6812 19.4976 35.7461 19.4815H35.9733L36.2329 19.3687H36.379C36.4276 19.3365 36.4601 19.3043 36.4925 19.2559L36.5088 19.2398C36.5737 19.1915 36.6223 19.127 36.671 19.0626L39.2834 14.8569L44.492 23.1393H30.5376ZM7.6425 38.673C6.29573 38.673 5.20858 39.7526 5.20858 41.09C5.20858 42.4275 6.29573 43.5071 7.6425 43.5071C8.98927 43.5071 10.0764 42.4275 10.0764 41.09C10.0764 39.7526 8.98927 38.673 7.6425 38.673ZM33.2798 55.963L22.9113 39.2209C22.8139 39.0758 22.7003 38.9469 22.5381 38.8664C22.2785 38.7052 21.9702 38.6569 21.6781 38.7213C21.386 38.7858 21.1264 38.963 20.9804 39.2209L16.8265 45.8919L15.1227 43.0882C15.0254 42.927 14.8956 42.782 14.7333 42.6853C14.5548 42.5725 14.3601 42.5242 14.1492 42.5242C13.7597 42.5242 13.3865 42.7175 13.1756 43.072L5.38707 55.963C5.28971 56.1403 5.22481 56.3336 5.22481 56.5431C5.22481 56.8493 5.33839 57.1232 5.56556 57.3488C5.7765 57.5583 6.06857 57.6711 6.36064 57.6711H32.3224C32.7281 57.655 33.0851 57.4294 33.2798 57.091C33.4745 56.7526 33.4745 56.3175 33.2798 55.963ZM8.35645 55.4313L14.279 45.8597L15.9665 48.6635C15.999 48.7118 16.0476 48.7763 16.1125 48.8246L16.1288 48.8408C16.1612 48.8891 16.2099 48.9374 16.2586 48.9697H16.3884L16.4371 49.0019C16.502 49.0341 16.5669 49.0502 16.6318 49.0664H16.8752C16.9401 49.0825 17.005 49.0825 17.0699 49.0664L17.4431 48.9374C17.4918 48.9052 17.5404 48.8569 17.5891 48.8085L17.6053 48.7924C17.654 48.7441 17.7027 48.6957 17.7351 48.6313L21.9053 41.9602L30.2617 55.4313H8.35645ZM47.5588 23.7355L40.3057 12.1659C40.2083 12.0209 40.0947 11.8919 39.9325 11.7953C39.397 11.473 38.6993 11.6341 38.3748 12.1659L35.7624 16.3393L34.8537 14.8246C34.7563 14.6796 34.6428 14.5507 34.4805 14.454C34.302 14.3412 34.0911 14.2929 33.8801 14.2929C33.799 14.2929 33.7016 14.309 33.6205 14.3251C33.3284 14.3896 33.0688 14.5668 32.9228 14.8246L27.4708 23.7355C27.3572 23.9128 27.3086 24.1062 27.3086 24.3156C27.3086 24.9441 27.8116 25.4436 28.4444 25.4436H46.6176C46.8286 25.4436 47.0395 25.3791 47.218 25.2664C47.4776 25.1052 47.6561 24.8635 47.721 24.5573C47.7697 24.2834 47.721 23.9773 47.5588 23.7355ZM30.5376 23.1393L33.9613 17.4995L34.8537 19.0142C34.9024 19.0626 34.9511 19.127 35.016 19.1754L35.0322 19.2076C35.0646 19.2559 35.1133 19.3043 35.162 19.3365C35.2107 19.3526 35.2594 19.3687 35.308 19.3848L35.3405 19.4009C35.4054 19.4332 35.4865 19.4654 35.5514 19.4815C35.6163 19.4976 35.6812 19.4976 35.7461 19.4815H35.9733L36.2329 19.3687H36.379C36.4276 19.3365 36.4601 19.3043 36.4925 19.2559L36.5088 19.2398C36.5737 19.1915 36.6223 19.127 36.671 19.0626L39.2834 14.8569L44.492 23.1393H30.5376ZM33.2798 55.963L22.9113 39.2209C22.8139 39.0758 22.7003 38.9469 22.5381 38.8664C22.2785 38.7052 21.9702 38.6569 21.6781 38.7213C21.386 38.7858 21.1264 38.963 20.9804 39.2209L16.8265 45.8919L15.1227 43.0882C15.0254 42.927 14.8956 42.782 14.7333 42.6853C14.5548 42.5725 14.3601 42.5242 14.1492 42.5242C13.7597 42.5242 13.3865 42.7175 13.1756 43.072L5.38707 55.963C5.28971 56.1403 5.22481 56.3336 5.22481 56.5431C5.22481 56.8493 5.33839 57.1232 5.56556 57.3488C5.7765 57.5583 6.06857 57.6711 6.36064 57.6711H32.3224C32.7281 57.655 33.0851 57.4294 33.2798 57.091C33.4745 56.7526 33.4745 56.3175 33.2798 55.963ZM8.35645 55.4313L14.279 45.8597L15.9665 48.6635C15.999 48.7118 16.0476 48.7763 16.1125 48.8246L16.1288 48.8408C16.1612 48.8891 16.2099 48.9374 16.2586 48.9697H16.3884L16.4371 49.0019C16.502 49.0341 16.5669 49.0502 16.6318 49.0664H16.8752C16.9401 49.0825 17.005 49.0825 17.0699 49.0664L17.4431 48.9374C17.4918 48.9052 17.5404 48.8569 17.5891 48.8085L17.6053 48.7924C17.654 48.7441 17.7027 48.6957 17.7351 48.6313L21.9053 41.9602L30.2617 55.4313H8.35645ZM29.061 11.6019C28.0712 11.6019 27.2761 12.3915 27.2761 13.3744C27.2761 14.3573 28.0712 15.1469 29.061 15.1469C30.0508 15.1469 30.8459 14.3573 30.8459 13.3744C30.8459 12.3915 30.0508 11.6019 29.061 11.6019ZM7.6425 38.673C6.29573 38.673 5.20858 39.7526 5.20858 41.09C5.20858 42.4275 6.29573 43.5071 7.6425 43.5071C8.98927 43.5071 10.0764 42.4275 10.0764 41.09C10.0764 39.7526 8.98927 38.673 7.6425 38.673ZM29.061 11.6019C28.0712 11.6019 27.2761 12.3915 27.2761 13.3744C27.2761 14.3573 28.0712 15.1469 29.061 15.1469C30.0508 15.1469 30.8459 14.3573 30.8459 13.3744C30.8459 12.3915 30.0508 11.6019 29.061 11.6019ZM47.5588 23.7355L40.3057 12.1659C40.2083 12.0209 40.0947 11.8919 39.9325 11.7953C39.397 11.473 38.6993 11.6341 38.3748 12.1659L35.7624 16.3393L34.8537 14.8246C34.7563 14.6796 34.6428 14.5507 34.4805 14.454C34.302 14.3412 34.0911 14.2929 33.8801 14.2929C33.799 14.2929 33.7016 14.309 33.6205 14.3251C33.3284 14.3896 33.0688 14.5668 32.9228 14.8246L27.4708 23.7355C27.3572 23.9128 27.3086 24.1062 27.3086 24.3156C27.3086 24.9441 27.8116 25.4436 28.4444 25.4436H46.6176C46.8286 25.4436 47.0395 25.3791 47.218 25.2664C47.4776 25.1052 47.6561 24.8635 47.721 24.5573C47.7697 24.2834 47.721 23.9773 47.5588 23.7355ZM30.5376 23.1393L33.9613 17.4995L34.8537 19.0142C34.9024 19.0626 34.9511 19.127 35.016 19.1754L35.0322 19.2076C35.0646 19.2559 35.1133 19.3043 35.162 19.3365C35.2107 19.3526 35.2594 19.3687 35.308 19.3848L35.3405 19.4009C35.4054 19.4332 35.4865 19.4654 35.5514 19.4815C35.6163 19.4976 35.6812 19.4976 35.7461 19.4815H35.9733L36.2329 19.3687H36.379C36.4276 19.3365 36.4601 19.3043 36.4925 19.2559L36.5088 19.2398C36.5737 19.1915 36.6223 19.127 36.671 19.0626L39.2834 14.8569L44.492 23.1393H30.5376ZM7.6425 38.673C6.29573 38.673 5.20858 39.7526 5.20858 41.09C5.20858 42.4275 6.29573 43.5071 7.6425 43.5071C8.98927 43.5071 10.0764 42.4275 10.0764 41.09C10.0764 39.7526 8.98927 38.673 7.6425 38.673ZM33.2798 55.963L22.9113 39.2209C22.8139 39.0758 22.7003 38.9469 22.5381 38.8664C22.2785 38.7052 21.9702 38.6569 21.6781 38.7213C21.386 38.7858 21.1264 38.963 20.9804 39.2209L16.8265 45.8919L15.1227 43.0882C15.0254 42.927 14.8956 42.782 14.7333 42.6853C14.5548 42.5725 14.3601 42.5242 14.1492 42.5242C13.7597 42.5242 13.3865 42.7175 13.1756 43.072L5.38707 55.963C5.28971 56.1403 5.22481 56.3336 5.22481 56.5431C5.22481 56.8493 5.33839 57.1232 5.56556 57.3488C5.7765 57.5583 6.06857 57.6711 6.36064 57.6711H32.3224C32.7281 57.655 33.0851 57.4294 33.2798 57.091C33.4745 56.7526 33.4745 56.3175 33.2798 55.963ZM8.35645 55.4313L14.279 45.8597L15.9665 48.6635C15.999 48.7118 16.0476 48.7763 16.1125 48.8246L16.1288 48.8408C16.1612 48.8891 16.2099 48.9374 16.2586 48.9697H16.3884L16.4371 49.0019C16.502 49.0341 16.5669 49.0502 16.6318 49.0664H16.8752C16.9401 49.0825 17.005 49.0825 17.0699 49.0664L17.4431 48.9374C17.4918 48.9052 17.5404 48.8569 17.5891 48.8085L17.6053 48.7924C17.654 48.7441 17.7027 48.6957 17.7351 48.6313L21.9053 41.9602L30.2617 55.4313H8.35645ZM47.5588 23.7355L40.3057 12.1659C40.2083 12.0209 40.0947 11.8919 39.9325 11.7953C39.397 11.473 38.6993 11.6341 38.3748 12.1659L35.7624 16.3393L34.8537 14.8246C34.7563 14.6796 34.6428 14.5507 34.4805 14.454C34.302 14.3412 34.0911 14.2929 33.8801 14.2929C33.799 14.2929 33.7016 14.309 33.6205 14.3251C33.3284 14.3896 33.0688 14.5668 32.9228 14.8246L27.4708 23.7355C27.3572 23.9128 27.3086 24.1062 27.3086 24.3156C27.3086 24.9441 27.8116 25.4436 28.4444 25.4436H46.6176C46.8286 25.4436 47.0395 25.3791 47.218 25.2664C47.4776 25.1052 47.6561 24.8635 47.721 24.5573C47.7697 24.2834 47.721 23.9773 47.5588 23.7355ZM30.5376 23.1393L33.9613 17.4995L34.8537 19.0142C34.9024 19.0626 34.9511 19.127 35.016 19.1754L35.0322 19.2076C35.0646 19.2559 35.1133 19.3043 35.162 19.3365C35.2107 19.3526 35.2594 19.3687 35.308 19.3848L35.3405 19.4009C35.4054 19.4332 35.4865 19.4654 35.5514 19.4815C35.6163 19.4976 35.6812 19.4976 35.7461 19.4815H35.9733L36.2329 19.3687H36.379C36.4276 19.3365 36.4601 19.3043 36.4925 19.2559L36.5088 19.2398C36.5737 19.1915 36.6223 19.127 36.671 19.0626L39.2834 14.8569L44.492 23.1393H30.5376ZM33.2798 55.963L22.9113 39.2209C22.8139 39.0758 22.7003 38.9469 22.5381 38.8664C22.2785 38.7052 21.9702 38.6569 21.6781 38.7213C21.386 38.7858 21.1264 38.963 20.9804 39.2209L16.8265 45.8919L15.1227 43.0882C15.0254 42.927 14.8956 42.782 14.7333 42.6853C14.5548 42.5725 14.3601 42.5242 14.1492 42.5242C13.7597 42.5242 13.3865 42.7175 13.1756 43.072L5.38707 55.963C5.28971 56.1403 5.22481 56.3336 5.22481 56.5431C5.22481 56.8493 5.33839 57.1232 5.56556 57.3488C5.7765 57.5583 6.06857 57.6711 6.36064 57.6711H32.3224C32.7281 57.655 33.0851 57.4294 33.2798 57.091C33.4745 56.7526 33.4745 56.3175 33.2798 55.963ZM8.35645 55.4313L14.279 45.8597L15.9665 48.6635C15.999 48.7118 16.0476 48.7763 16.1125 48.8246L16.1288 48.8408C16.1612 48.8891 16.2099 48.9374 16.2586 48.9697H16.3884L16.4371 49.0019C16.502 49.0341 16.5669 49.0502 16.6318 49.0664H16.8752C16.9401 49.0825 17.005 49.0825 17.0699 49.0664L17.4431 48.9374C17.4918 48.9052 17.5404 48.8569 17.5891 48.8085L17.6053 48.7924C17.654 48.7441 17.7027 48.6957 17.7351 48.6313L21.9053 41.9602L30.2617 55.4313H8.35645ZM29.061 11.6019C28.0712 11.6019 27.2761 12.3915 27.2761 13.3744C27.2761 14.3573 28.0712 15.1469 29.061 15.1469C30.0508 15.1469 30.8459 14.3573 30.8459 13.3744C30.8459 12.3915 30.0508 11.6019 29.061 11.6019ZM7.6425 38.673C6.29573 38.673 5.20858 39.7526 5.20858 41.09C5.20858 42.4275 6.29573 43.5071 7.6425 43.5071C8.98927 43.5071 10.0764 42.4275 10.0764 41.09C10.0764 39.7526 8.98927 38.673 7.6425 38.673ZM29.061 11.6019C28.0712 11.6019 27.2761 12.3915 27.2761 13.3744C27.2761 14.3573 28.0712 15.1469 29.061 15.1469C30.0508 15.1469 30.8459 14.3573 30.8459 13.3744C30.8459 12.3915 30.0508 11.6019 29.061 11.6019ZM47.5588 23.7355L40.3057 12.1659C40.2083 12.0209 40.0947 11.8919 39.9325 11.7953C39.397 11.473 38.6993 11.6341 38.3748 12.1659L35.7624 16.3393L34.8537 14.8246C34.7563 14.6796 34.6428 14.5507 34.4805 14.454C34.302 14.3412 34.0911 14.2929 33.8801 14.2929C33.799 14.2929 33.7016 14.309 33.6205 14.3251C33.3284 14.3896 33.0688 14.5668 32.9228 14.8246L27.4708 23.7355C27.3572 23.9128 27.3086 24.1062 27.3086 24.3156C27.3086 24.9441 27.8116 25.4436 28.4444 25.4436H46.6176C46.8286 25.4436 47.0395 25.3791 47.218 25.2664C47.4776 25.1052 47.6561 24.8635 47.721 24.5573C47.7697 24.2834 47.721 23.9773 47.5588 23.7355ZM30.5376 23.1393L33.9613 17.4995L34.8537 19.0142C34.9024 19.0626 34.9511 19.127 35.016 19.1754L35.0322 19.2076C35.0646 19.2559 35.1133 19.3043 35.162 19.3365C35.2107 19.3526 35.2594 19.3687 35.308 19.3848L35.3405 19.4009C35.4054 19.4332 35.4865 19.4654 35.5514 19.4815C35.6163 19.4976 35.6812 19.4976 35.7461 19.4815H35.9733L36.2329 19.3687H36.379C36.4276 19.3365 36.4601 19.3043 36.4925 19.2559L36.5088 19.2398C36.5737 19.1915 36.6223 19.127 36.671 19.0626L39.2834 14.8569L44.492 23.1393H30.5376ZM7.6425 38.673C6.29573 38.673 5.20858 39.7526 5.20858 41.09C5.20858 42.4275 6.29573 43.5071 7.6425 43.5071C8.98927 43.5071 10.0764 42.4275 10.0764 41.09C10.0764 39.7526 8.98927 38.673 7.6425 38.673ZM33.2798 55.963L22.9113 39.2209C22.8139 39.0758 22.7003 38.9469 22.5381 38.8664C22.2785 38.7052 21.9702 38.6569 21.6781 38.7213C21.386 38.7858 21.1264 38.963 20.9804 39.2209L16.8265 45.8919L15.1227 43.0882C15.0254 42.927 14.8956 42.782 14.7333 42.6853C14.5548 42.5725 14.3601 42.5242 14.1492 42.5242C13.7597 42.5242 13.3865 42.7175 13.1756 43.072L5.38707 55.963C5.28971 56.1403 5.22481 56.3336 5.22481 56.5431C5.22481 56.8493 5.33839 57.1232 5.56556 57.3488C5.7765 57.5583 6.06857 57.6711 6.36064 57.6711H32.3224C32.7281 57.655 33.0851 57.4294 33.2798 57.091C33.4745 56.7526 33.4745 56.3175 33.2798 55.963ZM8.35645 55.4313L14.279 45.8597L15.9665 48.6635C15.999 48.7118 16.0476 48.7763 16.1125 48.8246L16.1288 48.8408C16.1612 48.8891 16.2099 48.9374 16.2586 48.9697H16.3884L16.4371 49.0019C16.502 49.0341 16.5669 49.0502 16.6318 49.0664H16.8752C16.9401 49.0825 17.005 49.0825 17.0699 49.0664L17.4431 48.9374C17.4918 48.9052 17.5404 48.8569 17.5891 48.8085L17.6053 48.7924C17.654 48.7441 17.7027 48.6957 17.7351 48.6313L21.9053 41.9602L30.2617 55.4313H8.35645ZM47.5588 23.7355L40.3057 12.1659C40.2083 12.0209 40.0947 11.8919 39.9325 11.7953C39.397 11.473 38.6993 11.6341 38.3748 12.1659L35.7624 16.3393L34.8537 14.8246C34.7563 14.6796 34.6428 14.5507 34.4805 14.454C34.302 14.3412 34.0911 14.2929 33.8801 14.2929C33.799 14.2929 33.7016 14.309 33.6205 14.3251C33.3284 14.3896 33.0688 14.5668 32.9228 14.8246L27.4708 23.7355C27.3572 23.9128 27.3086 24.1062 27.3086 24.3156C27.3086 24.9441 27.8116 25.4436 28.4444 25.4436H46.6176C46.8286 25.4436 47.0395 25.3791 47.218 25.2664C47.4776 25.1052 47.6561 24.8635 47.721 24.5573C47.7697 24.2834 47.721 23.9773 47.5588 23.7355ZM30.5376 23.1393L33.9613 17.4995L34.8537 19.0142C34.9024 19.0626 34.9511 19.127 35.016 19.1754L35.0322 19.2076C35.0646 19.2559 35.1133 19.3043 35.162 19.3365C35.2107 19.3526 35.2594 19.3687 35.308 19.3848L35.3405 19.4009C35.4054 19.4332 35.4865 19.4654 35.5514 19.4815C35.6163 19.4976 35.6812 19.4976 35.7461 19.4815H35.9733L36.2329 19.3687H36.379C36.4276 19.3365 36.4601 19.3043 36.4925 19.2559L36.5088 19.2398C36.5737 19.1915 36.6223 19.127 36.671 19.0626L39.2834 14.8569L44.492 23.1393H30.5376ZM33.2798 55.963L22.9113 39.2209C22.8139 39.0758 22.7003 38.9469 22.5381 38.8664C22.2785 38.7052 21.9702 38.6569 21.6781 38.7213C21.386 38.7858 21.1264 38.963 20.9804 39.2209L16.8265 45.8919L15.1227 43.0882C15.0254 42.927 14.8956 42.782 14.7333 42.6853C14.5548 42.5725 14.3601 42.5242 14.1492 42.5242C13.7597 42.5242 13.3865 42.7175 13.1756 43.072L5.38707 55.963C5.28971 56.1403 5.22481 56.3336 5.22481 56.5431C5.22481 56.8493 5.33839 57.1232 5.56556 57.3488C5.7765 57.5583 6.06857 57.6711 6.36064 57.6711H32.3224C32.7281 57.655 33.0851 57.4294 33.2798 57.091C33.4745 56.7526 33.4745 56.3175 33.2798 55.963ZM8.35645 55.4313L14.279 45.8597L15.9665 48.6635C15.999 48.7118 16.0476 48.7763 16.1125 48.8246L16.1288 48.8408C16.1612 48.8891 16.2099 48.9374 16.2586 48.9697H16.3884L16.4371 49.0019C16.502 49.0341 16.5669 49.0502 16.6318 49.0664H16.8752C16.9401 49.0825 17.005 49.0825 17.0699 49.0664L17.4431 48.9374C17.4918 48.9052 17.5404 48.8569 17.5891 48.8085L17.6053 48.7924C17.654 48.7441 17.7027 48.6957 17.7351 48.6313L21.9053 41.9602L30.2617 55.4313H8.35645ZM29.061 11.6019C28.0712 11.6019 27.2761 12.3915 27.2761 13.3744C27.2761 14.3573 28.0712 15.1469 29.061 15.1469C30.0508 15.1469 30.8459 14.3573 30.8459 13.3744C30.8459 12.3915 30.0508 11.6019 29.061 11.6019ZM7.6425 38.673C6.29573 38.673 5.20858 39.7526 5.20858 41.09C5.20858 42.4275 6.29573 43.5071 7.6425 43.5071C8.98927 43.5071 10.0764 42.4275 10.0764 41.09C10.0764 39.7526 8.98927 38.673 7.6425 38.673ZM7.6425 38.673C6.29573 38.673 5.20858 39.7526 5.20858 41.09C5.20858 42.4275 6.29573 43.5071 7.6425 43.5071C8.98927 43.5071 10.0764 42.4275 10.0764 41.09C10.0764 39.7526 8.98927 38.673 7.6425 38.673ZM33.2798 55.963L22.9113 39.2209C22.8139 39.0758 22.7003 38.9469 22.5381 38.8664C22.2785 38.7052 21.9702 38.6569 21.6781 38.7213C21.386 38.7858 21.1264 38.963 20.9804 39.2209L16.8265 45.8919L15.1227 43.0882C15.0254 42.927 14.8956 42.782 14.7333 42.6853C14.5548 42.5725 14.3601 42.5242 14.1492 42.5242C13.7597 42.5242 13.3865 42.7175 13.1756 43.072L5.38707 55.963C5.28971 56.1403 5.22481 56.3336 5.22481 56.5431C5.22481 56.8493 5.33839 57.1232 5.56556 57.3488C5.7765 57.5583 6.06857 57.6711 6.36064 57.6711H32.3224C32.7281 57.655 33.0851 57.4294 33.2798 57.091C33.4745 56.7526 33.4745 56.3175 33.2798 55.963ZM8.35645 55.4313L14.279 45.8597L15.9665 48.6635C15.999 48.7118 16.0476 48.7763 16.1125 48.8246L16.1288 48.8408C16.1612 48.8891 16.2099 48.9374 16.2586 48.9697H16.3884L16.4371 49.0019C16.502 49.0341 16.5669 49.0502 16.6318 49.0664H16.8752C16.9401 49.0825 17.005 49.0825 17.0699 49.0664L17.4431 48.9374C17.4918 48.9052 17.5404 48.8569 17.5891 48.8085L17.6053 48.7924C17.654 48.7441 17.7027 48.6957 17.7351 48.6313L21.9053 41.9602L30.2617 55.4313H8.35645ZM29.061 11.6019C28.0712 11.6019 27.2761 12.3915 27.2761 13.3744C27.2761 14.3573 28.0712 15.1469 29.061 15.1469C30.0508 15.1469 30.8459 14.3573 30.8459 13.3744C30.8459 12.3915 30.0508 11.6019 29.061 11.6019ZM47.5588 23.7355L40.3057 12.1659C40.2083 12.0209 40.0947 11.8919 39.9325 11.7953C39.397 11.473 38.6993 11.6341 38.3748 12.1659L35.7624 16.3393L34.8537 14.8246C34.7563 14.6796 34.6428 14.5507 34.4805 14.454C34.302 14.3412 34.0911 14.2929 33.8801 14.2929C33.799 14.2929 33.7016 14.309 33.6205 14.3251C33.3284 14.3896 33.0688 14.5668 32.9228 14.8246L27.4708 23.7355C27.3572 23.9128 27.3086 24.1062 27.3086 24.3156C27.3086 24.9441 27.8116 25.4436 28.4444 25.4436H46.6176C46.8286 25.4436 47.0395 25.3791 47.218 25.2664C47.4776 25.1052 47.6561 24.8635 47.721 24.5573C47.7697 24.2834 47.721 23.9773 47.5588 23.7355ZM30.5376 23.1393L33.9613 17.4995L34.8537 19.0142C34.9024 19.0626 34.9511 19.127 35.016 19.1754L35.0322 19.2076C35.0646 19.2559 35.1133 19.3043 35.162 19.3365C35.2107 19.3526 35.2594 19.3687 35.308 19.3848L35.3405 19.4009C35.4054 19.4332 35.4865 19.4654 35.5514 19.4815C35.6163 19.4976 35.6812 19.4976 35.7461 19.4815H35.9733L36.2329 19.3687H36.379C36.4276 19.3365 36.4601 19.3043 36.4925 19.2559L36.5088 19.2398C36.5737 19.1915 36.6223 19.127 36.671 19.0626L39.2834 14.8569L44.492 23.1393H30.5376ZM47.5588 23.7355L40.3057 12.1659C40.2083 12.0209 40.0947 11.8919 39.9325 11.7953C39.397 11.473 38.6993 11.6341 38.3748 12.1659L35.7624 16.3393L34.8537 14.8246C34.7563 14.6796 34.6428 14.5507 34.4805 14.454C34.302 14.3412 34.0911 14.2929 33.8801 14.2929C33.799 14.2929 33.7016 14.309 33.6205 14.3251C33.3284 14.3896 33.0688 14.5668 32.9228 14.8246L27.4708 23.7355C27.3572 23.9128 27.3086 24.1062 27.3086 24.3156C27.3086 24.9441 27.8116 25.4436 28.4444 25.4436H46.6176C46.8286 25.4436 47.0395 25.3791 47.218 25.2664C47.4776 25.1052 47.6561 24.8635 47.721 24.5573C47.7697 24.2834 47.721 23.9773 47.5588 23.7355ZM30.5376 23.1393L33.9613 17.4995L34.8537 19.0142C34.9024 19.0626 34.9511 19.127 35.016 19.1754L35.0322 19.2076C35.0646 19.2559 35.1133 19.3043 35.162 19.3365C35.2107 19.3526 35.2594 19.3687 35.308 19.3848L35.3405 19.4009C35.4054 19.4332 35.4865 19.4654 35.5514 19.4815C35.6163 19.4976 35.6812 19.4976 35.7461 19.4815H35.9733L36.2329 19.3687H36.379C36.4276 19.3365 36.4601 19.3043 36.4925 19.2559L36.5088 19.2398C36.5737 19.1915 36.6223 19.127 36.671 19.0626L39.2834 14.8569L44.492 23.1393H30.5376ZM29.061 11.6019C28.0712 11.6019 27.2761 12.3915 27.2761 13.3744C27.2761 14.3573 28.0712 15.1469 29.061 15.1469C30.0508 15.1469 30.8459 14.3573 30.8459 13.3744C30.8459 12.3915 30.0508 11.6019 29.061 11.6019ZM24.5177 65.7441H6.34441C5.71159 65.7441 5.20858 66.2436 5.20858 66.872C5.20858 67.5005 5.71159 68 6.34441 68H24.5177C25.1505 68 25.6535 67.5005 25.6535 66.872C25.6535 66.2436 25.1505 65.7441 24.5177 65.7441ZM32.3062 65.7441H29.71C29.0772 65.7441 28.5742 66.2436 28.5742 66.872C28.5742 67.5005 29.0772 68 29.71 68H32.3062C32.939 68 33.442 67.5005 33.442 66.872C33.442 66.2436 32.939 65.7441 32.3062 65.7441ZM8.94059 18.0474H6.34441C4.2837 18.0474 2.61241 19.7071 2.61241 21.7536V26.781L1.96336 26.1043C1.75242 25.8948 1.46035 25.7659 1.15205 25.7659C0.843758 25.7659 0.567914 25.8787 0.340748 26.1043C0.129809 26.3137 0 26.6038 0 26.91C0 27.2161 0.113583 27.5062 0.340748 27.7156L2.93693 30.2938C3.05051 30.3905 3.16409 30.4711 3.31013 30.5355C3.58597 30.6645 3.89427 30.6645 4.17011 30.5355C4.31615 30.4711 4.44596 30.3905 4.54331 30.2938L7.13949 27.7156C7.35043 27.5062 7.48024 27.2161 7.48024 26.91C7.48024 26.6038 7.36666 26.3299 7.13949 26.1043C6.68516 25.6692 5.97121 25.6692 5.51688 26.1043L4.86784 26.781V21.7536C4.86784 20.9479 5.51688 20.3033 6.32819 20.3033H8.92437C9.55718 20.3033 10.0602 19.8038 10.0602 19.1754C10.0602 18.5469 9.57341 18.0474 8.94059 18.0474ZM51.2908 45.4408L48.6946 42.8626C48.581 42.7659 48.4674 42.6853 48.3214 42.6209C48.0455 42.5081 47.7372 42.5081 47.4614 42.6209C47.3154 42.6692 47.1856 42.7498 47.0882 42.8626L44.492 45.4408C44.2811 45.6502 44.1513 45.9403 44.1513 46.2464C44.1513 46.5526 44.2649 46.8427 44.492 47.0521C44.9301 47.5033 45.6603 47.5033 46.1146 47.0521L46.7637 46.3754V51.4028C46.7637 52.2085 46.1146 52.8531 45.3033 52.8531H42.7071C42.0743 52.8531 41.5713 53.3526 41.5713 53.981C41.5713 54.6095 42.0743 55.109 42.7071 55.109H45.3033C47.364 55.109 49.0353 53.4493 49.0353 51.4028V46.3754L49.6844 47.0521C49.8953 47.2616 50.1874 47.3905 50.4795 47.3905C50.7878 47.3905 51.0636 47.2777 51.2745 47.0682C51.7289 46.601 51.7451 45.8919 51.2908 45.4408Z" fill="black"/>
</svg>
