<svg width="45" height="45" viewBox="0 0 45 45" fill="none" xmlns="http://www.w3.org/2000/svg">
<path d="M43.4614 13.8401L39.4306 13.8313C38.4986 13.8293 37.6284 13.4637 36.9772 12.7955L32.2619 8.04513C31.2609 7.03673 29.9315 6.48829 28.5031 6.48517L23.1045 6.47335C22.6305 3.73254 19.8701 0.598786 13.5153 0.58488C6.62784 0.569808 2.34436 3.43357 2.32722 8.07661C2.32136 9.66469 2.89705 11.1086 4.01838 12.2991L3.95786 12.2989C1.83958 12.2943 0.11439 14.012 0.106559 16.1335C0.102352 17.273 0.594742 18.3288 1.46353 19.0702C0.577222 19.7956 0.0891064 20.8614 0.0848999 22.0009C0.0806934 23.1405 0.573083 24.1962 1.44187 24.9376C0.555563 25.6631 0.0674474 26.7288 0.063241 27.8684C0.0590345 29.0079 0.551424 30.0637 1.42021 30.8051C0.533904 31.5305 0.0457885 32.5963 0.041582 33.7358C0.0337508 35.8573 1.74623 37.5825 3.86451 37.5871L4.51815 37.5886C3.97076 38.3148 3.66466 39.2597 3.66068 40.3386C3.65298 42.4237 5.45943 44.925 14.0657 44.9438C17.7091 44.9518 20.8106 44.2191 23.2854 42.7455C25.3234 41.5377 26.976 39.8198 28.146 37.6403L43.3492 37.6736C43.8576 37.6747 44.2707 37.2634 44.2726 36.7542L44.3537 14.7756C44.3798 14.2543 43.9698 13.8413 43.4614 13.8401ZM3.96325 14.1174L11.2743 14.1334C12.3758 14.1358 13.2803 15.047 13.2762 16.1502C13.2722 17.2534 12.361 18.1606 11.2595 18.1582L3.94839 18.1422C2.84689 18.1398 1.94241 17.2286 1.94648 16.1254C1.95055 15.0222 2.86174 14.115 3.96325 14.1174ZM3.94163 19.9727L11.2527 19.9887C12.3542 19.9911 13.2587 20.9023 13.2546 22.0055C13.2506 23.1087 12.3394 24.0159 11.2379 24.0135L3.92678 23.9975C2.82527 23.9951 1.92079 23.0839 1.92487 21.9807C1.92894 20.8775 2.81592 19.9703 3.94163 19.9727ZM3.91997 25.8402L11.2311 25.8562C12.3326 25.8586 13.237 26.7698 13.233 27.8729C13.2289 28.9761 12.3177 29.8833 11.2162 29.8809L3.90512 29.8649C2.80361 29.8625 1.89913 28.9513 1.90321 27.8482C1.90728 26.745 2.79426 25.8377 3.91997 25.8402ZM3.8835 35.7203C2.782 35.7178 1.87752 34.8067 1.88159 33.7035C1.88566 32.6003 2.77265 31.693 3.89836 31.6955L11.2094 31.7115C12.311 31.7139 13.2154 32.6251 13.2114 33.7283C13.2073 34.8314 12.2961 35.7387 11.1946 35.7363L3.8835 35.7203ZM14.0847 43.0648C8.78299 43.0532 5.49447 41.9913 5.50073 40.2941C5.51951 38.4879 6.68493 37.5691 8.99688 37.5741L11.1878 37.5789C13.3061 37.5836 15.0313 35.8659 15.0391 33.7444C15.0433 32.6048 14.5509 31.5491 13.6821 30.8077C14.5684 30.0822 15.0565 29.0165 15.0607 27.8769C15.065 26.7374 14.5726 25.6816 13.7038 24.9402C14.5901 24.2148 15.0782 23.149 15.0824 22.0095C15.0866 20.87 14.5942 19.8142 13.7254 19.0728C14.6117 18.3474 15.0999 17.2816 15.1041 16.1421C15.1119 14.0206 13.3994 12.2954 11.2811 12.2907L7.093 12.2816C6.52512 12.0015 4.15743 10.6992 4.16719 8.05639C4.1803 4.5044 7.67421 2.39054 13.5207 2.40333C18.4472 2.41411 20.7271 4.54061 21.2405 6.44503L18.626 6.43931C18.1176 6.4382 17.7045 6.84947 17.7026 7.35863L17.6945 9.55286C17.6837 12.4866 20.0474 14.8678 22.9767 14.8743C28.23 14.8858 28.6048 24.8395 28.5936 27.8944C28.5726 33.5679 26.6613 43.0923 14.0847 43.0648ZM42.4725 35.7926L29.0245 35.7632C30.1609 32.8804 30.4139 29.9108 30.4213 27.9106C30.4441 21.7279 29.2986 17.2521 27.1043 14.8954L27.7942 14.8969C28.3026 14.898 28.7157 14.4868 28.7176 13.9776C28.7194 13.4684 28.3094 13.0554 27.801 13.0543L22.9835 13.0437C21.0588 13.0395 19.5152 11.4844 19.5223 9.55686L19.5271 8.27184L28.4965 8.29147C29.4285 8.29351 30.2987 8.6591 30.9499 9.32728L35.6652 14.0777C36.6662 15.0861 37.9956 15.6345 39.424 15.6376L42.5469 15.6445L42.4725 35.7926Z" fill="black"/>
<path d="M24.1123 27.0405C23.5673 27.1363 23.2021 27.6689 23.3091 28.2147C23.416 28.7725 23.2849 31.4756 21.7785 32.9512C20.7458 33.9551 19.1584 34.4123 17.295 34.2264C16.7384 34.1646 16.2526 34.5757 16.1901 35.1332C16.1518 35.6544 16.5494 36.1523 17.0939 36.2141C17.4327 36.2512 17.7716 36.264 18.0864 36.2647C20.1321 36.2692 21.926 35.6185 23.1895 34.3848C25.3033 32.3165 25.4736 28.8134 25.2835 27.8432C25.1887 27.2975 24.6574 26.9326 24.1123 27.0405Z" fill="black"/>
<path d="M24.2329 5.11902C24.2672 5.65227 24.7133 6.04102 25.2213 6.04213C25.2576 6.04221 25.2939 6.04229 25.3182 6.03023C25.8748 5.97086 26.2879 5.47493 26.2294 4.9295C26.0435 2.86906 24.9259 0.879294 24.6612 0.490945C24.3363 0.0418739 23.7198 -0.068536 23.259 0.245519C22.8102 0.571718 22.6991 1.18948 23.0119 1.65065C23.2284 1.96618 24.1053 3.64036 24.2329 5.11902Z" fill="black"/>
</svg>
