<svg width="66" height="49" viewBox="0 0 66 49" fill="none" xmlns="http://www.w3.org/2000/svg">
<g clip-path="url(#clip0_15_223)">
<path d="M47.5462 30.1813C49.2815 30.1813 50.6766 28.7738 50.6766 27.0372C50.6766 26.5264 50.2683 26.1064 49.7466 26.1064C49.2248 26.1064 48.8165 26.5151 48.8165 27.0372C48.8165 27.7409 48.2381 28.3198 47.5348 28.3198C46.8316 28.3198 46.2532 27.7409 46.2532 27.0372C46.2532 26.5264 45.8449 26.1064 45.3231 26.1064C44.8014 26.1064 44.3931 26.5151 44.3931 27.0372C44.3931 27.8771 44.722 28.6603 45.3118 29.2505C45.9016 29.8408 46.7069 30.1813 47.5462 30.1813Z" fill="black"/>
<path d="M52.6161 24.7554C53.1265 24.7554 53.5461 24.3468 53.5461 23.8247V22.7804L53.5802 22.7691C54.0452 22.7123 54.3968 22.3151 54.3968 21.8497C54.3968 21.3389 53.9885 20.9189 53.4668 20.9189H52.6161C52.1057 20.9189 51.686 21.3276 51.686 21.8497V23.8247C51.6974 24.3468 52.1057 24.7554 52.6161 24.7554Z" fill="black"/>
<path d="M41.5124 22.7804H41.5465V23.8247C41.5465 24.3354 41.9548 24.7554 42.4765 24.7554C42.9983 24.7554 43.4066 24.3468 43.4066 23.8247V21.8497C43.4066 21.3389 42.9983 20.9189 42.4765 20.9189H41.6259C41.1155 20.9189 40.6958 21.3276 40.6958 21.8497C40.6958 22.3264 41.0474 22.7123 41.5124 22.7804Z" fill="black"/>
<path d="M61.9849 24.0403L61.9508 24.0176L61.9735 23.9836C62.2571 23.382 62.4045 22.7464 62.4045 22.088C62.4045 21.0097 62.0076 19.9655 61.293 19.1483L61.2703 19.1255L61.293 19.1028C61.4064 18.9439 61.4631 18.7623 61.4631 18.5694V17.5024C61.4858 15.5842 61.4858 14.1313 60.9981 12.3834C60.9981 12.3758 60.9943 12.3682 60.9868 12.3607V12.338C60.9868 12.3153 60.9754 12.3153 60.9754 12.2926C60.6805 11.271 60.4991 10.8057 59.5463 9.13713C58.6389 7.53672 57.7202 6.71948 57.3686 6.39032C57.3459 6.37897 57.3459 6.36762 57.3232 6.35627L57.3006 6.33356C54.9527 4.17697 51.879 2.97382 48.6578 2.97382C48.2722 2.97382 47.9093 3.07598 47.5803 3.28029L47.5577 3.30299L47.535 3.28029C47.206 3.07598 46.8431 2.97382 46.4575 2.97382C39.4026 2.97382 33.6635 8.71716 33.6635 15.7772V18.5467C33.6635 18.7396 33.7202 18.9212 33.8336 19.0801L33.8563 19.1028L33.8336 19.1255C33.5047 19.4888 33.2439 19.9201 33.0624 20.3628L32.9943 20.5217L32.9716 20.34C32.8582 18.9666 32.1664 17.6954 31.0775 16.8668L31.0548 16.8555V13.1325C31.0548 5.8909 25.1682 0 17.9319 0H17.3081C16.7486 0 16.087 0.0302679 15.3233 0.0908038C15.0624 0.113505 14.7561 0.136206 14.3592 0.170257C10.9338 0.431318 7.89414 2.24739 6.01134 5.13041L5.98866 5.15312L3.0397 4.21103C2.76749 4.12022 2.47259 4.16562 2.2344 4.33588C1.99622 4.50614 1.84877 4.7672 1.83743 5.05096C1.82609 5.32337 1.54253 11.8272 2.71077 16.322L2.72212 16.356L2.68809 16.3787C1.02079 17.2073 0 18.8872 0 20.7373C0 23.1777 1.81474 25.2548 4.23062 25.5613H4.25331L4.26465 25.584C4.86578 28.1605 6.31758 30.5441 8.33648 32.2694C8.85822 32.7121 9.43667 33.132 10.0378 33.4839L10.1739 33.5634H7.98488C4.66163 33.5634 1.96219 36.2648 1.96219 39.5905V48.0693C1.96219 48.58 2.37051 49 2.89225 49H30.1361C30.6465 49 31.0662 48.5914 31.0662 48.0693V39.5905C31.0662 38.8073 30.9187 38.0468 30.6238 37.3317L30.6011 37.275H32.2231C33.1645 37.275 34.0832 37.0934 34.9565 36.7301L35.0813 36.6734L35.0019 36.7869C34.3894 37.7403 34.0605 38.8413 34.0605 39.965V48.0693C34.0605 48.58 34.4688 49 34.9905 49H60.2042C60.7146 49 61.1342 48.5914 61.1342 48.0693V39.965C61.1342 38.8527 60.8166 37.763 60.2155 36.8209L60.1474 36.7074L60.2722 36.7642C61.1229 37.0933 62.0076 37.275 62.9149 37.275H65.0699C65.5803 37.275 66 36.8663 66 36.3442V30.4079C65.966 27.786 64.4007 25.2548 61.9849 24.0403ZM35.5009 15.7885C35.5009 9.75006 40.4121 4.8353 46.4575 4.8353C46.5482 4.8353 46.6276 4.91476 46.6276 5.01691C46.6276 5.52768 47.0359 5.94765 47.5577 5.94765C48.0794 5.94765 48.4877 5.53903 48.4877 5.01691C48.4877 4.92611 48.5671 4.8353 48.6578 4.8353C51.5841 4.8353 54.3856 6.01575 56.4386 8.08154C57.9017 9.6479 58.8771 11.7931 59.2741 13.0871C59.6144 14.4378 59.6144 15.5842 59.603 16.9576V17.6386H53.603C50.7788 17.6386 48.4764 15.3458 48.4764 12.5196C48.4764 12.0088 48.0681 11.5888 47.5463 11.5888C47.0246 11.5888 46.6163 11.9975 46.6163 12.5196C46.6163 15.3458 44.3251 17.6386 41.5009 17.6386H35.5123L35.5009 15.7885ZM37.1569 19.4774H41.5577C42.7713 19.4661 43.9622 19.1369 44.983 18.5467C46.0151 17.9564 46.8885 17.0938 47.5236 16.0382L47.5577 15.9815L47.5917 16.0382C48.8393 18.1608 51.1531 19.4774 53.603 19.4774H57.9471C59.3875 19.4774 60.5558 20.6465 60.5558 22.088C60.5558 22.7691 60.2949 23.4047 59.8185 23.8927C59.3081 24.4262 58.5822 24.7213 57.8336 24.6873C57.3686 24.6646 56.9603 24.9937 56.8809 25.4591C56.121 30.0334 52.1853 33.359 47.5463 33.359C44.155 33.359 41.0019 31.543 39.3232 28.6032C39.3006 28.5578 39.2892 28.5124 39.2665 28.4783C38.8696 27.7633 38.5747 27.0255 38.3705 26.2423L38.3592 26.1969C38.3138 26.0153 38.2571 25.7769 38.2004 25.4478C38.121 24.9824 37.7127 24.6532 37.2476 24.6759C36.5331 24.6986 35.8639 24.4489 35.3422 23.9495C34.8318 23.4501 34.5369 22.7804 34.5369 22.0767C34.5482 20.6465 35.7278 19.4774 37.1569 19.4774ZM57.1645 34.4941L57.0397 34.4487C56.1096 34.1536 55.5539 34.1536 53.8979 34.1649H52.7864V33.9266L52.8091 33.9152C53.9206 33.3363 54.9301 32.5645 55.7807 31.6451L55.8374 31.5884L55.8601 31.6678C56.0756 32.6553 56.4839 33.5747 57.0851 34.3806L57.1645 34.4941ZM50.9376 34.6984V35.9924C50.9376 37.7971 49.5312 39.2726 47.7278 39.3748H47.5577C45.6862 39.3748 44.1777 37.8538 44.1777 35.9924V34.7098L44.2344 34.7325C45.2892 35.0616 46.4234 35.2319 47.5463 35.2319C48.6692 35.2319 49.8261 35.0616 50.8923 34.7211L50.9376 34.6984ZM42.3289 33.9379V34.1649H39.913C39.2665 34.1649 38.6314 34.2671 38.0302 34.4827L37.9055 34.5281L37.9962 34.4146C38.6087 33.5861 39.0284 32.6667 39.2439 31.6678L39.2665 31.5884L39.3232 31.6451C39.6181 31.9516 39.913 32.2467 40.2193 32.5078C40.8658 33.0526 41.569 33.5407 42.3289 33.9379ZM3.66352 6.44707V6.39032L6.13611 7.18485C6.55577 7.32106 7.00945 7.1281 7.22495 6.74218C8.71077 4.05212 11.4329 2.2928 14.5066 2.05444C14.9149 2.02038 15.2212 1.99768 15.4707 1.97498C16.1815 1.91445 16.794 1.88418 17.3081 1.88418H17.9319C24.1474 1.88418 29.1947 6.94649 29.1947 13.1552V16.0042L29.138 15.9928C28.7372 15.9096 26.9149 15.868 23.6711 15.868C21.7316 15.8793 19.0662 15.8793 15.3006 15.8793C14.3478 15.8793 13.4291 15.675 12.5558 15.2664C10.673 14.3924 9.30057 12.6558 8.90359 10.624C8.83554 10.2722 8.59735 10.0111 8.25709 9.90896C7.91682 9.81816 7.55387 9.90896 7.32703 10.17C5.97732 11.6115 4.97921 13.3709 4.43478 15.2437L4.37807 15.4026L4.34405 15.2437C3.69754 12.2699 3.64083 8.4561 3.66352 6.44707ZM5.95463 24.5624C5.87524 24.0971 5.47826 23.7679 5.00189 23.7906H4.87713C3.20983 23.7906 1.86011 22.4399 1.86011 20.7714C1.86011 19.1028 3.14178 17.8089 4.77505 17.7521H5.02457C5.47826 17.7748 5.88658 17.4343 5.96597 16.9803C6.18147 15.6637 6.6465 14.4265 7.31569 13.2914C7.40643 13.1325 7.50851 12.9622 7.61059 12.8147L7.65595 12.7579L7.68998 12.826C9.0397 15.8226 12.034 17.7521 15.3119 17.7521H28.2533C28.741 17.7748 29.2401 17.9224 29.6597 18.1721H29.6711C29.6786 18.1721 29.6824 18.1759 29.6824 18.1835C30.5898 18.7283 31.1342 19.7044 31.1342 20.76C31.1342 22.4285 29.7845 23.7792 28.1172 23.7792H28.0038C27.5274 23.7565 27.1191 24.0971 27.0397 24.5511C26.1777 29.7269 21.7429 33.4725 16.5028 33.4725C11.2628 33.4725 6.81663 29.7269 5.95463 24.5624ZM20.4045 34.7098V34.7665C20.2911 36.8323 18.5671 38.4327 16.5255 38.4327C16.4575 38.4327 16.4008 38.4327 16.3327 38.4214C14.4386 38.3306 12.8507 36.8209 12.6692 34.9368V34.8914C12.6692 34.846 12.6578 34.8006 12.6578 34.7665L12.6465 34.7098L12.7032 34.7325C13.9168 35.1184 15.2212 35.3227 16.5028 35.3227C17.7845 35.3227 19.1342 35.1184 20.3478 34.7211L20.4045 34.7098ZM29.206 47.218H3.82231V39.6586C3.82231 37.3544 5.69376 35.4816 7.99622 35.4816H10.8544L10.8658 35.5156C11.3535 38.4214 13.9508 40.4758 16.8998 40.2828C19.5652 40.1126 21.7429 38.1489 22.1853 35.5156L22.1966 35.4816H25.0548C27.3573 35.4816 29.2287 37.3544 29.2287 39.6586L29.206 47.218ZM29.1267 30.476V35.2432L29.0586 35.1751C27.9584 34.1763 26.518 33.6201 25.0321 33.6201H22.8091L22.9452 33.5407C23.5577 33.1774 24.1248 32.7688 24.6465 32.3261C26.6654 30.5895 28.1172 28.2173 28.7183 25.6407L28.7297 25.618H28.7524C30.5104 25.391 32.0076 24.2106 32.6541 22.5534L32.7221 22.3945L32.7448 22.5647C32.8015 23.0642 32.9376 23.5409 33.1531 23.9949L33.1758 24.029L33.1418 24.0517C30.6805 25.2548 29.1267 27.786 29.1267 30.476ZM32.2004 35.4816H30.9754V30.476C30.9754 28.3308 32.3138 26.3444 34.2873 25.5272L34.31 25.5159L34.3327 25.5386C34.9452 26.0493 35.7164 26.3785 36.4991 26.5034H36.5217L36.5331 26.5261C36.7486 27.4227 37.0888 28.3421 37.5312 29.1707L37.5425 29.1821V30.1469C37.5425 33.0866 35.1493 35.4816 32.2004 35.4816ZM59.2628 47.218H35.9093V40.0331C35.9093 37.8084 37.7127 36.0151 39.9244 36.0151H42.3403V36.0605C42.3743 38.9094 44.7221 41.2363 47.569 41.2363C50.4159 41.2363 52.7637 38.9208 52.7977 36.0605V36.0151H55.2476C57.4707 36.0151 59.2628 37.8198 59.2628 40.0331V47.218ZM64.1172 35.4816H62.8922C59.9433 35.4816 57.5501 33.0753 57.5501 30.1355V29.1707L57.5614 29.1594C58.0038 28.3308 58.344 27.4227 58.5595 26.5147L58.5709 26.492H58.5936C59.3421 26.3785 60.0681 26.072 60.6692 25.5953C60.6805 25.584 60.6919 25.5726 60.7032 25.5726C60.7259 25.5499 60.7372 25.5499 60.7599 25.5272L60.7826 25.5045L60.8053 25.5159C62.7902 26.3331 64.1172 28.3194 64.1172 30.4647V35.4816Z" fill="black"/>
<path d="M19.8829 26.3331C19.8829 25.8223 19.4633 25.4023 18.9529 25.4023C18.4425 25.4023 18.0228 25.811 18.0228 26.3331C18.0228 27.1844 17.3309 27.8767 16.4803 27.8767C15.6296 27.8767 14.9377 27.1844 14.9377 26.3331C14.9377 25.8223 14.5294 25.4023 14.0077 25.4023C13.486 25.4023 13.0776 25.811 13.0776 26.3331C13.0776 28.2059 14.5975 29.7269 16.4689 29.7269C18.3404 29.7269 19.8829 28.2059 19.8829 26.3331Z" fill="black"/>
<path d="M10.8202 19.6367C10.3098 19.6367 9.89014 20.0453 9.89014 20.5675V22.7127C9.89014 23.2235 10.2985 23.6434 10.8202 23.6434C11.3419 23.6434 11.7503 23.2348 11.7503 22.7127V20.5675C11.7503 20.0453 11.3306 19.6367 10.8202 19.6367Z" fill="black"/>
<path d="M22.1625 23.62C22.6729 23.62 23.0925 23.2114 23.0925 22.6893V20.544C23.0925 20.0332 22.6842 19.6133 22.1625 19.6133C21.6407 19.6133 21.2324 20.0219 21.2324 20.544V22.6893C21.2438 23.2114 21.6521 23.62 22.1625 23.62Z" fill="black"/>
</g>
<defs>
<clipPath id="clip0_15_223">
<rect width="66" height="49" fill="white"/>
</clipPath>
</defs>
</svg>
