<svg width="52" height="52" viewBox="0 0 52 52" fill="none" xmlns="http://www.w3.org/2000/svg">
<path d="M32.9497 1.83008V3.09962C32.9497 6.92206 29.822 10.0501 25.9993 10.0501C22.1765 10.0501 19.0488 6.92237 19.0488 3.09962V1.83008" stroke="black" stroke-width="2" stroke-miterlimit="22.9256" stroke-linecap="round" stroke-linejoin="round"/>
<path fill-rule="evenodd" clip-rule="evenodd" d="M11.4334 4.15706L20.056 1H31.944L40.5667 4.15706C44.0737 8.03873 47.5465 11.9239 51 15.8534L44.7557 24.1325C43.3596 23.4697 41.9632 22.8062 40.5667 22.1431V51.0018C30.8556 51.0018 21.1445 51.0018 11.4333 51.0018V22.1432C10.0368 22.8063 8.64041 23.4698 7.24431 24.1326L1 15.8535C4.45365 11.9239 7.92628 8.03884 11.4334 4.15706Z" stroke="black" stroke-width="2" stroke-miterlimit="22.9256" stroke-linecap="round" stroke-linejoin="round"/>
<path d="M17.5962 17.3906V19.5691" stroke="black" stroke-width="2" stroke-miterlimit="22.9256" stroke-linecap="round" stroke-linejoin="round"/>
<path d="M19.7722 17.3906H17.5938" stroke="black" stroke-width="2" stroke-miterlimit="22.9256" stroke-linecap="round" stroke-linejoin="round"/>
<path d="M34.3994 17.3906V19.5691" stroke="black" stroke-width="2" stroke-miterlimit="22.9256" stroke-linecap="round" stroke-linejoin="round"/>
<path d="M32.2231 17.3906H34.4016" stroke="black" stroke-width="2" stroke-miterlimit="22.9256" stroke-linecap="round" stroke-linejoin="round"/>
<path d="M17.5962 34.1962V32.0176" stroke="black" stroke-width="2" stroke-miterlimit="22.9256" stroke-linecap="round" stroke-linejoin="round"/>
<path d="M19.7722 34.1963H17.5938" stroke="black" stroke-width="2" stroke-miterlimit="22.9256" stroke-linecap="round" stroke-linejoin="round"/>
<path d="M34.3994 34.1962V32.0176" stroke="black" stroke-width="2" stroke-miterlimit="22.9256" stroke-linecap="round" stroke-linejoin="round"/>
<path d="M32.2231 34.1963H34.4016" stroke="black" stroke-width="2" stroke-miterlimit="22.9256" stroke-linecap="round" stroke-linejoin="round"/>
<path fill-rule="evenodd" clip-rule="evenodd" d="M25.998 21.0215L28.0033 23.5371L31.0155 24.6668L29.2426 27.3515L29.0989 30.5653L25.998 29.7088L22.8969 30.5653L22.7532 27.3514L20.9805 24.6668L23.9926 23.537L25.998 21.0215Z" stroke="black" stroke-width="2" stroke-miterlimit="22.9256" stroke-linecap="round" stroke-linejoin="round"/>
<path d="M12.4092 44.7773H39.4848" stroke="black" stroke-width="2" stroke-miterlimit="22.9256" stroke-linecap="round" stroke-linejoin="round"/>
</svg>
