<svg width="50" height="48" viewBox="0 0 50 48" fill="none" xmlns="http://www.w3.org/2000/svg">
<path d="M10.1872 12.3242C12.3501 12.6314 14.3409 13.5162 15.9262 14.9172C18.6421 17.289 22.1323 18.69 25.7698 18.8497C25.991 18.862 26.2123 18.8743 26.4335 18.8743C29.8867 18.8743 33.2662 17.7437 36.0313 15.6668C37.1496 14.8312 38.1327 13.8603 38.9684 12.7789C39.9023 13.6391 40.7749 14.5854 41.5491 15.63C41.758 15.9003 42.0652 16.0355 42.3602 16.0355C42.5691 16.0355 42.7903 15.9741 42.9746 15.8266C43.4293 15.4948 43.5276 14.8558 43.1835 14.4011C42.1635 13.037 40.9715 11.7835 39.6688 10.6897C39.1281 9.11674 38.3539 7.61746 37.3339 6.26566C35.1096 3.2794 30.2922 0.207116 24.5655 0.0719356C21.0877 -0.0017992 16.0368 1.03049 11.6865 6.36397C11.6742 6.38855 11.6619 6.38855 11.6496 6.41313C10.6296 7.81409 9.84313 9.36252 9.32698 11.0338C9.22867 11.3165 9.27783 11.6237 9.43758 11.8941C9.63421 12.103 9.89228 12.275 10.1872 12.3242ZM13.321 7.60517C17.1429 2.92301 21.5424 2.02591 24.5532 2.08735C29.5549 2.19796 33.8561 4.95072 35.724 7.4577C35.9452 7.75264 36.1542 8.04758 36.3508 8.35481C36.1296 8.21963 35.8961 8.10903 35.6749 7.98614C32.8484 6.52373 29.8007 5.73723 26.6178 5.61433L24.418 3.67265C23.9879 3.30398 23.3489 3.34084 22.9802 3.77096C22.6115 4.20108 22.6484 4.84012 23.0785 5.20879L23.6315 5.70036C22.1814 5.83554 20.7682 6.11819 19.3795 6.54831C18.8388 6.72036 18.5315 7.28566 18.7036 7.82638C18.8756 8.3671 19.4409 8.67433 19.9817 8.50228C21.8496 7.93698 23.7913 7.64204 25.7576 7.64204C27.4412 7.64204 29.0756 7.85096 30.6609 8.24421L28.3874 10.1122C27.945 10.4685 27.8836 11.1199 28.2522 11.55C28.4612 11.7958 28.7438 11.9187 29.0388 11.9187C29.2722 11.9187 29.4935 11.8449 29.6901 11.6852L32.9836 8.98155C34.5689 9.6083 36.0804 10.4317 37.4568 11.4517C36.7195 12.4102 35.8469 13.2582 34.8515 14.0078C29.6163 17.9526 22.2429 17.6945 17.3272 13.3811C15.7419 11.9924 13.8371 11.0216 11.7602 10.53C12.1166 9.48541 12.6573 8.51457 13.321 7.60517Z" fill="black"/>
<path d="M19.5517 39.6063C20.2522 36.0547 19.7238 32.3311 18.0402 29.1236C16.332 25.8547 13.5301 23.274 10.126 21.8239C8.8479 21.2832 7.52067 20.9145 6.15657 20.7179C6.42694 19.4889 6.82019 18.2477 7.33633 17.0557C7.55754 16.5396 7.31175 15.9374 6.79561 15.7162C6.27947 15.495 5.6773 15.7408 5.44381 16.2569C4.7679 17.8299 4.28863 19.4767 3.9814 21.1603C2.87538 22.4138 1.99056 23.8393 1.30237 25.4C-0.381243 29.2957 -0.430399 33.6214 1.14261 37.5908C2.72791 41.5725 5.7879 44.694 9.72042 46.3776C11.699 47.2255 13.8004 47.6556 15.9264 47.6556C17.0816 47.6556 18.2614 47.5205 19.4165 47.2624C19.7115 47.2009 19.9573 47.0043 20.0925 46.7462C20.2276 46.4759 20.2522 46.1686 20.1416 45.886C19.3674 43.846 19.1462 41.6831 19.5517 39.6063ZM10.5561 44.485C7.11513 43.0226 4.46067 40.2944 3.05971 36.8166C1.67104 33.3634 1.73249 29.5906 3.19489 26.1988C3.34236 25.867 3.50212 25.5352 3.67417 25.2157C3.67417 25.4738 3.68646 25.7318 3.69875 25.9899C3.85851 29.1728 4.69417 32.2082 6.18115 35.0224L5.59127 37.8981C5.48067 38.4511 5.83706 38.9918 6.39007 39.1024C6.45151 39.1147 6.52525 39.127 6.59898 39.127C7.07826 39.127 7.49609 38.7952 7.60669 38.3159L7.75416 37.5785C8.60211 38.7583 9.56067 39.852 10.6175 40.8475C10.8142 41.0318 11.0599 41.1301 11.318 41.1301C11.5761 41.1301 11.871 41.0195 12.0554 40.8106C12.4363 40.405 12.4117 39.7537 12.0062 39.3728C10.5807 38.0455 9.36404 36.5094 8.38091 34.8012C7.53296 33.3388 6.89392 31.8149 6.4638 30.2542L9.21657 31.2988C9.33946 31.348 9.46235 31.3602 9.57295 31.3602C9.9785 31.3602 10.3717 31.1145 10.5315 30.6966C10.7281 30.1682 10.4701 29.5783 9.94163 29.3817L5.94766 27.8824C5.68959 26.1865 5.65272 24.4783 5.84935 22.7701C7.05368 22.9422 8.22115 23.2617 9.36404 23.741C15.398 26.3094 18.8635 32.8227 17.5855 39.2376C17.1799 41.3022 17.2905 43.4405 17.905 45.4927C15.3857 45.8123 12.8787 45.4805 10.5561 44.485Z" fill="black"/>
<path d="M49.881 29.222C49.4877 25.9039 48.0745 22.8562 45.801 20.3861C45.5921 20.1649 45.3094 20.042 45.0145 20.0666C44.7196 20.0789 44.4369 20.2263 44.2526 20.4598C42.9008 22.1926 41.1434 23.4461 39.1403 24.122C35.7239 25.2772 32.7622 27.6121 30.8206 30.6721C28.842 33.7812 28.0063 37.5049 28.461 41.167C28.6331 42.5557 28.9772 43.8829 29.4933 45.161C28.289 45.5419 27.0232 45.8246 25.7329 45.9721C25.1798 46.0335 24.7743 46.5497 24.8357 47.1027C24.8972 47.6188 25.3396 47.9998 25.8435 47.9998C25.8803 47.9998 25.9295 47.9998 25.9663 47.9875C27.6622 47.7786 29.3336 47.3853 30.9434 46.7954C31.9634 47.0044 33.008 47.1027 34.0526 47.1027C34.6793 47.1027 35.3184 47.0658 35.9451 46.9921C40.1603 46.5005 43.9331 44.3868 46.5752 41.0318C49.2174 37.6769 50.3971 33.474 49.881 29.222ZM44.9653 39.7783C42.6673 42.7032 39.3738 44.5465 35.6993 44.9766C35.343 45.0258 34.9743 45.0504 34.6179 45.0627C34.8391 44.9275 35.0603 44.7923 35.2815 44.6571C37.9605 42.9244 40.1603 40.6877 41.8685 37.9964L44.6581 37.0624C45.1988 36.8904 45.4815 36.3005 45.2972 35.7721C45.1251 35.2314 44.5352 34.9487 44.0068 35.1331L43.3063 35.3788C43.9085 34.0639 44.3755 32.6875 44.7073 31.2743C44.8425 30.7213 44.4984 30.1805 43.9453 30.0454C43.3923 29.9102 42.8516 30.2543 42.7164 30.8073C42.274 32.6998 41.5613 34.5309 40.5658 36.2391C39.7179 37.7015 38.7225 39.0164 37.5796 40.1839L37.1003 37.2836C37.002 36.7306 36.4858 36.3497 35.9328 36.4357C35.3798 36.534 34.9989 37.0502 35.0849 37.6032L35.7854 41.8061C34.4458 42.8752 32.9834 43.76 31.4104 44.4482C30.9557 43.3299 30.6485 42.1379 30.501 40.9212C29.7022 34.408 33.6225 28.1651 39.8162 26.0514C41.807 25.3755 43.6012 24.208 45.0759 22.6473C46.6121 24.6258 47.5829 26.9608 47.8902 29.4678C48.2957 33.1791 47.2757 36.8412 44.9653 39.7783Z" fill="black"/>
</svg>
