<svg width="51" height="53" viewBox="0 0 51 53" fill="none" xmlns="http://www.w3.org/2000/svg">
<g clip-path="url(#clip0_15_236)">
<path fill-rule="evenodd" clip-rule="evenodd" d="M50.7278 5.06332L48.5243 7.08649L49.0392 9.91894C49.0991 10.2522 48.9674 10.5854 48.6919 10.7877C48.5363 10.9067 48.3446 10.9662 48.153 10.9662C48.0213 10.9662 47.8776 10.9305 47.7578 10.871L44.9915 9.5024L42.2252 10.871C41.9138 11.0257 41.5545 10.99 41.2911 10.7877C41.0156 10.5854 40.8839 10.2522 40.9438 9.91894L41.4587 7.08649L39.2552 5.06332C39.0038 4.8253 38.908 4.46827 39.0038 4.13504C39.1115 3.80181 39.399 3.56379 39.7343 3.51619L42.812 3.09965L44.1772 0.49333C44.3329 0.195804 44.6322 0.0172891 44.9676 0.0172891C45.3029 0.0172891 45.6023 0.195804 45.7579 0.49333L47.1231 3.09965L50.2008 3.51619C50.5481 3.56379 50.8355 3.80181 50.9313 4.13504C51.0751 4.46827 50.9793 4.8253 50.7278 5.06332ZM46.4525 4.8015C46.1651 4.7658 45.9136 4.58728 45.7819 4.32546L44.9915 2.82593L44.2011 4.32546C44.0694 4.57538 43.8179 4.75389 43.5305 4.8015L41.8659 5.02762L43.0275 6.09871C43.2551 6.31293 43.3628 6.61045 43.303 6.91988L43.0156 8.49081L44.5843 7.71725C44.8358 7.59824 45.1352 7.59824 45.3867 7.71725L46.9555 8.49081L46.6681 6.91988C46.6082 6.62235 46.716 6.31293 46.9435 6.09871L48.1051 5.02762L46.4525 4.8015ZM37.2434 1.65963C37.1955 1.68343 32.549 4.53968 32.549 9.05016C32.549 9.5381 32.1418 9.94274 31.6508 9.94274C31.1598 9.94274 30.7527 9.5381 30.7527 9.05016C30.7527 3.51619 36.0937 0.26721 36.3093 0.136299C36.7284 -0.113622 37.2913 0.0172891 37.5428 0.445726C37.8062 0.862261 37.6745 1.40971 37.2434 1.65963ZM25.5074 9.94274C25.0164 9.94274 24.6092 9.5381 24.6092 9.05016V0.897964C24.6092 0.410023 25.0164 0.00538806 25.5074 0.00538806C25.9984 0.00538806 26.4056 0.410023 26.4056 0.897964V9.05016C26.4056 9.5381 25.9984 9.94274 25.5074 9.94274ZM19.352 9.94274C18.861 9.94274 18.4538 9.5381 18.4538 9.05016C18.4538 4.49207 13.8073 1.69533 13.7594 1.65963C13.3403 1.40971 13.1966 0.862261 13.4481 0.433825C13.6996 0.0172891 14.2504 -0.125523 14.6816 0.124398C14.9091 0.255309 20.2382 3.50429 20.2382 9.03826C20.2502 9.53811 19.855 9.94274 19.352 9.94274ZM9.55604 7.07459L10.071 9.90704C10.1309 10.2403 9.99914 10.5735 9.7237 10.7758C9.56802 10.8948 9.37641 10.9543 9.1848 10.9543C9.05307 10.9543 8.90937 10.9186 8.78961 10.8591L6.02327 9.4905L3.25694 10.8591C2.94558 11.0138 2.58631 10.9781 2.32285 10.7758C2.04741 10.5735 1.91568 10.2403 1.97556 9.90704L2.49051 7.07459L0.287017 5.05142C0.035532 4.8134 -0.0602719 4.45637 0.035532 4.12314C0.143311 3.78991 0.430723 3.55189 0.766037 3.50429L3.85571 3.08775L5.22092 0.481429C5.3766 0.183903 5.67599 0.00538806 6.0113 0.00538806C6.34661 0.00538806 6.646 0.183903 6.80168 0.481429L8.16689 3.08775L11.2446 3.50429C11.5919 3.55189 11.8793 3.78991 11.9751 4.12314C12.0829 4.45637 11.9871 4.8134 11.7236 5.05142L9.55604 7.07459ZM7.48428 4.8015C7.19687 4.7658 6.94539 4.58728 6.81366 4.32546L6.02327 2.82593L5.23289 4.32546C5.10116 4.57538 4.84968 4.75389 4.56227 4.8015L2.90965 5.02762L4.07127 6.09871C4.29881 6.31293 4.40658 6.61045 4.34671 6.91988L4.0593 8.49081L5.62808 7.71725C5.87957 7.59824 6.17896 7.59824 6.43044 7.71725L7.99923 8.49081L7.71182 6.91988C7.65194 6.62235 7.75972 6.31293 7.98725 6.09871L9.14888 5.02762L7.48428 4.8015ZM10.1788 15.5124H40.7642C42.7281 15.5243 44.3329 17.1072 44.3329 19.0589V49.4541C44.3329 51.4059 42.7281 53.0006 40.7642 53.0006H10.1788C8.21479 53.0006 6.61007 51.4059 6.61007 49.4541V19.0589C6.61007 17.1072 8.21479 15.5124 10.1788 15.5124ZM29.5551 17.5356H21.3998V30.71H29.5551V17.5356ZM8.64591 49.4541C8.64591 50.2991 9.32851 50.9775 10.1788 50.9775H40.7642C41.6144 50.9775 42.297 50.2991 42.297 49.4541V19.0708C42.297 18.2258 41.6144 17.5475 40.7642 17.5475H31.579V30.4601C31.579 31.7097 30.5491 32.7332 29.2916 32.7332H21.6513C20.3939 32.7332 19.364 31.7097 19.364 30.4601V17.5356H10.1788C9.32851 17.5356 8.64591 18.2139 8.64591 19.0589V49.4541ZM30.573 43.3727H38.2134C38.7762 43.3727 39.2313 43.8249 39.2313 44.3843C39.2313 44.9436 38.7762 45.3959 38.2134 45.3959H30.573C30.0102 45.3959 29.5551 44.9436 29.5551 44.3843C29.5551 43.8249 30.0102 43.3727 30.573 43.3727Z" fill="#1A1A1A"/>
</g>
<defs>
<clipPath id="clip0_15_236">
<rect width="51" height="53" fill="white"/>
</clipPath>
</defs>
</svg>
