<svg width="44" height="44" viewBox="0 0 44 44" fill="none" xmlns="http://www.w3.org/2000/svg">
<path d="M43.7377 8.35118L35.6366 0.2501C35.4843 0.0978653 35.2234 0 34.9733 0C34.7232 0 34.5166 0.0978653 34.31 0.2501L26.6656 7.89447L23.7622 4.99113C23.4143 4.64317 22.838 4.64317 22.49 4.99113L3.28664 24.2489C-1.09555 28.631 -1.09555 35.7535 3.28664 40.1357C5.37444 42.2235 8.22341 43.3978 11.2355 43.3978C14.2476 43.3978 17.0422 42.2235 19.1843 40.0922L36.202 23.0745L38.3986 20.8779C38.7465 20.53 38.7465 19.9537 38.3986 19.6057L36.1042 17.2678L43.7485 9.62342C44.0856 9.27546 44.0856 8.72089 43.7377 8.35118ZM17.9121 38.8199C16.1287 40.6032 13.7909 41.571 11.2464 41.571C8.70186 41.571 6.35309 40.6032 4.58064 38.8199C0.861759 35.1554 0.861759 29.1965 4.58064 25.532L20.9774 9.1341L34.3197 22.4764L17.911 38.8199H17.9121ZM36.5065 20.2799L35.5387 21.2042L22.1855 7.85097L23.1533 6.92669L36.5065 20.2799ZM34.7667 15.9955L27.9378 9.16672L34.9733 2.19653L41.8021 9.02536L34.7667 15.9955Z" fill="black"/>
<path d="M11.181 26.6416C9.7021 26.6416 8.33199 27.1962 7.26634 28.2727C6.2007 29.3383 5.63525 30.7193 5.63525 32.1873C5.63525 33.6553 6.18982 35.0363 7.26634 36.1019C8.33199 37.1676 9.71298 37.733 11.181 37.733C12.6489 37.733 14.0299 37.1784 15.0956 36.1019C16.1612 35.0363 16.7267 33.6553 16.7267 32.1873C16.7267 30.7193 16.1721 29.3383 15.0956 28.2727C14.0299 27.1962 12.6598 26.6416 11.181 26.6416ZM13.8342 34.8949C13.1165 35.6126 12.2031 36.0149 11.1918 36.0149C10.1806 36.0149 9.25627 35.6017 8.54947 34.8949C7.84266 34.1881 7.42945 33.2638 7.42945 32.2525C7.48382 31.2304 7.84266 30.2626 8.54947 29.5449C9.25627 28.8273 10.1806 28.4793 11.1918 28.4793C12.2031 28.4793 13.1274 28.8925 13.8342 29.5993C14.541 30.3061 14.9542 31.2304 14.9542 32.2417C14.9542 33.2529 14.541 34.1881 13.8342 34.8949Z" fill="black"/>
<path d="M37.3218 11.6675C37.474 11.8197 37.735 11.9176 37.9851 11.9176C38.2352 11.9176 38.4418 11.8197 38.6484 11.6675C38.9964 11.3195 38.9964 10.7432 38.6484 10.3952L37.7241 9.47094C37.3762 9.12297 36.7999 9.12297 36.4519 9.47094C36.1039 9.8189 36.1039 10.3952 36.4519 10.7432L37.3218 11.6675Z" fill="black"/>
<path d="M33.5913 5.40453C33.2434 5.05656 32.667 5.05656 32.3191 5.40453C31.9711 5.75249 31.9711 6.32881 32.3191 6.67678L33.2869 7.64456C33.4391 7.79679 33.7001 7.89466 33.9502 7.89466C34.2003 7.89466 34.4069 7.79679 34.6135 7.64456C34.9179 7.29659 34.9179 6.72027 34.5591 6.37231L33.5913 5.40453Z" fill="black"/>
</svg>
