<svg width="59" height="60" viewBox="0 0 59 60" fill="none" xmlns="http://www.w3.org/2000/svg">
<path d="M58.8748 13.6595C58.5918 12.5412 57.7834 11.5846 56.7325 11.0995L56.4765 10.9783L56.7999 10.2507C57.0424 9.6983 57.0424 9.10548 56.8134 8.5396C56.6517 8.1354 56.3822 7.7851 56.0319 7.54258L55.8433 7.40784L56.9885 4.68624C57.7026 2.97513 56.8942 0.994555 55.1831 0.266997C53.4989 -0.447088 51.5184 0.32089 50.7773 1.97811L50.7638 2.032L49.6321 4.69971L49.403 4.65929C48.3791 4.48414 47.3821 5.03654 46.9779 5.97967L28.8697 48.2185C28.8024 48.3801 28.762 48.5553 28.7754 48.7439L29.2739 55.4401L28.6811 54.6317C27.8997 53.5808 27.0508 52.476 26.0538 51.5059C24.7739 50.2664 22.7933 48.69 20.4355 49.2424C18.7648 49.6332 17.5926 51.1826 16.5686 52.5569L16.4069 52.759C16.124 53.1362 15.8411 53.5 15.5851 53.7829C13.7123 55.8309 12.2976 55.6557 11.4084 55.3458C10.6404 55.0764 9.85893 54.6452 9.14484 54.0793L8.83496 53.8503L9.15832 53.6212C10.3709 52.7724 11.4488 51.9506 12.4458 51.1287C13.5102 50.2394 14.6285 49.2559 15.5177 48.0029C16.1105 47.1541 16.7977 46.0223 16.7707 44.7558C16.7573 43.4893 16.1644 42.2094 15.1809 41.3201C13.362 39.7168 11.0581 39.4069 8.67328 40.4309C6.04598 41.5626 4.21362 43.9744 3.86331 46.7364C3.59384 48.8921 4.33488 51.2904 5.89778 53.3114L6.0864 53.5539L5.81694 53.729C3.98457 54.9147 2.07136 56.1003 0.414147 57.0974C0.212047 57.2186 0.0773145 57.4207 0.0234214 57.6498C-0.0304718 57.8788 0.00994807 58.1213 0.131208 58.3234C0.252467 58.5255 0.454567 58.6737 0.683613 58.7141C0.912659 58.768 1.15518 58.7276 1.35728 58.6064C3.04144 57.5824 5.1298 56.3159 7.15079 54.982L7.33942 54.8608L7.5011 55.009C8.53854 55.9252 9.69725 56.6123 10.829 57.003C12.9443 57.7306 14.9788 57.0435 16.8785 54.9551C17.2153 54.5913 17.5252 54.1871 17.889 53.7021L18.0103 53.5404C18.8456 52.4491 19.7887 51.196 20.8127 50.9535C20.9879 50.9131 21.19 50.8862 21.3786 50.8862C22.3756 50.8862 23.467 51.4925 24.8008 52.7724C25.8383 53.7695 26.7005 54.9416 27.5359 56.0869L27.6167 56.1812C28.2096 57.003 28.9102 57.9462 29.6647 58.8085C29.8263 58.9971 30.0689 59.1049 30.3249 59.1049C30.4865 59.1049 30.6617 59.051 30.8099 58.9567L30.8773 58.9297H30.9042C31.0255 58.9028 31.1467 58.8219 31.2815 58.7276L38.4897 52.8667C38.5166 52.8398 38.5436 52.8263 38.557 52.7994L38.6109 52.7455L38.6244 52.732L38.6514 52.7051C38.6648 52.6781 38.6783 52.6646 38.7052 52.6242C38.7052 52.6107 38.7187 52.6107 38.7187 52.6107L38.7322 52.5973C38.7322 52.5973 38.7322 52.5838 38.7457 52.5838V52.5569L38.7726 52.5299L38.7861 52.5164L38.8265 52.4356L55.8298 12.5412L56.0993 12.6759C56.6382 12.9454 57.0424 13.4439 57.2041 14.0502C57.3658 14.643 57.2445 15.2897 56.8807 15.8152V15.8287L56.8403 15.8825L56.7864 15.9364C54.725 18.914 53.5124 21.6222 52.9735 24.4246C52.7579 25.5294 52.6232 26.7285 52.5827 28.2241C52.5693 28.7226 52.9465 29.1268 53.4316 29.1403H53.472C53.9435 29.1403 54.3343 28.763 54.3612 28.278C54.4016 26.8902 54.5229 25.7719 54.725 24.748C55.2235 22.2015 56.3553 19.709 58.2819 16.9065C58.9287 16.0038 59.1712 14.7777 58.8748 13.6595ZM7.56847 52.5973L7.39331 52.3817C6.03251 50.6975 5.38579 48.717 5.60137 46.9789C5.85736 44.8501 7.299 42.9639 9.36042 42.0746C10.0476 41.7782 10.7212 41.6435 11.3545 41.6435C12.3245 41.6435 13.2138 41.9938 13.9952 42.6809C14.6015 43.2199 14.9923 44.0283 14.9923 44.7962C15.0057 45.5507 14.5476 46.3052 14.0491 47.0059C13.2542 48.1511 12.2033 49.0403 11.3006 49.7948C10.2631 50.6436 9.07747 51.5329 7.77057 52.4491L7.56847 52.5973ZM31.5105 55.6288L31.1737 51.1017L31.6452 51.3847C32.521 51.9371 33.4776 52.3413 34.4881 52.6107L35.0405 52.759L31.5105 55.6288ZM36.8864 51.1691H36.6977C34.6633 51.0613 32.7366 50.2394 31.268 48.8382L31.1198 48.7035L31.1602 48.6092L42.7877 21.5009L48.5003 23.953L36.8864 51.1691ZM49.174 22.3363L43.4613 19.8841L49.0258 6.9228L54.6846 9.37494L49.174 22.3363ZM54.8867 3.81047L53.7684 6.49166L51.707 5.58895L52.8387 2.92124C52.96 2.65177 53.1756 2.4362 53.445 2.34188C53.7145 2.2341 54.0109 2.2341 54.2939 2.35536C54.8328 2.59788 55.1022 3.2446 54.8867 3.81047Z" fill="black"/>
</svg>
