<svg width="45" height="50" viewBox="0 0 45 50" fill="none" xmlns="http://www.w3.org/2000/svg">
<g clip-path="url(#clip0_15_197)">
<path d="M39.5538 27.1467H39.2608V3.0426C39.2608 1.36353 37.8972 0 36.2182 0H23.3491C21.67 0 20.3065 1.36353 20.3065 3.0426V7.94456H4.68785C2.09601 7.94456 0 10.0406 0 12.6324V45.3121C0 47.904 2.10728 50 4.68785 50H25.0056C27.5975 50 29.6935 47.8927 29.6935 45.3121V12.6324C29.6935 10.0406 27.5862 7.94456 25.0056 7.94456H22.4476V3.0426C22.4476 2.5355 22.8533 2.12982 23.3604 2.12982H36.2294C36.7365 2.12982 37.1422 2.5355 37.1422 3.0426V27.158H36.8492C34.0433 27.158 31.767 29.4343 31.7557 32.2515V38.9903C31.7557 39.5763 32.229 40.0496 32.815 40.0496H33.4009V43.4077C33.4009 43.9937 33.8742 44.467 34.4602 44.467H41.8977C42.4837 44.467 42.957 43.9937 42.957 43.4077V40.0496H43.5429C44.1289 40.0496 44.6022 39.5763 44.6022 38.9903V32.2515C44.6473 29.4343 42.3597 27.158 39.5538 27.1467ZM27.5524 45.3234C27.5524 46.732 26.4142 47.8815 24.9944 47.8815H4.67658C3.26797 47.8815 2.11855 46.7433 2.11855 45.3234V19.7205H27.5299L27.5524 45.3234ZM25.0056 10.0856C26.4142 10.0856 27.5637 11.2238 27.5637 12.6437V17.5907H2.15236V12.6437C2.15236 11.2351 3.29051 10.0856 4.71039 10.0856H25.0056ZM40.8497 42.3372H35.542V40.0496H40.8497V42.3372ZM42.5062 37.9085H33.8855V32.2403C33.8855 30.6063 35.204 29.2878 36.838 29.2878H39.5538C41.1877 29.2878 42.5062 30.6063 42.5062 32.2403V37.9085Z" fill="black"/>
<path d="M11.2574 32.9048C11.4039 32.9724 11.5616 33.0175 11.7307 33.0175H16.3734L13.883 38.2237C13.6238 38.7646 13.8605 39.3956 14.3901 39.6435C14.931 39.9027 15.5621 39.6661 15.81 39.1364L19.0329 32.3977C19.2921 31.8568 19.0554 31.2257 18.5258 30.9778C18.3793 30.9102 18.2328 30.8764 18.0638 30.8764H13.4323L15.81 25.9744C16.0692 25.4448 15.8438 24.8024 15.3142 24.5433C14.7845 24.2841 14.1422 24.5095 13.883 25.0391L10.7615 31.4736C10.5136 32.0033 10.739 32.6456 11.2574 32.9048Z" fill="black"/>
<path d="M6.38954 15.1117C6.97552 15.1117 7.46008 14.6384 7.46008 14.0524C7.46008 13.7707 7.34739 13.5003 7.15582 13.2974C6.7276 12.8917 6.06274 12.8917 5.64579 13.2974C5.22884 13.7144 5.22884 14.3905 5.65706 14.8075C5.83736 14.999 6.10781 15.1117 6.38954 15.1117Z" fill="black"/>
<path d="M9.01503 14.4463C9.03757 14.514 9.07138 14.5703 9.10518 14.6379C9.15026 14.6943 9.19533 14.7506 9.24041 14.7957C9.43198 14.9985 9.7137 15.1112 9.98416 15.1112C10.0518 15.1112 10.1194 15.0999 10.187 15.0887C10.2546 15.0661 10.3222 15.0549 10.3898 15.0323C10.4462 15.0098 10.5138 14.976 10.5701 14.9309C10.6265 14.8858 10.6828 14.8408 10.7279 14.7957C10.7842 14.7393 10.8181 14.6943 10.8519 14.6379C10.8969 14.5816 10.9307 14.514 10.9533 14.4463C10.9758 14.39 11.0096 14.3224 11.0096 14.2548C11.0322 14.1872 11.0322 14.1195 11.0322 14.0519C11.0322 13.7702 10.9195 13.4998 10.7279 13.3082C10.6716 13.2518 10.6265 13.218 10.5701 13.173C10.5138 13.1279 10.4462 13.0941 10.3898 13.0715C10.3222 13.049 10.2546 13.0152 10.187 13.0152C9.61228 12.9025 9.04884 13.2744 8.92488 13.8716C8.91361 13.9392 8.90234 13.9956 8.90234 14.0632C8.90234 14.1308 8.91361 14.1984 8.92488 14.266C8.96996 14.3224 8.99249 14.39 9.01503 14.4463Z" fill="black"/>
</g>
<defs>
<clipPath id="clip0_15_197">
<rect width="44.6033" height="50" fill="white"/>
</clipPath>
</defs>
</svg>
