<svg width="56" height="56" viewBox="0 0 56 56" fill="none" xmlns="http://www.w3.org/2000/svg">
<g clip-path="url(#clip0_15_205)">
<path d="M55.082 11.0098H47.1803V10.8239C47.1803 4.86529 42.3279 0 36.3607 0C33.4754 0 30.7541 1.12612 28.7104 3.17064C26.6667 5.21515 25.541 7.92659 25.541 10.8239V11.0098H16.9836C16.4809 11.0098 16.0765 11.4143 16.0765 11.9172V24.884H0.907104C0.404372 24.884 0 25.2886 0 25.7915V52.884C0 54.6005 1.39891 56 3.11475 56H52.8852C54.6011 56 56 54.6005 56 52.884V11.9172C55.9891 11.4143 55.5847 11.0098 55.082 11.0098ZM27.377 10.813C27.377 8.40765 28.306 6.14447 30.0109 4.44982C31.7158 2.74424 33.9672 1.81492 36.3716 1.81492C41.3333 1.81492 45.3661 5.84928 45.3661 10.813V10.9988H27.3661L27.377 10.813ZM17.9016 12.8247H25.5519V18.2804H24.2514C23.7486 18.2804 23.3443 18.6849 23.3443 19.1878C23.3443 19.6907 23.7486 20.0953 24.2514 20.0953H28.6557C29.1585 20.0953 29.5628 19.6907 29.5628 19.1878C29.5628 18.6849 29.1585 18.2804 28.6557 18.2804H27.3552V12.8247H45.3552V18.2804H44.0656C43.5628 18.2804 43.1585 18.6849 43.1585 19.1878C43.1585 19.6907 43.5628 20.0953 44.0656 20.0953H48.4699C48.9727 20.0953 49.377 19.6907 49.377 19.1878C49.377 18.6849 48.9727 18.2804 48.4699 18.2804H47.1694V12.8247H54.1639V46.9145H29.5628V25.7915C29.5628 25.2886 29.1585 24.884 28.6557 24.884H17.9016V12.8247ZM27.7596 26.6989V46.9145H1.83607V26.6989H27.7596ZM1.82514 52.884V48.7294H27.7486V52.884C27.7486 53.5947 27.1694 54.1851 26.4481 54.1851H3.10382C2.4153 54.1741 1.82514 53.5947 1.82514 52.884ZM52.8852 54.1741H29.2896C29.4754 53.7806 29.5738 53.3432 29.5738 52.8731V48.7185H54.1749V52.884C54.1749 53.5947 53.5956 54.1741 52.8852 54.1741Z" fill="black"/>
<path d="M8.18568 33.3139H8.37148V35.7083C8.37148 37.4139 9.03814 39.032 10.2513 40.2456C11.4644 41.4592 13.0709 42.1261 14.7868 42.1261C18.3168 42.1261 21.2021 39.2507 21.2021 35.7083V33.3139H21.3879C21.8906 33.3139 22.295 32.9094 22.295 32.4065C22.295 31.9036 21.8906 31.499 21.3879 31.499H19.1802C18.6775 31.499 18.2731 31.9036 18.2731 32.4065C18.2731 32.9094 18.6775 33.3139 19.1802 33.3139H19.366V35.7083C19.366 38.2448 17.3004 40.3112 14.7649 40.3112C13.5299 40.3112 12.3824 39.8301 11.5081 38.9664C10.6338 38.1027 10.1638 36.9438 10.1638 35.7083V33.3139H10.3496C10.8523 33.3139 11.2567 32.9094 11.2567 32.4065C11.2567 31.9036 10.8523 31.499 10.3496 31.499H8.14197C7.63924 31.499 7.23486 31.9036 7.23486 32.4065C7.23486 32.9094 7.69388 33.3139 8.18568 33.3139Z" fill="black"/>
<path d="M50.6886 37.7091C51.1913 37.7091 51.5957 37.3046 51.5957 36.8017V27.9895C51.5957 27.4866 51.1913 27.082 50.6886 27.082C50.1858 27.082 49.7815 27.4866 49.7815 27.9895V36.8017C49.7705 37.3046 50.1749 37.7091 50.6886 37.7091Z" fill="black"/>
</g>
<defs>
<clipPath id="clip0_15_205">
<rect width="56" height="56" fill="white"/>
</clipPath>
</defs>
</svg>
