<svg width="40" height="53" viewBox="0 0 40 53" fill="none" xmlns="http://www.w3.org/2000/svg">
<g clip-path="url(#clip0_15_194)">
<path d="M0.853519 10.2539C0.385837 10.2539 0 10.6281 0 11.1074V17.9473C0 18.415 0.374145 18.8008 0.853519 18.8008H1.70704V29.0664C1.70704 29.195 1.73042 29.3353 1.80057 29.4405L5.1328 36.105V44.4531C4.66512 44.4531 4.27929 44.8273 4.27929 45.3066V47.8672C4.27929 48.3349 4.65343 48.7207 5.1328 48.7207V50.4394C5.1328 51.8542 6.27862 53 7.69336 53H24.7988C26.2135 53 27.3594 51.8542 27.3594 50.4394V48.7207C27.827 48.7207 28.2129 48.3466 28.2129 47.8672V45.3066C28.2129 44.839 27.8387 44.4531 27.3594 44.4531V36.0933L30.6916 29.4289C30.7501 29.3119 30.7851 29.1833 30.7851 29.0547V18.8008H31.6387C32.1063 18.8008 32.4922 18.4266 32.4922 17.9473V17.0938H33.3457V35.0527C33.3457 35.5204 33.7198 35.9062 34.1992 35.9062H35.0527C37.4145 35.9062 39.332 33.9888 39.332 31.627V9.38871C39.332 7.4946 37.8004 5.97463 35.9179 5.97463H34.1992C33.7315 5.97463 33.3457 6.34878 33.3457 6.82815V11.961H32.4922V11.0957C32.4922 10.6281 32.118 10.2422 31.6387 10.2422H30.7851V7.68167C31.2528 7.68167 31.6387 7.30752 31.6387 6.82815V4.26759C31.6387 3.79991 31.2645 3.41407 30.7851 3.41407V0.853519C30.7851 0.385837 30.411 0 29.9316 0H2.57225C2.10457 0 1.71873 0.374145 1.71873 0.853519V3.41407C1.25105 3.41407 0.865211 3.78822 0.865211 4.26759V6.82815C0.865211 7.29583 1.23936 7.68167 1.71873 7.68167V10.2422L0.853519 10.2539ZM35.0527 7.68167H35.9062C36.8533 7.68167 37.6133 8.45334 37.625 9.4004V31.6387C37.625 33.0534 36.4792 34.1992 35.0644 34.1992L35.0527 7.68167ZM32.4922 13.668H33.3457V15.3867H32.4922V13.668ZM29.0781 3.40238H3.42577V1.68365H29.0781V3.40238ZM29.9199 5.97463H2.56056V5.12111H29.9199V5.97463ZM29.0781 7.68167V10.2422H3.42577V7.68167H29.0781ZM6.83984 48.7207H25.6406V50.4394C25.6406 50.9071 25.2665 51.293 24.7871 51.293H7.69336C7.22568 51.293 6.83984 50.9188 6.83984 50.4394V48.7207ZM5.98632 46.1602H26.5058V47.0137H5.98632V46.1602ZM3.42577 18.8008H29.0781V28.8559L25.7459 35.5204C25.6874 35.6373 25.6523 35.7659 25.6523 35.8946V44.4414H6.85153V35.8946C6.85153 35.7659 6.82815 35.6256 6.758 35.5204L3.42577 28.8559V18.8008ZM1.70704 11.9493H30.7851V17.0821H1.70704V11.9493Z" fill="black"/>
</g>
<defs>
<clipPath id="clip0_15_194">
<rect width="39.332" height="53" fill="white"/>
</clipPath>
</defs>
</svg>
