<svg width="61" height="60" viewBox="0 0 61 60" fill="none" xmlns="http://www.w3.org/2000/svg">
<path d="M30.6802 46.4473C28.5366 46.4344 26.7933 48.1778 26.7803 50.3343C26.7674 52.4909 28.5108 54.2213 30.6673 54.2342C32.8239 54.2471 34.5543 52.5038 34.5672 50.3472C34.5672 49.3142 34.154 48.3327 33.4308 47.5966C32.7077 46.8477 31.7262 46.4473 30.6802 46.4473ZM32.0878 51.729C31.313 52.5038 30.0604 52.5038 29.2856 51.729C28.5108 50.9542 28.5108 49.7016 29.2856 48.9267C30.0604 48.1519 31.313 48.1519 32.0878 48.9267C32.8626 49.7016 32.8626 50.9542 32.0878 51.729Z" fill="black"/>
<path d="M49.3795 26.1091C47.8557 27.6329 47.8428 30.0994 49.3537 31.6232C50.0897 32.3592 51.0841 32.7725 52.1301 32.7725C53.1761 32.7725 54.1446 32.3592 54.8678 31.6361C56.3916 30.1123 56.4045 27.6458 54.8936 26.122C53.3827 24.5982 50.9162 24.5853 49.3795 26.1091ZM53.5247 30.306C52.7499 31.0808 51.4973 31.0808 50.7225 30.306C49.9477 29.5312 49.9477 28.2915 50.7096 27.5167L50.7225 27.5037C51.4973 26.7289 52.7499 26.7289 53.5247 27.5037C54.2996 28.2656 54.2996 29.5183 53.5247 30.306Z" fill="black"/>
<path d="M58.4835 22.8159L58.1864 22.5189C56.6497 20.9951 54.6094 20.104 52.4657 20.0266C52.6336 19.8458 52.724 19.6262 52.724 19.3938V7.64244C52.724 7.46165 52.6594 7.26794 52.5561 7.11298L48.6821 1.2373C48.385 0.798236 47.791 0.682013 47.3519 0.979026C47.0937 1.1469 46.9387 1.431 46.9387 1.74093V19.9362L35.1486 7.59078C34.787 7.21629 34.1801 7.20337 33.8056 7.56495C33.6248 7.74574 33.5215 7.97819 33.5086 8.22355C33.3924 12.5496 37.2406 20.8659 37.4472 21.2921C38.0025 22.5576 39.126 23.5003 40.4819 23.8232C41.063 23.9136 41.67 23.8102 42.2123 23.5649L43.5295 25.0629L42.3544 26.238C42.3286 26.2638 42.2898 26.2767 42.2769 26.3026L27.1293 41.476L19.407 33.7537L18.1156 29.8021C18.0123 29.518 17.7928 29.2985 17.5087 29.1952L13.3376 27.8135C13.0018 27.7101 12.6402 27.7876 12.382 28.033L9.61846 30.7965C9.3731 31.0548 9.2827 31.4163 9.39892 31.7521L10.7807 35.8974C10.884 36.1815 11.1035 36.401 11.3876 36.5043L15.2617 37.8473L22.9969 45.66C22.6999 46.0216 22.4416 46.409 22.2221 46.8223H21.047L19.3682 44.317C19.2262 44.0975 18.9937 43.9425 18.7354 43.9038L12.8598 42.9482C12.3432 42.8578 11.8525 43.2194 11.7621 43.7359C11.7492 43.8005 11.7492 43.8392 11.7492 43.9038V44.911H6.84203C6.31258 44.911 5.88643 45.3372 5.88643 45.8666V46.8739H2.90339C2.55472 46.861 2.23188 47.0547 2.05109 47.3646L0.101143 51.2774C-0.131301 51.7423 0.0494891 52.3234 0.514378 52.5559C0.656428 52.6205 0.798477 52.6592 0.940526 52.6592H21.2794C21.6152 54.325 22.4287 55.8618 23.6297 57.0627L23.9138 57.3468C27.2584 60.6914 32.695 60.7044 36.0526 57.3468L42.3286 51.0708C42.3802 51.0321 42.4319 50.9933 42.4706 50.9417L58.4705 34.9547C61.841 31.5971 61.841 26.1734 58.4835 22.8159ZM21.1632 50.748H2.49016L3.49742 48.7335H6.82912C7.35858 48.7335 7.78473 48.3073 7.78473 47.7779V46.7577H12.7048C13.2343 46.7577 13.6604 46.3315 13.6604 45.8021V44.9885L18.0252 45.7117L19.7556 48.3073C19.9364 48.5656 20.2205 48.7335 20.5433 48.7335H21.499C21.2923 49.3921 21.189 50.0765 21.1632 50.748ZM48.8628 4.9435L50.8644 7.95236V19.0064L49.4052 20.4656C49.2244 20.5302 49.0436 20.5948 48.8628 20.6593V4.9435ZM43.1292 21.6666C42.7935 21.2663 42.1865 21.2275 41.7862 21.5762C41.7776 21.5848 41.769 21.5934 41.7604 21.602C41.5021 21.8216 41.1534 21.9378 40.8048 21.9119C40.2624 21.8216 39.7071 21.2792 39.2035 20.414C37.7959 17.3793 36.6724 14.2155 35.8201 10.9871L46.4997 22.1831C46.3705 22.2994 46.2414 22.4027 46.1252 22.5189L44.8855 23.694L43.1292 21.6666ZM16.4756 36.3493C16.3723 36.2331 16.2431 36.1298 16.1011 36.0911L12.3949 34.8901L11.3489 31.7521L13.2472 29.8538L16.3852 30.8998L17.612 34.5931C17.6636 34.7351 17.7411 34.8514 17.8315 34.9676L25.7217 42.832L25.5151 43.0386L24.3141 44.2912L16.4756 36.3493ZM57.1404 33.5987L43.7491 46.9901C43.7103 47.016 43.6716 47.0547 43.6328 47.0805L34.6966 56.0167C32.0881 58.6253 27.8654 58.6253 25.2568 56.0167L24.9727 55.7326C23.888 54.635 23.2165 53.2145 23.0744 51.6907C22.8678 49.702 23.578 47.7262 24.9727 46.3057L27.7879 43.4905L41.7475 29.531C41.7733 29.5051 41.812 29.4922 41.8249 29.4664L47.4294 23.8619C50.038 21.2534 54.2607 21.2534 56.8693 23.8619L57.1534 24.146C59.749 26.7675 59.749 30.9902 57.1404 33.5987Z" fill="black"/>
</svg>
