<svg width="61" height="64" viewBox="0 0 61 64" fill="none" xmlns="http://www.w3.org/2000/svg">
<g clip-path="url(#clip0_15_190)">
<path d="M49.8877 13.8169C52.1655 13.8169 54.0202 11.9555 54.0202 9.66933C54.0202 9.14464 53.9206 8.63244 53.7339 8.14523L50.871 0.662112C50.7216 0.262346 50.3358 0 49.9001 0C49.4644 0 49.091 0.262346 48.9292 0.662112L46.0663 8.14523C45.8796 8.63244 45.78 9.14464 45.78 9.66933C45.7551 11.968 47.6098 13.8169 49.8877 13.8169ZM47.9832 8.91977L49.8877 3.93519L51.7921 8.90728V8.91977C51.8917 9.16963 51.929 9.41948 51.929 9.68183C51.929 10.8187 51.0079 11.7431 49.8752 11.7431C48.7425 11.7431 47.8214 10.8187 47.8214 9.68183C47.8338 9.41948 47.8712 9.15713 47.9832 8.91977Z" fill="black"/>
<path d="M60.1445 34.4798C58.8997 29.87 56.821 25.8098 53.983 22.4118C51.618 19.5885 48.7303 17.2149 45.3446 15.3285C41.7349 13.3172 37.7393 12.0304 33.6317 11.5682V9.8192C33.6317 7.85785 32.0384 6.25879 30.0842 6.25879C28.1299 6.25879 26.5367 7.85785 26.5367 9.8192V11.5682C23.0763 11.9679 19.6906 12.9424 16.5539 14.4415L13.9151 7.55803C13.7657 7.15826 13.3798 6.89592 12.9442 6.89592C12.5085 6.89592 12.1351 7.15826 11.9733 7.55803L9.11041 15.0411C8.92371 15.5284 8.82413 16.0406 8.82413 16.5653C8.82413 17.4647 9.11041 18.2892 9.59586 18.9763C4.96545 22.974 1.74159 28.1834 0.0363108 34.4798C-0.0632678 34.842 0.0487581 35.2293 0.322599 35.5042C0.521757 35.6915 0.770703 35.7915 1.0321 35.7915C1.13168 35.7915 1.2437 35.7665 1.35573 35.7415L1.79138 35.6041C3.28506 35.1169 10.1435 33.5803 16.305 34.7421C17.587 34.992 18.8567 35.3293 20.089 35.729C20.3006 35.7915 20.5246 35.804 20.7238 35.729L21.1594 35.5916C23.8978 34.7171 26.686 34.2549 29.4867 34.2049V59.2028C29.4867 60.7019 28.2793 61.9262 26.7732 61.9262C25.267 61.9262 24.0597 60.7144 24.0597 59.2028C24.0597 58.6281 23.5991 58.1659 23.0265 58.1659C22.454 58.1659 21.9934 58.6281 21.9934 59.2028C21.9934 61.8512 24.1343 64 26.7732 64C29.412 64 31.5529 61.8512 31.5529 59.2028V34.2424C34.03 34.3673 36.5194 34.8046 38.9342 35.5791C38.9218 35.704 38.9093 35.829 38.9093 35.9414C38.9093 38.2276 40.764 40.089 43.0418 40.089C45.3197 40.089 47.1743 38.2276 47.1743 35.9414C47.1743 35.4167 47.0748 34.9045 46.8881 34.4173L46.8507 34.3174C50.8712 33.9551 54.9788 34.4423 58.8002 35.729C59.1611 35.854 59.5594 35.7665 59.8333 35.5042C60.132 35.2543 60.244 34.8545 60.1445 34.4798ZM30.5447 32.1436H30.3082C27.4827 32.1186 24.6696 32.4809 21.9436 33.2055C22.0805 31.2192 22.454 27.4589 23.3004 23.736C24.3584 19.0513 26.3998 13.4921 30.0717 13.4921C33.7437 13.4921 36.1709 19.0763 37.3908 23.7735C38.4114 27.6088 38.872 31.519 39.0587 33.4429C36.2954 32.6308 33.4449 32.1936 30.5447 32.1436ZM28.6154 9.8317C28.6154 9.01967 29.2751 8.34507 30.0966 8.34507C30.9181 8.34507 31.5778 9.00718 31.5778 9.8317V11.4058C31.2169 11.3808 30.831 11.3808 30.4576 11.3683C29.8477 11.3558 29.2377 11.3808 28.6278 11.4058L28.6154 9.8317ZM11.0398 15.8157L12.9442 10.8311L14.8486 15.8032V15.8157C14.886 15.9156 14.9233 16.0281 14.9482 16.1405C14.9607 16.1655 14.9607 16.203 14.9731 16.2279C14.9856 16.2779 14.998 16.3279 14.998 16.3654V16.4153C14.998 16.4778 15.0104 16.5153 15.0104 16.5777V16.5902C15.0104 17.7271 14.0893 18.6515 12.9566 18.6515C12.9068 18.6515 12.8571 18.6515 12.8073 18.639H12.7699C12.7201 18.639 12.6704 18.6265 12.633 18.6141C12.6081 18.6141 12.6081 18.6016 12.5832 18.6016C12.5583 18.5891 12.521 18.5891 12.4961 18.5766C12.4712 18.5766 12.4587 18.5641 12.4339 18.5641C12.3965 18.5516 12.3716 18.5391 12.3343 18.5391C12.3094 18.5266 12.2845 18.5141 12.2596 18.5141C12.2347 18.5016 12.2222 18.5016 12.2098 18.4891C12.1725 18.4641 12.1351 18.4641 12.0978 18.4392C12.0729 18.4267 12.0604 18.4142 12.0355 18.4142C12.0106 18.4017 11.9982 18.3892 11.9733 18.3892C11.936 18.3642 11.9111 18.3517 11.8737 18.3267C11.8613 18.3142 11.8488 18.3017 11.8364 18.3017C11.799 18.2767 11.7617 18.2518 11.7244 18.2268C11.214 17.852 10.8779 17.2399 10.8779 16.5653C10.9028 16.3154 10.9526 16.0655 11.0398 15.8157ZM16.6784 32.7058C14.9482 32.381 13.1558 32.2561 11.4381 32.2561C7.81589 32.2561 4.49246 32.8182 2.56312 33.268C4.28085 28.046 7.19353 23.7111 11.2016 20.338C11.3758 20.413 11.5376 20.4755 11.7244 20.5379C11.7866 20.5629 11.8488 20.5754 11.9111 20.6004C11.9194 20.6004 11.9277 20.6046 11.936 20.6129C11.9982 20.6379 12.048 20.6379 12.1102 20.6504C12.1227 20.6504 12.1351 20.6629 12.1476 20.6629C12.2098 20.6753 12.2471 20.6878 12.3094 20.6878C12.3343 20.6878 12.3592 20.7003 12.3716 20.7003C12.4214 20.7128 12.4712 20.7128 12.5085 20.7253C12.5459 20.7253 12.5832 20.7378 12.6206 20.7378C12.6455 20.7378 12.6828 20.7503 12.7201 20.7503C12.7948 20.7503 12.8571 20.7628 12.9317 20.7628C15.2096 20.7628 17.0643 18.9014 17.0643 16.6152V16.5403C19.7031 15.2285 22.4788 14.3416 25.3044 13.8668C24.9185 14.3166 24.5451 14.8413 24.1966 15.4159C23.0265 17.3523 22.0432 20.0257 21.2963 23.3488C20.3504 27.5213 19.9894 31.6439 19.8649 33.5428C18.8318 33.1805 17.7613 32.9182 16.6784 32.7058ZM43.0667 38.0152C41.934 38.0152 41.0129 37.0907 41.0129 35.9539C41.0129 35.6915 41.0627 35.4292 41.1498 35.1918V35.1793L41.2245 34.9795V34.967L42.1705 32.4809L43.0418 30.1948L44.4359 33.8052V33.8176L44.9587 35.1544V35.1669C45.0583 35.4167 45.0956 35.6666 45.0956 35.9289C45.1081 37.0907 44.187 38.0152 43.0667 38.0152ZM46.0914 32.3185L44.0376 26.9342C43.9754 26.7593 43.8634 26.6094 43.714 26.4969C43.5397 26.3595 43.3157 26.2721 43.0667 26.2721C42.6311 26.2721 42.2577 26.5344 42.0958 26.9342L40.8013 30.3197C40.515 28.3084 40.0918 25.7849 39.4321 23.2613C38.5608 19.9383 37.4903 17.2648 36.2207 15.3285C35.8597 14.7663 35.4863 14.2791 35.088 13.8418C38.287 14.404 41.4112 15.4909 44.3488 17.1274C50.8214 20.7378 55.2651 26.1346 57.5928 33.193C53.8586 32.2186 49.9377 31.9063 46.0914 32.3185Z" fill="black"/>
</g>
<defs>
<clipPath id="clip0_15_190">
<rect width="60.1791" height="64" fill="white"/>
</clipPath>
</defs>
</svg>
