<svg width="98" height="104" viewBox="0 0 98 104" fill="none" xmlns="http://www.w3.org/2000/svg">
<g clip-path="url(#clip0_29_2280)">
<path d="M79.6557 37.8162C79.9181 37.9361 80.2044 38.0081 80.4906 38.0081C80.8007 38.0081 81.087 37.9361 81.3733 37.7922C82.9716 36.953 88.2199 33.8836 88.2676 29.6871C88.2915 28.3682 87.7905 27.1213 86.8601 26.1621C85.9059 25.2029 84.6654 24.6514 83.3056 24.6514H83.2818C82.2798 24.6514 81.3017 24.9391 80.4906 25.4907C79.6795 24.9391 78.7253 24.6514 77.7233 24.6514H77.6995C75.0038 24.6753 72.7852 26.9055 72.7136 29.6391C72.642 34.0035 78.0096 37.0009 79.6557 37.8162ZM77.7233 27.5529C78.272 27.5529 78.7969 27.7687 79.2024 28.1284C79.9181 28.8238 81.0632 28.8238 81.8027 28.1284C82.2082 27.7447 82.7331 27.5529 83.2818 27.5529C83.8543 27.5529 84.3791 27.7927 84.7847 28.2004C85.1664 28.608 85.3811 29.1116 85.3811 29.6631C85.3572 31.7254 82.4468 33.9075 80.4668 35.0346C78.439 33.9555 75.5286 31.8213 75.5763 29.7111C75.624 28.5601 76.626 27.5529 77.7233 27.5529Z" fill="black"/>
<path d="M16.4604 37.8162C16.7228 37.9361 17.009 38.0081 17.2953 38.0081C17.6054 38.0081 17.8917 37.9361 18.178 37.7922C19.7763 36.953 25.0246 33.8836 25.0723 29.6871C25.0962 28.3682 24.5952 27.1213 23.6648 26.1621C22.7106 25.2029 21.4701 24.6514 20.1103 24.6514H20.0864C19.0845 24.6514 18.1064 24.9391 17.2953 25.4907C16.4842 24.9391 15.53 24.6514 14.528 24.6514H14.5042C11.8085 24.6753 9.58985 26.9055 9.51829 29.6391C9.44672 34.0035 14.8143 37.0009 16.4604 37.8162ZM14.528 27.5529C14.5439 27.5529 14.5439 27.5529 14.528 27.5529C15.0767 27.5529 15.6015 27.7687 16.0071 28.1284C16.7228 28.8238 17.8678 28.8238 18.6074 28.1284C19.0129 27.7447 19.5378 27.5529 20.0864 27.5529C20.659 27.5529 21.1838 27.7927 21.5894 28.2004C21.9711 28.608 22.1858 29.1116 22.1858 29.6631C22.1619 31.7254 19.2515 33.9075 17.2715 35.0346C15.2437 33.9555 12.3333 31.8213 12.381 29.7111C12.4287 28.5601 13.4307 27.5529 14.528 27.5529Z" fill="black"/>
<path d="M6.82307 42.516H11.7135C11.9044 42.516 12.0952 42.588 12.2384 42.7318L15.5543 46.041C16.0553 46.5206 16.6994 46.7844 17.3435 46.7844C17.9876 46.7844 18.6317 46.5446 19.1089 46.065L22.4725 42.7318C22.6157 42.588 22.8065 42.516 22.9974 42.516H27.8163C30.7505 42.516 33.16 40.118 33.16 37.1446V31.2935C33.9234 31.5813 34.7345 31.7491 35.5933 31.7491H42.1298C42.6546 31.7491 43.1556 31.965 43.4896 32.3726L46.8055 36.1614C47.3542 36.8089 48.1653 37.1685 49.0003 37.1685C49.8352 37.1685 50.6463 36.8088 51.195 36.1854L54.5826 32.3726C54.9404 31.9889 55.4175 31.7491 55.9423 31.7491H62.4073C63.1945 31.7491 63.9341 31.6053 64.6259 31.3655V37.1446C64.6259 40.0941 67.0115 42.516 69.9696 42.516H74.8601C75.0509 42.516 75.2418 42.588 75.3849 42.7318L78.7009 46.041C79.178 46.5206 79.8459 46.7844 80.4901 46.7844C81.1342 46.7844 81.7783 46.5446 82.2554 46.065L85.6191 42.7318C85.7622 42.588 85.9531 42.516 86.1439 42.516H90.9628C93.8971 42.516 96.3065 40.118 96.3065 37.1446V22.9726C96.3065 20.0231 93.9209 17.6011 90.9628 17.6011H69.2778V6.90616C69.2778 3.09338 66.2004 0 62.4073 0H35.5456C31.7525 0 28.6751 3.09338 28.6751 6.90616V17.6011H6.77536C3.84109 17.6011 1.43164 19.9991 1.43164 22.9726V37.1446C1.47935 40.118 3.86494 42.516 6.82307 42.516ZM90.9866 20.5027C92.3464 20.5027 93.4677 21.6297 93.4677 22.9965V37.1685C93.4677 38.5354 92.3464 39.6624 90.9866 39.6624H86.1678C85.2135 39.6624 84.3309 40.0221 83.639 40.6936L80.5139 43.7869L77.4604 40.7175C76.7685 40.0461 75.8859 39.6624 74.9078 39.6624H70.0173C68.6575 39.6624 67.5363 38.5354 67.5363 37.1685V29.495C68.6337 28.2721 69.3017 26.6415 69.3017 24.867V20.5027H90.9866ZM31.5855 6.93014C31.5855 4.724 33.3747 2.90154 35.5933 2.90154H62.455C64.6497 2.90154 66.4628 4.70002 66.4628 6.93014V24.867C66.4628 27.0731 64.6736 28.8955 62.455 28.8955H55.9901C54.6541 28.8955 53.3898 29.4711 52.5071 30.4542L49.1196 34.267C49.1196 34.267 49.0957 34.291 49.048 34.291C49.0003 34.291 49.0003 34.267 48.9764 34.267L45.6605 30.4782C44.7778 29.4711 43.4896 28.8716 42.1298 28.8716H35.5933C33.3985 28.8716 31.5855 27.0731 31.5855 24.843V6.93014ZM4.34206 22.9965C4.34206 21.6297 5.46329 20.5027 6.82307 20.5027H28.7228V24.867C28.7228 26.5216 29.2953 28.0323 30.2734 29.2313V37.1685C30.2734 38.5354 29.1522 39.6624 27.7924 39.6624H22.9735C22.0193 39.6624 21.1127 40.0221 20.4448 40.6936L17.3197 43.7869L14.2661 40.7175C13.5743 40.0461 12.6916 39.6624 11.7135 39.6624H6.82307C5.46329 39.6624 4.34206 38.5354 4.34206 37.1685V22.9965Z" fill="black"/>
<path d="M48.0454 26.1857C48.3555 26.3296 48.6656 26.4015 48.9996 26.4015C49.3336 26.4015 49.6914 26.3296 50.0016 26.1617C52.3633 24.9148 60.0926 20.4066 60.1642 14.3877C60.188 12.5653 59.4962 10.8387 58.208 9.51983C56.8959 8.17696 55.1544 7.45757 53.3175 7.43359H53.2937C51.7192 7.43359 50.2401 7.96115 49.0235 8.89636C47.8068 7.93717 46.3278 7.43359 44.801 7.43359H44.7533C41.0318 7.45757 37.9543 10.551 37.8828 14.3158C37.7396 20.5745 45.6359 24.9867 48.0454 26.1857ZM44.7533 10.3351C45.8029 10.3351 46.781 10.7188 47.5206 11.4382C48.3317 12.2056 49.6437 12.2056 50.4787 11.4382C51.2421 10.7188 52.244 10.3351 53.2937 10.3351H53.3175C54.3911 10.3351 55.4169 10.7668 56.1802 11.5581C56.9198 12.3255 57.3253 13.3086 57.3253 14.3637C57.2776 17.7928 52.8881 21.3658 49.0235 23.452C45.0873 21.4377 40.6739 17.9367 40.7455 14.4117C40.7693 12.2056 42.6062 10.3351 44.7533 10.3351Z" fill="black"/>
<path d="M96.9981 92.4182V70.1651C96.9981 61.0528 89.6266 53.667 80.5852 53.667C78.0088 53.667 75.4323 54.2905 73.166 55.4415C72.5696 55.6813 69.6353 57.0002 67.1305 60.6931V60.717C65.1982 63.4987 64.1723 66.7599 64.1723 70.1651V86.1355L55.6796 82.6105V76.7115C59.4966 73.6181 61.739 68.0309 62.1685 62.5635C64.1485 61.1487 65.3174 58.2471 65.9615 55.9211C66.3909 54.3624 66.1285 52.6838 65.2459 51.341C64.6733 50.4777 63.8622 49.7823 62.9318 49.3746C63.0273 48.8471 63.0511 48.3195 63.0034 47.768C62.7649 45.0583 60.5463 42.8282 57.8505 42.5884C56.8009 42.4925 55.7512 42.7083 54.8447 43.1639C53.7473 40.9817 51.5049 39.519 48.9523 39.519C47.8072 39.519 46.7098 39.8067 45.7317 40.3583C44.7298 39.543 43.4893 39.1113 42.1772 39.1113C39.6485 39.1113 37.4776 40.7659 36.7619 43.1159C33.2551 43.7634 30.631 46.8328 30.631 50.5257C30.631 52.2282 31.2035 53.8349 32.2293 55.1777C32.2055 56.017 32.2055 57.6237 32.4917 59.1344C33.0166 61.988 34.925 63.4507 36.0224 64.0982C36.1655 65.1053 36.3564 66.1125 36.5949 67.0956V67.1196C36.7381 67.6232 38.0263 72.0115 39.7678 74.0498C40.5312 75.1049 41.39 75.9921 42.2965 76.7355V82.6105L37.6685 84.5289H37.6446L32.1816 86.783C30.9649 87.2866 29.9153 88.1019 29.128 89.085L22.9017 86.5192V81.7233C25.0487 79.8049 26.8856 76.9993 27.8637 73.9059C28.2931 73.8579 28.6748 73.6181 28.9133 73.2584C30.4878 70.7885 33.4937 63.3308 28.6748 58.415C26.7663 56.4726 24.0706 56.089 21.8759 56.5206C21.7804 56.3048 21.6611 56.089 21.5419 55.8731C19.5141 52.6838 14.2658 52.2522 9.59007 54.866C9.39922 54.9619 5.10516 57.4318 4.34177 61.3165C2.98199 65.9446 4.34177 71.2202 5.70156 73.3543C5.94012 73.738 6.34567 73.9778 6.79893 74.0018C7.77702 77.0232 9.59007 79.7809 11.7132 81.6753V86.4713L4.00779 89.6605C3.99189 89.6605 3.98393 89.6685 3.98393 89.6845C3.96008 89.6845 3.96008 89.7085 3.93622 89.7085C1.52678 90.7396 0 93.0897 0 95.7034V100.523C0 102.442 1.55063 104 3.4591 104H94.5409C96.4494 104 98 102.442 98 100.523V95.7034C97.9046 94.5524 97.5945 93.4014 96.9981 92.4182ZM74.2157 58.1033C74.2872 58.0793 74.335 58.0553 74.3827 58.0313C76.315 57.0481 78.3905 56.5446 80.5613 56.5446C88.0282 56.5446 94.1115 62.6594 94.1115 70.1651V89.8284C94.0399 89.7805 93.9445 89.7565 93.8729 89.7085L86.1675 86.5192V83.4498C89.0779 80.5483 91.3442 75.8482 91.3442 71.5079C91.3442 65.9686 88.8871 61.6283 84.7838 59.8778C84.092 59.59 83.2809 59.8778 82.9469 60.5492C82.8992 60.6451 82.8515 60.765 82.8277 60.8849C81.8973 65.1053 78.5813 68.4385 74.3588 69.3497L70.8759 70.0931C70.2079 70.237 69.7308 70.8365 69.7546 71.5079V71.7957C69.8501 76.088 72.0686 80.6202 74.9314 83.4498V86.4952L68.7765 89.0371C68.2756 88.4136 67.6792 87.8621 66.9873 87.4065V70.1171C66.9873 67.3115 67.8223 64.6018 69.4445 62.2997C71.6631 59.0864 74.1918 58.1033 74.2157 58.1033ZM72.7128 72.6829L74.9791 72.2033C79.6548 71.1962 83.4718 67.815 85.094 63.3788C87.241 65.0094 88.4815 67.9349 88.4815 71.5319C88.4815 77.0472 83.6865 83.4258 80.5613 83.4258C77.6509 83.4258 73.3092 77.9345 72.7128 72.6829ZM46.185 101.171C45.6363 95.8713 43.6324 90.7396 40.4596 86.4713L43.3462 85.2723C44.8729 86.6631 46.8768 87.4304 48.9523 87.4304C51.0278 87.4304 53.0316 86.6631 54.5584 85.2723L57.3973 86.4473C54.2006 90.7157 52.1967 95.8473 51.6241 101.171H46.185ZM60.1646 87.5743L64.6972 89.4447C66.4387 90.1641 67.5837 91.8667 67.5837 93.7611V101.147H54.5584C55.1071 96.231 57.0871 91.483 60.1646 87.5743ZM35.0682 54.7701C35.092 54.3624 34.9727 53.9787 34.6865 53.691C33.8992 52.8277 33.446 51.7007 33.446 50.5257C33.446 47.9838 35.426 45.9455 37.9547 45.8736C38.6704 45.8496 39.2668 45.2981 39.3384 44.5787C39.4815 43.1159 40.6743 42.0129 42.1534 42.0129C43.036 42.0129 43.8471 42.4205 44.3958 43.1399C44.6344 43.4517 44.9922 43.6675 45.3978 43.6915C45.8033 43.7394 46.185 43.5955 46.4951 43.3318C47.187 42.7323 48.0458 42.3965 48.9523 42.3965C50.8608 42.3965 52.4352 43.8353 52.65 45.7297C52.7215 46.3052 53.1032 46.7848 53.6519 46.9527C54.2006 47.1206 54.797 46.9287 55.1548 46.4971C55.7512 45.7777 56.6339 45.394 57.5881 45.4899C58.9241 45.6098 60.0214 46.7129 60.1407 48.0558C60.1884 48.6313 60.0691 49.1828 59.8067 49.6864C59.5682 50.118 59.5682 50.6216 59.7829 51.0532C59.9976 51.4849 60.427 51.7726 60.9041 51.8206H60.9995C61.7629 51.9165 62.4309 52.3241 62.8603 52.9716C63.2897 53.619 63.4328 54.4344 63.2181 55.2017C62.7649 56.8084 62.2162 58.1512 61.5959 59.0864C61.0949 58.2471 60.3793 57.7436 59.759 57.3119C58.9002 56.7124 58.1845 56.2089 57.7313 54.6262C57.6358 54.2425 57.3734 53.9308 57.0394 53.739C56.7055 53.5471 56.2999 53.5231 55.9182 53.643C55.5604 53.7629 55.2025 53.8109 54.8208 53.8109C53.6519 53.8109 52.5545 53.2354 51.8866 52.2522C51.5764 51.7966 51.0516 51.5568 50.5029 51.6287C49.9542 51.7007 49.501 52.0843 49.334 52.6119C48.5467 55.0339 46.3043 56.6645 43.7756 56.6645C43.4893 56.6645 42.8213 56.5686 42.4158 56.4966C41.6524 56.3527 40.9129 56.8323 40.7459 57.5997C40.6027 58.2232 40.1495 58.5109 39.0521 59.0385C38.241 59.4221 37.1675 59.9497 36.4757 60.9568C35.9508 60.4533 35.4499 59.7099 35.259 58.6548C34.925 56.8084 35.0682 54.7941 35.0682 54.7701ZM38.742 63.163C38.742 63.115 38.7181 63.0671 38.7181 63.0191C38.742 62.3716 39.076 62.1558 40.2687 61.5803C41.1753 61.1487 42.3204 60.5971 43.036 59.4461C43.2984 59.4701 43.537 59.4941 43.7756 59.4941C46.8053 59.4941 49.5487 57.9354 51.1232 55.4655C52.1967 56.2328 53.4849 56.6405 54.8208 56.6405C55.0355 56.6405 55.2264 56.6405 55.4411 56.6165C56.2045 58.2951 57.3019 59.0624 58.1368 59.638C59.0433 60.2614 59.3535 60.4772 59.3535 61.6762C59.0433 68.8462 55.0833 76.2559 48.9761 76.2559C45.6125 76.2559 43.3462 74.0977 42.0341 72.2992L41.9864 72.2513L41.9387 72.2033C40.7936 70.8844 39.6723 67.5273 39.3145 66.3283C39.0521 65.2972 38.8612 64.2181 38.742 63.163ZM48.9761 79.1335C50.3598 79.1335 51.6241 78.8697 52.8169 78.3901V82.9942C51.7911 83.9774 50.4075 84.5529 48.9761 84.5529C47.5448 84.5529 46.1612 84.0013 45.1353 82.9942V78.4141C46.352 78.8937 47.6164 79.1335 48.9761 79.1335ZM27.5058 101.171H24.5716L27.5058 97.7657V101.171ZM27.5297 93.3295L20.8023 101.171H13.8126L6.75122 91.6748L12.7629 89.181C14.0034 90.26 15.6018 90.8595 17.2717 90.8595C18.9416 90.8595 20.5161 90.26 21.7804 89.181L27.7921 91.6748C27.649 92.2024 27.5536 92.7539 27.5297 93.3295ZM26.6232 60.4772C29.3427 63.2349 28.4362 67.4553 27.3627 70.0212C26.3608 69.014 24.9056 67.6951 23.1164 66.5681C21.9951 65.8487 21.0886 64.8895 20.5638 63.8584C21.1363 63.0671 21.5896 62.2038 21.8997 61.2686C22.1144 60.6451 22.2337 60.0216 22.2814 59.4221C23.5696 59.1344 25.4065 59.2303 26.6232 60.4772ZM7.06134 62.1318C7.0852 62.0839 7.0852 62.0359 7.10906 61.964C7.51461 59.8058 10.0195 57.9594 10.9499 57.4318C12.6436 56.4966 14.2897 56.089 15.6972 56.089C17.2717 56.089 18.536 56.6165 19.0847 57.4798C19.5141 58.1752 19.5618 59.2063 19.1801 60.3573C18.6076 62.0359 17.0093 64.1941 14.1465 65.2492C10.8306 66.4722 8.56427 68.3905 7.20448 69.8533C6.58423 67.7191 6.29796 64.6977 7.06134 62.1318ZM9.13681 71.9875C10.2342 70.7645 12.1904 69.014 15.1246 67.9349C16.3651 67.4793 17.5102 66.8319 18.5122 66.0166C19.2756 67.1436 20.3014 68.1747 21.5657 68.9661C23.1641 69.9972 24.4761 71.1962 25.3588 72.0834C24.1899 77.1431 20.0389 81.3876 17.2478 81.3876C14.4805 81.3876 10.2819 77.0952 9.13681 71.9875ZM17.2717 84.2651C18.1782 84.2651 19.1086 84.0493 20.0151 83.6416V86.9269C19.2756 87.5983 18.2975 87.982 17.2717 87.982C16.2459 87.982 15.2678 87.5983 14.5282 86.9269V83.6416C15.4348 84.0493 16.3651 84.2651 17.2717 84.2651ZM2.79114 100.571V95.7514C2.79114 94.6483 3.29211 93.6172 4.10321 92.9218L10.2103 101.147H3.36368C3.05355 101.171 2.79114 100.907 2.79114 100.571ZM30.3686 93.7851C30.3686 91.8907 31.4898 90.1881 33.2551 89.4687L37.7639 87.5983C40.8174 91.507 42.7736 96.231 43.3223 101.171H30.3686V93.7851ZM70.4464 101.171V93.7851C70.4464 93.0417 70.3272 92.3223 70.1363 91.6509L74.9791 89.6366C75.0268 93.5692 75.3846 97.6938 77.6032 101.171H70.4464ZM77.8179 87.5024V85.608C78.7244 86.0636 79.6548 86.3274 80.5613 86.3274C81.4679 86.3274 82.3983 86.0636 83.3048 85.608V87.5264C83.3048 92.1544 83.3048 96.9504 80.5613 100.451C77.8179 96.9264 77.8179 92.1305 77.8179 87.5024ZM95.0419 100.571C95.0419 100.907 94.7795 101.171 94.4455 101.171H83.5433C85.7619 97.6938 86.0959 93.5692 86.1675 89.6366L92.7994 92.3703C94.1592 92.9458 95.0419 94.2647 95.0419 95.7514V100.571Z" fill="black"/>
</g>
<defs>
<clipPath id="clip0_29_2280">
<rect width="98" height="104" fill="white"/>
</clipPath>
</defs>
</svg>
